<?xml version="1.0" standalone="no"?>
<!DOCTYPE svg PUBLIC "-//W3C//DTD SVG 1.1//EN" "http://www.w3.org/Graphics/SVG/1.1/DTD/svg11.dtd" >
<svg>
<metadata>
Created by FontForge 20090622 at Fri Aug  5 07:57:39 2016
 By deploy user
Copyright (c) 2012 by Avraham Cornfeld. All rights reserved.
</metadata>
<defs>
<font id="almoni-dl-aaa-400" horiz-adv-x="948" >
  <font-face 
    font-family="almoni-dl-aaa-400"
    font-weight="500"
    font-stretch="normal"
    units-per-em="2048"
    panose-1="0 0 0 0 0 0 0 0 0 0"
    ascent="1638"
    descent="-410"
    x-height="928"
    cap-height="1278"
    bbox="-333 -477 2984 1654"
    underline-thickness="0"
    underline-position="0"
    unicode-range="U+0020-U+FFFC"
  />
<missing-glyph horiz-adv-x="472" 
d="M0 700v-700h432v700h-432zM50 50v600h332v-600h-332z" />
    <glyph glyph-name=".notdef" horiz-adv-x="472" 
d="M0 700v-700h432v700h-432zM50 50v600h332v-600h-332z" />
    <glyph glyph-name=".notdef" horiz-adv-x="472" 
d="M0 700v-700h432v700h-432zM50 50v600h332v-600h-332z" />
    <glyph glyph-name=".null" horiz-adv-x="0" 
 />
    <glyph glyph-name="nonmarkingreturn" horiz-adv-x="682" 
 />
    <glyph glyph-name="space" unicode=" " horiz-adv-x="524" 
 />
    <glyph glyph-name="exclam" unicode="!" horiz-adv-x="473" 
d="M143 1278v-493l44 -429h105l42 429v493h-191zM135 0h203v197h-203v-197z" />
    <glyph glyph-name="quotedbl" unicode="&#x22;" horiz-adv-x="604" 
d="M169 1205l-71 -440h63l130 310v130h-122zM382 1205l-71 -440h62l131 310v130h-122z" />
    <glyph glyph-name="numbersign" unicode="#" horiz-adv-x="1157" 
d="M1049 520l24 80h-223l84 223h-84l-84 -223h-225l84 223h-84l-84 -223h-248l-25 -80h242l-78 -205h-237l-25 -79h233l-88 -236h84l88 236h226l-88 -236h84l88 236h237l25 79h-234l78 205h230zM657 315h-225l80 205h223z" />
    <glyph glyph-name="dollar" unicode="$" horiz-adv-x="801" 
d="M754 283q-3 48 -17 89q-15 37 -38 68q-22 29 -53 54q-32 26 -63 44l-70 39q-33 16 -71 38v331q39 0 62 -13q22 -13 36 -36q13 -22 18 -52q3 -19 5 -60h160v4q-3 131 -75 197q-75 66 -206 73v137h-80v-135q-71 -2 -125 -24q-54 -23 -90 -57q-36 -36 -54 -83
q-19 -45 -19 -100q0 -51 21 -92q20 -38 59 -74q32 -30 91 -65q37 -22 117 -65v-384q-53 7 -90 52q-36 42 -53 101h-164q7 -69 34 -121q26 -52 66 -83q41 -32 93 -48t114 -18v-135h80v135q72 5 126 26q58 21 99 58q42 37 64 87q23 51 23 112zM219 805q0 29 9 54q8 26 26 46
q18 19 45 33q27 12 63 12v-302q-66 40 -105 77q-38 35 -38 80zM442 117v351q26 -14 73 -43q30 -19 52 -42q20 -23 30 -47q9 -26 9 -57q0 -33 -10 -60q-10 -29 -30 -51q-21 -23 -52 -36q-32 -14 -72 -15z" />
    <glyph glyph-name="percent" unicode="%" horiz-adv-x="1008" 
d="M173 0h88l551 1062h-91zM233 1062q-83 0 -127 -45q-44 -46 -44 -133v-189q0 -87 44 -134t127 -47q82 0 126 47t44 134v189q0 87 -44 133q-43 45 -126 45zM233 584q-19 0 -33 9q-13 6 -25 22q-12 15 -16 32q-6 18 -6 37v213q0 43 21 69q21 25 59 25t59 -27q21 -28 20 -67
v-213q1 -42 -20 -71t-59 -29zM759 542q-83 0 -127 -45q-44 -46 -44 -133v-189q0 -87 44 -134t127 -47q82 0 126 47t44 134v189q0 87 -44 133q-43 45 -126 45zM759 64q-19 0 -33 9q-13 6 -25 22q-12 15 -16 32q-6 18 -6 37v213q0 43 21 69q21 25 59 25t59 -27q21 -28 20 -67
v-213q1 -42 -20 -71t-59 -29z" />
    <glyph glyph-name="ampersand" unicode="&#x26;" horiz-adv-x="1112" 
d="M401 -28q58 -3 116 6q60 9 112 28q55 18 103 46t87 63l94 -116h193l-199 256q57 80 79 167q22 85 14 186h-146q0 -12 1 -37t1 -37q0 -36 -3 -71t-9 -65q-8 -31 -19 -52l-292 356l86 65q43 32 89 78q38 38 62 91q22 51 23 99q2 53 -14 98q-16 46 -53 84q-37 36 -92 58
q-54 22 -130 22q-115 0 -190 -37q-77 -38 -112 -100t-26 -141t68 -162l56 -75q28 -40 57 -72q-93 -64 -163 -134q-70 -71 -108 -149q-38 -79 -35 -158q1 -80 56 -162q26 -37 59 -63q31 -25 67 -40q34 -14 78 -22q38 -7 90 -10zM496 1193q52 0 90 -28q39 -29 56 -71
q16 -44 6 -93q-10 -51 -55 -94q-12 -12 -58 -50l-70 -57l-30 38l-30 36q-51 68 -61 124q-10 58 6 102q16 43 55 68q38 25 91 25zM418 612l328 -417q-43 -40 -89 -62q-44 -23 -95 -34q-49 -10 -95 -9q-47 2 -87 12q-39 10 -73 31q-31 19 -50 46q-27 39 -35 82q-7 38 1 82
q7 38 29 79t48 74q27 34 58 64q40 36 60 52z" />
    <glyph glyph-name="quotesingle" unicode="'" horiz-adv-x="401" 
d="M88 760h70l147 313v131h-137z" />
    <glyph glyph-name="parenleft" unicode="(" horiz-adv-x="641" 
d="M635 -257v51q-91 6 -147 45q-56 40 -86 124q-29 84 -40 224q-10 133 -10 345q0 150 4 243q5 106 15 182q10 71 31 128q19 50 52 83q32 32 76 48q42 14 105 19v51q-16 4 -38 5q-16 1 -40 1q-101 0 -173 -39q-73 -41 -119 -129q-47 -90 -69 -235q-22 -142 -22 -357
q0 -213 22 -360q22 -151 69 -247q46 -96 119 -141q72 -45 173 -45q24 0 40 1q25 0 38 3z" />
    <glyph glyph-name="parenright" unicode=")" horiz-adv-x="659" 
d="M2 -206v-51q14 -3 38 -3q16 -1 40 -1q100 0 173 45t119 141q47 96 69 247q22 147 22 360q0 215 -22 357q-22 145 -69 235q-46 88 -119 129q-74 39 -173 39q-24 0 -40 -1q-22 -1 -38 -5v-51q63 -5 106 -19q45 -17 76 -48t51 -83q21 -57 31 -128q10 -76 15 -182
q4 -93 4 -243q0 -212 -10 -345q-11 -140 -40 -224q-30 -84 -86 -124q-55 -39 -147 -45z" />
    <glyph glyph-name="asterisk" unicode="*" horiz-adv-x="797" 
d="M63 1196l246 -52l-166 -192l117 -86l132 212l136 -212l119 86l-172 189l250 55l-45 143l-238 -96l25 248h-145l20 -250l-231 98z" />
    <glyph glyph-name="plus" unicode="+" horiz-adv-x="942" 
d="M883 464v125h-344v344h-123v-344h-344v-125h344v-342h123v342h344z" />
    <glyph glyph-name="comma" unicode="," horiz-adv-x="438" 
d="M111 -282h67l140 332v140h-131z" />
    <glyph glyph-name="hyphen" unicode="-" horiz-adv-x="803" 
d="M688 601h-588v-140h588v140z" />
    <glyph glyph-name="period" unicode="." horiz-adv-x="483" 
d="M139 0h203v197h-203v-197z" />
    <glyph glyph-name="slash" unicode="/" horiz-adv-x="549" 
d="M94 -261l453 1553h-90l-454 -1553h91z" />
    <glyph glyph-name="zero" unicode="0" horiz-adv-x="878" 
d="M436 1067q-163 0 -248 -88q-86 -89 -86 -260v-371q0 -172 86 -264q85 -91 248 -91t248 91q86 92 86 264v371q0 171 -86 260q-85 88 -248 88zM436 130q-36 0 -65 17q-31 18 -49 43q-20 27 -30 63q-11 36 -11 73v417q0 86 41 136q40 49 114 49q37 0 68 -14q30 -14 49 -39
q20 -26 30 -59q10 -34 9 -73v-417q2 -41 -9 -76q-11 -37 -30 -62q-19 -26 -49 -42q-29 -16 -68 -16z" />
    <glyph glyph-name="one" unicode="1" horiz-adv-x="534" 
d="M73 142v-142h410v142h-106v928h-111q-12 -47 -37 -82q-7 -10 -25 -30q-14 -15 -32 -26q-20 -12 -42 -18q-22 -7 -52 -7v-107h117v-658h-122z" />
    <glyph glyph-name="two" unicode="2" horiz-adv-x="803" 
d="M723 143h-361l96 139l89 130l88 133q68 107 80 201q10 94 -21 166q-34 72 -103 113q-71 42 -167 42q-80 0 -145 -22q-64 -22 -112 -68q-46 -45 -69 -113q-23 -70 -16 -159h178q-1 34 4 83q4 40 23 76q16 31 49 52q31 19 84 13q44 -4 76 -28q30 -24 43 -58q12 -35 8 -74
q-5 -42 -27 -79l-93 -149l-103 -157l-116 -177l-134 -207h649v143z" />
    <glyph glyph-name="three" unicode="3" horiz-adv-x="828" 
d="M350 606v-106q45 -2 84 -15q38 -14 67 -38q28 -25 44 -62q16 -36 16 -86t-13 -80q-14 -32 -34 -51q-21 -20 -48 -27q-29 -8 -55 -8q-40 0 -70 14q-27 13 -44 38q-18 26 -22 56q-6 31 -3 66h-174q-12 -73 9 -132q21 -58 65 -99t106 -62q60 -22 131 -22q69 0 129 18
q61 17 104 54q42 36 68 93q25 54 25 134q0 46 -14 91q-15 44 -42 78q-29 35 -67 60q-41 25 -88 35q98 22 151 87q52 64 52 167q0 68 -23 119q-23 48 -66 80q-44 32 -101 45q-61 14 -128 14q-88 0 -148 -22q-63 -23 -100 -63q-38 -41 -53 -97q-16 -54 -10 -123h172q2 42 8 68
q6 33 22 56q15 25 42 38q28 14 69 14q20 0 48 -5q27 -5 49 -21q21 -15 37 -49q14 -33 14 -85q0 -53 -21 -86t-52 -51q-30 -18 -68 -26t-68 -9z" />
    <glyph glyph-name="four" unicode="4" horiz-adv-x="815" 
d="M763 402h-103v180h-166v-180h-215l295 659h-193l-365 -806h473v-255h171v255h103v147z" />
    <glyph glyph-name="five" unicode="5" horiz-adv-x="875" 
d="M586 725q-53 17 -96 20q-48 3 -83 -4q-37 -7 -65 -23q-28 -15 -42 -33v233h449v143h-622v-539h168q18 51 58 72q41 21 89 21q76 0 119 -61t43 -196q0 -66 -12 -110q-14 -44 -34 -69q-22 -25 -52 -34q-29 -10 -64 -10t-63 14q-26 13 -45 37q-19 21 -28 53q-9 29 -9 60
h-172q-3 -71 16 -125q20 -57 59 -96q39 -40 98 -63q57 -22 136 -22t142 24q65 25 107 70q44 45 66 112q23 67 23 150q0 64 -8 130q-9 59 -30 109q-23 50 -58 84q-37 35 -90 53z" />
    <glyph glyph-name="six" unicode="6" horiz-adv-x="760" 
d="M377 -7q63 0 120 24q54 24 99 65q44 41 69 94t25 113q0 73 -21 128t-56 93t-81 60q-45 22 -96 28q-29 3 -56 1q-21 -1 -42 -7l280 469h-192l-127 -220l-51 -89l-49 -85l-41 -74q-13 -22 -29 -54q-25 -47 -39 -84q-13 -33 -22 -70q-6 -26 -8 -61q-1 -20 1 -58
q3 -59 29 -109t69 -86q43 -37 99 -57q56 -21 119 -21zM374 472q35 0 62 -13q26 -12 49 -37q21 -26 32 -55q11 -33 11 -66q0 -35 -11 -66q-11 -29 -32 -53q-22 -24 -49 -35q-27 -13 -62 -13q-38 0 -65 13q-28 12 -48 35t-30 53q-10 29 -10 66q0 36 10 66q10 31 30 55
q21 24 48 37t65 13z" />
    <glyph glyph-name="seven" unicode="7" horiz-adv-x="764" 
d="M356 0l352 1061h-617v-148h391l-317 -913h191z" />
    <glyph glyph-name="eight" unicode="8" horiz-adv-x="864" 
d="M613 596q58 34 93 86q33 51 33 119q0 55 -23 106q-22 47 -64 83t-98 55q-58 20 -124 20q-68 0 -126 -20q-56 -19 -98 -55q-42 -35 -65 -83q-23 -51 -23 -106q0 -67 35 -119q36 -53 89 -86q-42 -23 -70 -49q-32 -29 -55 -64q-23 -37 -35 -77q-13 -40 -13 -87
q0 -71 27 -129q27 -59 75 -103t115 -69q65 -25 144 -25q78 0 143 25q65 26 113 69q48 45 74 103q26 60 26 129q0 92 -46 163t-127 114zM430 927q72 0 109 -37t37 -99q0 -64 -37 -102q-37 -40 -109 -40q-73 0 -110 40q-39 39 -39 102q0 61 39 99q37 37 110 37zM430 129
q-41 0 -74 13q-36 14 -60 38q-27 26 -40 61q-15 36 -15 83q0 46 15 83q13 35 40 62q26 25 60 39q36 14 74 14q37 0 73 -14q33 -13 59 -39q24 -24 40 -62q14 -39 14 -83q0 -46 -14 -83q-15 -37 -40 -61q-24 -24 -59 -38q-33 -13 -73 -13z" />
    <glyph glyph-name="nine" unicode="9" horiz-adv-x="764" 
d="M379 1065q-64 0 -121 -24q-58 -24 -99 -64q-41 -38 -68 -95q-25 -53 -25 -113q0 -73 21 -128q18 -52 55 -92q35 -38 81 -59q45 -20 97 -25q35 -5 57 -1q9 2 23 4t18 3l-283 -471h193l127 220l51 89l49 86l42 73q19 33 30 54q26 50 38 84q14 38 21 70q6 26 8 61q2 29 0 58
q-5 60 -30 109q-25 48 -68 85q-45 37 -98 56q-57 20 -119 20zM379 596q-33 0 -60 13q-29 12 -48 34q-21 23 -33 52q-12 30 -12 65t12 65q12 29 33 50q19 21 48 33q30 11 60 11q81 0 124 -42q42 -43 42 -114q0 -35 -12 -65q-13 -31 -35 -53t-53 -36q-30 -13 -66 -13z" />
    <glyph glyph-name="colon" unicode=":" horiz-adv-x="569" 
d="M190 618h203v197h-203v-197zM192 0h203v197h-203v-197z" />
    <glyph glyph-name="semicolon" unicode=";" horiz-adv-x="569" 
d="M190 618h203v197h-203v-197zM223 190l-76 -472h67l140 332v140h-131z" />
    <glyph glyph-name="less" unicode="&#x3c;" horiz-adv-x="957" 
d="M52 588v-109l817 -405v172l-617 284l617 287v176z" />
    <glyph glyph-name="equal" unicode="=" horiz-adv-x="930" 
d="M820 771h-698v-137h698v137zM820 411h-698v-137h698v137z" />
    <glyph glyph-name="greater" unicode="&#x3e;" horiz-adv-x="979" 
d="M896 479v109l-817 405v-176l617 -287l-617 -284v-172z" />
    <glyph glyph-name="question" unicode="?" horiz-adv-x="848" 
d="M430 1280q-112 0 -186 -33t-115 -89q-41 -54 -55 -130q-14 -77 -7 -155h167q-4 67 3 118q8 52 30 86t62 52q42 17 100 17q50 0 83 -14q32 -14 50 -38q18 -26 24 -58q6 -33 6 -70q0 -52 -19 -93q-20 -45 -47 -83q-21 -30 -60 -80q-32 -40 -57 -87q-25 -46 -39 -103
q-14 -58 -5 -130h128q2 75 21 127q19 51 50 93t65 76q31 31 64 74q31 40 50 87t19 116q0 61 -17 120q-16 57 -56 101q-40 45 -102 70q-66 26 -157 26zM328 0h203v197h-203v-197z" />
    <glyph glyph-name="at" unicode="@" horiz-adv-x="1450" 
d="M862 -203l-4 90q-200 -27 -335 -1q-134 26 -214 95q-80 70 -113 175q-34 105 -34 239q0 133 48 243q48 109 129 187q80 77 188 121q105 43 223 43q122 0 220 -27q94 -27 163 -86q67 -59 103 -153q34 -93 36 -225q0 -69 -17 -145q-16 -72 -47 -132q-32 -61 -73 -99
q-42 -39 -95 -44q-34 -4 -61 5q-26 8 -41 29q-16 22 -17 56q-3 33 11 84q1 3 3 11.5t4.5 18t5.5 18.5l18 68l22 81q7 28 23 84l59 212h-113q-2 -11 -6 -24q-1 -3 -3 -11.5t-4 -14.5q-5 -17 -9 -36q-14 58 -47 85q-34 28 -106 33q-61 5 -114 -9q-54 -14 -93 -47
q-42 -34 -73 -91q-33 -61 -53 -143q-27 -110 -21 -185q6 -76 36 -123q30 -48 80 -69q48 -20 112 -22q60 -2 101 16q41 16 73 54q2 -44 17 -76q15 -35 44 -58q29 -25 71 -35q44 -11 98 -5q70 8 131 51q62 44 108 112q45 66 74 159q27 90 27 192q-1 135 -43 247
q-41 108 -123 185q-81 76 -201 117q-120 40 -280 40q-114 0 -208 -25q-96 -25 -176 -72q-77 -45 -140 -111t-102 -140q-42 -76 -63 -164q-22 -87 -22 -180q0 -94 22 -179q23 -89 67 -163q45 -75 113 -134t160 -95q93 -37 206 -44q114 -9 255 17zM877 442q-18 -66 -38 -122
q-18 -51 -39 -85q-23 -34 -51 -50q-30 -18 -71 -19q-44 -2 -76 16q-33 18 -51 54q-19 36 -21 90q-3 54 15 125q15 63 40 114q24 50 50 76q29 29 60 42q30 13 67 13q88 0 119 -61t-4 -193z" />
    <glyph glyph-name="A" unicode="A" horiz-adv-x="1124" 
d="M475 1278l-504 -1278h187l141 387h530l140 -387h188l-504 1278h-178zM346 518l217 608l219 -608h-436z" />
    <glyph glyph-name="B" unicode="B" horiz-adv-x="1151" 
d="M772 696q62 12 105 36q43 23 68 60q27 38 37 85q11 50 11 110q0 63 -23 118q-25 54 -67 92q-44 38 -104 60q-61 21 -135 21h-506v-1278h489q193 0 291 86t98 258q0 71 -14 133q-14 60 -45 105q-32 46 -81 74q-54 30 -124 40zM322 754v409h303q55 0 99 -14q41 -15 67 -41
q25 -27 39 -63q12 -37 12 -80q0 -44 -14 -83q-15 -39 -43 -67t-71 -45q-42 -16 -98 -16h-294zM653 123h-331v506h323q55 0 98 -15q47 -18 76 -47q30 -30 49 -80q17 -49 17 -112q0 -67 -16 -112q-16 -46 -47 -78q-31 -33 -73 -47q-43 -15 -96 -15z" />
    <glyph glyph-name="C" unicode="C" horiz-adv-x="1178" 
d="M606 109q-150 0 -226 93q-78 93 -85 263q-1 41 -3 87q-1 31 -1 93q0 61 1 91q2 48 3 83q11 168 87 258q75 89 224 89q130 0 210 -58t106 -195h168q-14 102 -54 172q-39 68 -103 115q-64 44 -146 65q-85 20 -181 20q-229 0 -350 -127q-122 -128 -129 -378q-3 -74 -3 -149
t3 -135q5 -131 37 -224q34 -97 94 -157q61 -62 147 -92q87 -30 201 -30q106 0 188 22q84 21 146 70q62 48 102 126q39 78 54 190h-168q-20 -151 -102 -222q-82 -70 -220 -70z" />
    <glyph glyph-name="D" unicode="D" horiz-adv-x="1167" 
d="M567 1278h-413v-1278h413q156 0 258 47q100 47 155 132q56 86 75 202q20 120 20 258q0 87 -8 177q-9 84 -30 154q-21 71 -57 128q-37 56 -93 97q-55 39 -136 62q-80 21 -184 21zM543 131h-219v1022h219q85 0 147 -18q62 -20 101 -52q41 -35 63 -81q24 -50 34 -104
q11 -60 14 -122q3 -66 3 -137t-3 -136q-3 -63 -14 -122q-10 -53 -34 -103q-22 -46 -63 -78q-40 -33 -101 -51q-62 -18 -147 -18z" />
    <glyph glyph-name="E" unicode="E" horiz-adv-x="1022" 
d="M154 0h774v133h-604v485h522v132h-522v395h604v133h-774v-1278z" />
    <glyph glyph-name="F" unicode="F" horiz-adv-x="963" 
d="M139 0h170v618h496v132h-496v395h596l2 133h-768v-1278z" />
    <glyph glyph-name="G" unicode="G" horiz-adv-x="1176" 
d="M659 668v-127h246v-76q0 -80 -18 -146q-20 -68 -58 -114q-39 -48 -98 -74q-61 -26 -141 -26q-76 0 -130 25t-92 72q-38 46 -57 114q-22 68 -26 149q-2 43 -3 88q-2 64 -2 97t2 95q2 47 3 84q8 100 28 165q20 67 57 107q36 40 91 58q56 17 129 17q136 0 212 -63
q77 -65 87 -200h174q-12 103 -48 173q-38 72 -97 116q-61 44 -143 65q-85 20 -187 20q-117 0 -202 -28q-88 -29 -146 -90q-61 -63 -92 -155q-33 -98 -37 -226q-2 -36 -2 -69q-2 -42 0 -86q0 -58 1 -84q0 -47 1 -62q14 -251 130 -372q117 -122 347 -122q233 0 356 129
t123 378v168h-408z" />
    <glyph glyph-name="H" unicode="H" horiz-adv-x="1243" 
d="M913 709h-596v569h-170v-1278h170v571h596v-571h170v1278h-170v-569z" />
    <glyph glyph-name="I" unicode="I" horiz-adv-x="508" 
d="M174 0h168v1278h-168v-1278z" />
    <glyph glyph-name="J" unicode="J" horiz-adv-x="592" 
d="M276 1278v-991q0 -53 -7 -81q-7 -29 -21 -46q-16 -18 -38 -22q-25 -5 -54 -5h-193v-133h266q55 0 95 15q39 13 68 48q28 34 41 88q13 53 13 136v991h-170z" />
    <glyph glyph-name="K" unicode="K" horiz-adv-x="1057" 
d="M1015 1278h-164l-524 -604l524 -674h203l-547 698zM154 1278v-1278h170v1278h-170z" />
    <glyph glyph-name="L" unicode="L" horiz-adv-x="881" 
d="M324 1278h-170v-1278h727v133h-557v1145z" />
    <glyph glyph-name="M" unicode="M" horiz-adv-x="1421" 
d="M713 472l-312 806h-247v-1278h161v1116l291 -801h213l291 801v-1116h162v1278h-246z" />
    <glyph glyph-name="N" unicode="N" horiz-adv-x="1241" 
d="M930 208l-537 1070h-239v-1278h167v1093l543 -1093h232v1278h-166v-1070z" />
    <glyph glyph-name="O" unicode="O" horiz-adv-x="1188" 
d="M598 1287q-229 0 -352 -128t-131 -379q-2 -98 -2 -149q0 -55 2 -135q4 -129 39 -224q34 -97 94 -157q61 -62 147 -92q87 -30 201 -30q227 0 349 122q121 121 132 381q2 80 2 135q0 51 -2 149q-8 252 -129 379q-122 128 -350 128zM907 465q-6 -169 -83 -263
q-76 -93 -228 -93t-228 93q-77 94 -83 263q-1 41 -3 87q-1 31 -1 93q0 61 1 91q2 48 3 83q11 168 85 259q75 91 226 91q74 0 131 -23q56 -24 95 -68q38 -46 59 -110q22 -66 26 -149q1 -35 3 -83q1 -30 1 -91q0 -62 -1 -93q-2 -46 -3 -87z" />
    <glyph glyph-name="P" unicode="P" horiz-adv-x="1051" 
d="M524 1278h-370v-1278h176v496h194q92 0 171 19q81 20 141 64q59 43 96 118q35 75 35 184t-30 185t-87 122q-57 47 -139 69q-83 21 -187 21zM506 621h-176v532h176q46 0 99 -6q54 -6 98 -31t75 -79q29 -55 29 -148q0 -62 -14 -107q-13 -43 -37 -73q-25 -31 -54 -47
q-32 -18 -64 -27q-37 -10 -68 -11q-34 -3 -64 -3z" />
    <glyph glyph-name="Q" unicode="Q" horiz-adv-x="1231" 
d="M608 1288q-229 0 -351 -128q-123 -130 -130 -380q-3 -74 -3 -149t3 -135q8 -173 63 -284q56 -113 158 -169q50 -31 98 -48l80 -30q34 -13 75 -27l81 -30q47 -18 83 -29l79 -28l178 -62l43 131q-18 5 -56 17q-17 5 -56 18l-64 18q-22 7 -46 11l-54 9q-9 1 -27 3.5t-28 4.5
q-41 4 -52 5q98 9 170 43q73 33 124 93q52 61 80 148q28 85 34 206q2 80 2 135q0 51 -2 149q-11 252 -131 380q-122 128 -351 128zM920 465q-7 -168 -85 -264q-78 -95 -227 -95q-150 0 -227 95q-78 95 -84 264q-1 41 -3 87q-2 62 -2 93q0 61 1 91q2 57 4 83q9 168 85 259
t226 91q151 0 226 -91q75 -92 86 -259q1 -35 3 -83q1 -30 1 -91q0 -62 -1 -93q-1 -46 -3 -87z" />
    <glyph glyph-name="R" unicode="R" horiz-adv-x="1065" 
d="M950 887q0 108 -35 184q-34 74 -95 121q-60 46 -140 66q-82 20 -170 20h-356v-1278h170v504h108l301 -504h194l-327 508q75 8 138 31q64 22 111 68t74 114t27 166zM502 616h-178v541h178q19 0 65 -2q31 -1 66 -11q32 -9 61 -26q25 -15 50 -46q21 -27 35 -74
q12 -45 12 -109q0 -94 -26 -149q-27 -53 -69 -82q-40 -27 -93 -35q-49 -7 -101 -7z" />
    <glyph glyph-name="S" unicode="S" horiz-adv-x="973" 
d="M481 1296q-87 0 -157 -22q-71 -22 -124 -63q-55 -42 -82 -95q-30 -56 -30 -123q0 -63 22 -113q23 -53 67 -95q46 -46 114 -86q64 -40 162 -85q55 -24 106 -54t83 -61q34 -35 54 -75q19 -41 19 -96q0 -105 -61 -160q-62 -57 -177 -57q-40 0 -84 14q-42 13 -76 44
q-33 29 -55 77q-22 45 -22 114h-170q-3 -102 31 -172q35 -73 92 -116q56 -46 132 -67q73 -21 152 -21q85 0 157 22q76 23 130 64q56 41 89 102q32 61 32 137q0 84 -28 147q-29 65 -76 113q-50 51 -112 89q-67 39 -137 71q-87 41 -132 68q-56 32 -87 61q-34 31 -47 63
q-14 33 -14 72q0 41 18 75q17 32 50 59q32 26 73 39q42 14 88 14q61 0 108 -21q45 -21 75 -57t45 -85q14 -51 14 -104h164q2 89 -24 160q-26 73 -76 121q-52 49 -128 76q-78 26 -178 26z" />
    <glyph glyph-name="T" unicode="T" horiz-adv-x="889" 
d="M18 1145h342l2 -1145h164v1145h344v133h-852v-133z" />
    <glyph glyph-name="U" unicode="U" horiz-adv-x="1167" 
d="M862 1278v-813q0 -77 -16 -137q-17 -66 -50 -107q-35 -44 -87 -68q-51 -25 -127 -25t-127 25q-52 24 -87 68q-34 43 -51 107q-16 60 -16 137v813h-174v-795q0 -247 114 -369q114 -121 341 -121q229 0 343 121q113 122 113 369v795h-176z" />
    <glyph glyph-name="V" unicode="V" horiz-adv-x="975" 
d="M483 188l-313 1090h-188l421 -1278h162l420 1278h-186z" />
    <glyph glyph-name="W" unicode="W" horiz-adv-x="1563" 
d="M1151 180l-268 1098h-203l-266 -1098l-267 1098h-178l357 -1278h178l278 1100l279 -1100h178l356 1278h-178z" />
    <glyph glyph-name="X" unicode="X" horiz-adv-x="924" 
d="M737 1278l-274 -510l-275 510h-186l363 -639l-363 -639h186l275 510l274 -510h187l-361 639l361 639h-187z" />
    <glyph glyph-name="Y" unicode="Y" horiz-adv-x="846" 
d="M422 696l-266 582h-187l373 -729v-549h162v549l373 729h-183z" />
    <glyph glyph-name="Z" unicode="Z" horiz-adv-x="956" 
d="M889 1278h-803l-1 -133h558l-582 -1145h803v133h-559z" />
    <glyph glyph-name="bracketleft" unicode="[" horiz-adv-x="569" 
d="M502 1194v98h-275v-1552h275v100h-144v1354h144z" />
    <glyph glyph-name="backslash" unicode="\" horiz-adv-x="548" 
d="M455 -261h91l-454 1553h-90z" />
    <glyph glyph-name="bracketright" unicode="]" horiz-adv-x="569" 
d="M53 1194h144v-1354h-144v-100h275v1552h-275v-98z" />
    <glyph glyph-name="asciicircum" unicode="^" horiz-adv-x="720" 
d="M390 1066h-49l-305 -355h132l195 247l207 -247h126z" />
    <glyph glyph-name="underscore" unicode="_" horiz-adv-x="1139" 
d="M1138 145h-1138v-145h1138v145z" />
    <glyph glyph-name="grave" unicode="`" horiz-adv-x="428" 
d="M92 760h70l147 313v131h-137z" />
    <glyph glyph-name="a" unicode="a" horiz-adv-x="956" 
d="M358 -18q106 0 193 41q85 40 139 129v-152h154v545q0 89 -9 163q-11 74 -41 123q-31 51 -88 79q-58 27 -155 27q-20 0 -37 -1q-26 -2 -57 -3q-9 0 -32 -1.5t-37 -2.5q-51 -4 -74 -5q-89 -5 -187 -12l8 -133q33 3 158 13l65 6q11 1 32.5 2.5t31.5 1.5q28 1 58 3q17 1 44 1
q46 0 77 -9t51 -30q20 -22 29 -56t9 -86l-55 -12q-1 0 -31 -6.5t-47 -10.5l-94 -19l-48 -10.5l-53 -11.5q-155 -35 -226 -106q-73 -72 -73 -191q0 -58 17 -109q16 -49 53 -87q35 -38 91 -59t134 -21zM406 444l155 39l129 33v-156q0 -48 -18 -94q-19 -46 -57 -82
q-37 -35 -96 -58q-57 -22 -140 -22q-45 0 -74 13q-31 12 -50 34q-20 23 -29 51t-9 62q0 66 52 112q54 46 137 68z" />
    <glyph glyph-name="b" unicode="b" horiz-adv-x="987" 
d="M555 -8q48 0 90 7q49 8 86 26q42 19 76 51q36 33 61 84q27 53 41 124q15 72 15 171t-15 172t-41 128q-25 52 -61 90q-32 34 -76 58q-40 21 -86 30q-45 9 -90 9q-37 0 -74 -6q-36 -6 -71 -21q-34 -17 -66 -42q-32 -27 -57 -69v474h-154v-1278h154v137q20 -42 50 -69
q30 -29 67 -45q36 -17 75 -24q36 -7 76 -7zM283 459q0 102 19 168q20 69 52 110t76 59q43 18 94 18t96 -15q45 -17 77 -55q32 -40 52 -109q19 -67 19 -176t-19 -173q-20 -66 -52 -103t-77 -49q-43 -13 -96 -13q-49 0 -94 17q-46 17 -76 55q-32 38 -52 104q-19 63 -19 162z
" />
    <glyph glyph-name="c" unicode="c" horiz-adv-x="901" 
d="M840 305h-174q-3 -32 -14 -65q-12 -31 -35 -57q-21 -24 -58 -40q-36 -15 -86 -15q-121 0 -179 85t-58 266q0 91 15 156q13 63 44 106q29 42 74 61q42 19 104 19q47 0 81 -15q35 -17 57 -40q23 -26 36 -55q12 -30 15 -58h176q-12 77 -39 133q-27 54 -71 89q-45 35 -108 51
q-61 16 -147 16q-93 0 -166 -24q-76 -25 -127 -79q-52 -55 -81 -144q-29 -92 -29 -220q0 -129 29 -222q28 -91 81 -148q52 -58 127 -84t166 -26q169 0 257 81q87 78 110 229z" />
    <glyph glyph-name="d" unicode="d" horiz-adv-x="1006" 
d="M713 137v-137h153v1278h-153v-467q-26 43 -57 68q-32 25 -66 39q-38 15 -72 19q-42 5 -76 5q-68 0 -132 -21q-66 -21 -118 -76q-53 -56 -84 -149q-32 -96 -32 -241q0 -99 15 -171q14 -71 41 -124q26 -52 60 -83q34 -32 76 -51q37 -18 85 -26q41 -7 89 -7q40 0 78 7
q39 7 77 24q37 17 67 44q29 28 49 69zM473 121q-52 0 -94 13q-45 12 -77 49t-52 103q-19 64 -19 173q0 108 19 177q20 71 52 111q34 42 77 58q42 16 94 16t96 -19q45 -20 77 -62q32 -43 52 -112q19 -67 19 -169q0 -99 -19 -162q-20 -66 -52 -104t-77 -55q-46 -17 -96 -17z
" />
    <glyph glyph-name="e" unicode="e" horiz-adv-x="936" 
d="M848 287h-168q-2 -33 -15 -63q-14 -33 -38 -54q-27 -25 -62 -38q-39 -14 -88 -14q-111 0 -172 72q-61 70 -72 225h627q0 143 -29 245q-28 99 -80 163q-51 62 -121 90q-69 28 -153 28q-91 0 -166 -26q-74 -27 -127 -84q-52 -59 -81 -150q-29 -93 -29 -222q0 -130 29 -220
q29 -89 81 -143q52 -55 127 -79q73 -24 166 -24q169 0 258 73q90 72 113 221zM477 817q48 0 84 -13q37 -13 66 -47q27 -32 46 -89q17 -58 23 -141h-463q7 153 70 222q62 68 174 68z" />
    <glyph glyph-name="f" unicode="f" horiz-adv-x="588" 
d="M170 802v-802h154v802h196v127h-198v107q0 38 9 62q9 22 24 36q14 13 33 17q17 4 40 4h143v123h-192q-39 0 -75 -13q-37 -13 -67 -45q-29 -31 -48 -85q-19 -53 -19 -136v-70h-131v-127h131z" />
    <glyph glyph-name="g" unicode="g" horiz-adv-x="979" 
d="M532 -172q-35 -3 -86 -1q-61 2 -89 5q-64 6 -97 10l-8 -121q50 -3 94 -6q40 -1 95 -3q35 -1 108 1q87 3 145 21t96 60q35 40 52 111q16 67 16 175v848h-149v-135q-19 39 -51 68t-68 45q-42 19 -77 25q-38 7 -77 7q-48 0 -89 -7q-43 -7 -84 -27q-40 -19 -74 -52
q-35 -33 -60 -85q-26 -53 -39 -125q-14 -76 -14 -171q0 -149 31 -239q32 -92 82 -144q48 -51 115 -71q63 -19 132 -19q34 0 76 8q38 8 74 24q34 15 69 46q34 31 58 69l-2 -149q-1 -43 -13 -78q-10 -30 -33 -50q-22 -19 -55 -28t-78 -12zM475 123q-50 0 -95 14q-45 13 -78 51
q-32 37 -52 105q-19 66 -19 174q0 98 19 164q20 68 52 108t78 58q44 18 95 18t94 -22t77 -67q32 -42 52 -109q19 -63 19 -150q0 -102 -19 -166q-20 -67 -52 -105q-32 -39 -77 -56t-94 -17z" />
    <glyph glyph-name="h" unicode="h" horiz-adv-x="1028" 
d="M535 811q49 0 90 -16q42 -17 72 -47q31 -31 49 -78q18 -46 18 -105v-565h154v551q0 78 -20 150q-21 71 -63 123q-41 51 -107 82q-64 30 -153 30t-160 -27q-71 -28 -118 -78v447h-156v-1278h156v565q0 60 19 105q20 47 52 78q29 29 76 47q42 16 91 16z" />
    <glyph glyph-name="i" unicode="i" horiz-adv-x="451" 
d="M143 1120h162v158h-162v-158zM143 0h162v928h-162v-928z" />
    <glyph glyph-name="j" unicode="j" horiz-adv-x="457" 
d="M311 1120v158h-153v-158h153zM311 -10v938h-153v-942q0 -59 -15 -95t-40 -51t-58 -10q-32 4 -70 27l-34 -103q72 -32 140 -43q66 -10 118 14q50 22 82 87q30 63 30 178z" />
    <glyph glyph-name="k" unicode="k" horiz-adv-x="848" 
d="M127 1278v-1278h154v481v797h-154zM438 492l391 436h-155l-391 -447l391 -481h180z" />
    <glyph glyph-name="l" unicode="l" horiz-adv-x="475" 
d="M342 0h115v133h-74q-21 0 -36 4q-17 3 -27 15q-11 11 -17 34q-6 22 -6 60v1032h-152v-1032q0 -79 17 -130q16 -49 44 -74q30 -27 63 -34q37 -8 73 -8z" />
    <glyph glyph-name="m" unicode="m" horiz-adv-x="1569" 
d="M1126 936q-113 0 -186 -46q-75 -47 -113 -130q-38 81 -106 128q-71 48 -178 48q-89 0 -154 -30q-64 -31 -104 -85v107h-154v-928h154v565q0 57 17 105q16 46 47 78q29 30 70 47q39 16 85 16t84 -16q39 -17 66 -47t44 -78q15 -46 15 -105v-565h155v565q0 59 18 105
q16 46 47 78q27 30 69 47q38 16 83 16q46 0 84 -16q40 -17 67 -47t44 -78q16 -45 16 -105v-565h154v551q0 81 -19 150q-20 73 -59 123q-40 52 -101 82t-145 30z" />
    <glyph glyph-name="n" unicode="n" horiz-adv-x="1051" 
d="M764 0h154v551q0 78 -20 150q-21 71 -63 123t-106 82q-65 30 -153 30q-96 0 -167 -30q-70 -30 -112 -87v109h-155v-928h155v565q0 57 20 105q20 47 52 78q30 30 75 47q42 16 91 16t90 -16q42 -17 72 -47q31 -31 49 -78q18 -46 18 -105v-565z" />
    <glyph glyph-name="o" unicode="o" horiz-adv-x="944" 
d="M471 -7q172 0 267 89q93 87 104 278q2 58 2 100q0 37 -2 109q-6 181 -102 276q-98 95 -269 95q-172 0 -266 -94q-96 -94 -103 -277q-2 -72 -2 -109q0 -42 2 -100q8 -188 104 -277q94 -90 265 -90zM260 578q7 115 59 177q50 62 152 62q101 0 154 -62q51 -61 57 -177
q3 -51 3 -108q0 -58 -3 -114q-4 -114 -57 -179q-52 -64 -154 -64t-154 64q-53 65 -57 179q-2 74 -2 114q-1 51 2 108z" />
    <glyph glyph-name="p" unicode="p" horiz-adv-x="1028" 
d="M930 474q0 98 -15 170q-15 70 -41 122q-25 50 -61 83q-35 32 -76 50q-38 17 -86 25q-45 6 -90 6q-40 0 -76 -7q-39 -7 -75 -24q-35 -16 -67 -44q-30 -27 -50 -69v142h-146v-1188h146v394q25 -42 57 -69q30 -26 66 -43q37 -17 71 -23q35 -7 74 -7q65 0 134 20
q65 19 118 74q52 52 85 147q32 96 32 241zM295 468q0 95 20 161q20 65 52 102q33 37 77 54q42 16 93 16q46 0 92 -11q42 -12 76 -47q31 -36 51 -101q18 -66 18 -174q0 -106 -18 -174q-20 -68 -51 -105q-34 -39 -76 -52q-45 -14 -92 -14q-48 0 -93 17t-77 56q-32 38 -52 106
t-20 166z" />
    <glyph glyph-name="q" unicode="q" horiz-adv-x="1007" 
d="M721 135v-395h149v1188h-149v-142q-21 43 -49 70q-31 28 -67 46t-75 27q-43 8 -77 8q-48 0 -90 -7q-47 -8 -85 -26q-44 -21 -76 -52q-36 -35 -61 -84q-27 -56 -40 -124q-15 -72 -15 -170q0 -145 32 -241q32 -95 84 -147q52 -54 117 -73q68 -20 134 -20q39 0 74 7
q36 6 72 23q34 16 65 43q32 27 57 69zM479 124q-47 0 -92 14q-43 14 -75 51q-33 37 -51 105q-19 66 -19 174q0 109 19 175q18 65 51 103q31 35 75 49q42 13 92 13q48 0 93 -17q43 -16 75 -56q31 -41 51 -105q19 -63 19 -162q0 -102 -19 -166q-20 -66 -51 -105
q-30 -39 -75 -56t-93 -17z" />
    <glyph glyph-name="r" unicode="r" horiz-adv-x="626" 
d="M532 928q-44 -2 -81 -21q-42 -22 -67 -47q-30 -29 -52 -62q-21 -33 -34 -69v199h-162v-928h162v496q2 56 15 105q13 47 43 87q28 37 73 60t105 26q9 1 31 1q21 0 30 -1q5 0 15.5 -0.5t15.5 -1.5l6 150q-4 0 -13.5 1.5l-15.5 2.5q-12 1 -32 3q-13 1 -39 -1z" />
    <glyph glyph-name="s" unicode="s" horiz-adv-x="786" 
d="M374 108q-64 0 -102 39q-39 40 -43 105h-157q10 -124 91 -192q80 -68 214 -68q73 0 133 16q63 15 105 46q44 30 69 76q25 44 25 106q0 60 -21 102q-20 40 -56 73q-34 31 -80 54l-29 14.5l-35 17l-31 14.5q-44 20 -92 45q-39 20 -67 42q-28 21 -42 44t-14 50t9 54
q10 27 28 47q18 19 47 33q27 13 67 13q34 0 67 -14q32 -16 53 -37t35 -51q13 -27 13 -55h144q1 68 -23 119q-26 51 -68 81q-44 32 -101 47t-120 15t-117 -16q-57 -17 -97 -45q-41 -30 -65 -71q-24 -40 -24 -91q0 -65 22 -108q22 -45 58 -77q34 -33 86 -61l106 -57
q71 -37 85 -43q36 -18 60 -36q24 -21 35 -44q11 -27 11 -64q0 -40 -14 -65q-13 -23 -38 -37q-23 -12 -57 -17q-29 -4 -70 -4z" />
    <glyph glyph-name="t" unicode="t" horiz-adv-x="592" 
d="M393 0h127v131h-84q-22 0 -37 4q-17 3 -27 15q-12 10 -18 34q-6 22 -6 60v557h158v127h-158v235h-158v-235h-139v-127h139v-555q0 -80 18 -130q16 -47 46 -74t65 -34q38 -8 74 -8z" />
    <glyph glyph-name="u" unicode="u" horiz-adv-x="1028" 
d="M735 0h164v928h-164v-578q0 -60 -18 -106q-18 -47 -49 -78q-32 -32 -72 -48q-41 -16 -90 -16t-88 16q-41 17 -71 48q-31 32 -47 78q-17 48 -17 106v578h-162v-566q0 -78 21 -146q19 -67 62 -117q42 -49 107 -78q66 -29 154 -29q192 0 270 109v-101z" />
    <glyph glyph-name="v" unicode="v" horiz-adv-x="782" 
d="M472 0l322 928h-183l-221 -747l-223 747h-182l323 -928h164z" />
    <glyph glyph-name="w" unicode="w" horiz-adv-x="1280" 
d="M1010 0l282 928h-178l-186 -722l-185 722h-204l-185 -722l-186 722h-178l282 -928h164l205 761l205 -761h164z" />
    <glyph glyph-name="x" unicode="x" horiz-adv-x="739" 
d="M170 0l195 400l192 -400h178l-274 489l274 439h-178l-192 -351l-195 351h-176l272 -439l-272 -489h176z" />
    <glyph glyph-name="y" unicode="y" horiz-adv-x="797" 
d="M250 -260h158l378 1188h-153l-194 -620l-267 620h-176l375 -826z" />
    <glyph glyph-name="z" unicode="z" horiz-adv-x="670" 
d="M635 0v127h-384l408 801h-616v-127h384l-409 -801h617z" />
    <glyph glyph-name="braceleft" unicode="{" horiz-adv-x="651" 
d="M418 721v215q0 76 6 139q4 61 27 108q21 45 65 72q45 27 121 31v45q-81 12 -144 -1q-64 -13 -109 -57q-46 -44 -70 -123q-25 -78 -25 -198v-250q2 -38 -9 -68q-12 -28 -35 -46q-25 -21 -77 -21v-69q52 0 77 -21q24 -19 35 -47q11 -30 9 -68v-249q0 -121 25 -197
q24 -80 70 -123q44 -45 109 -58q63 -13 144 -1v45q-78 5 -121 31q-45 28 -65 73q-23 45 -27 108q-6 61 -6 138v215q0 26 -8 58q-7 29 -26 57t-48 47q-28 18 -74 26q45 8 75 27q29 19 48 47t26 57q7 28 7 58z" />
    <glyph glyph-name="bar" unicode="|" horiz-adv-x="532" 
d="M305 -261v1552h-82v-1552h82z" />
    <glyph glyph-name="braceright" unicode="}" horiz-adv-x="618" 
d="M221 936v-215q0 -26 8 -58q8 -31 25 -57q19 -28 48 -47q30 -19 75 -27q-46 -8 -74 -26q-29 -19 -48 -47t-26 -57q-8 -32 -8 -58v-215q0 -70 -5 -138q-6 -63 -27 -108q-22 -46 -66 -73q-43 -26 -121 -31v-45q81 -12 144 1q64 13 110 58q44 43 70 123q24 78 24 197v249
q-2 38 9 68q4 11 14 25q7 11 21 22q14 10 32 15q20 6 45 6v69q-51 0 -77 21q-23 18 -35 46q-11 30 -9 68v250q0 118 -24 198q-26 79 -70 123q-47 44 -110 57t-144 1v-45q76 -4 121 -31q43 -27 66 -72q21 -47 27 -108q5 -70 5 -139z" />
    <glyph glyph-name="asciitilde" unicode="~" horiz-adv-x="553" 
d="M25 575v-98l24 28q10 14 29 31q18 15 38 24q22 9 54 9q39 0 64 -14q19 -12 44 -31q24 -20 42 -31q23 -14 59 -14q28 0 49 8q19 7 35 20t26 27q10 15 23 29v99l-24 -27q-18 -18 -28 -26q-16 -11 -37 -19q-22 -8 -50 -8q-25 0 -44 13l-42 27q-18 12 -50 28q-28 12 -67 12
q-28 0 -50 -8q-21 -7 -38 -21q-18 -15 -30 -28z" />
    <glyph glyph-name="[namenotfound]" unicode="&#xa0;" horiz-adv-x="533" 
 />
    <glyph glyph-name="exclamdown" unicode="&#xa1;" horiz-adv-x="465" 
d="M143 -217h191l-4 468l-30 409h-123l-38 -409zM136 864h203v197h-203v-197z" />
    <glyph glyph-name="cent" unicode="&#xa2;" horiz-adv-x="868" 
d="M780 305h-162q-1 -28 -11 -58q-9 -29 -26 -52q-17 -25 -42 -41q-26 -17 -62 -23v686q31 -6 58 -23q24 -16 42 -40q15 -20 25 -49q9 -27 12 -52h164q-10 73 -33 126q-22 52 -59 87q-39 36 -89 53q-51 17 -120 22v149h-61v-149q-79 -3 -145 -29q-65 -26 -110 -81
q-45 -54 -71 -142q-25 -87 -25 -214q0 -128 25 -215q26 -92 71 -147q44 -57 110 -86q63 -28 145 -31v-123h61v124q137 9 211 89q73 80 92 219zM219 479q0 86 12 149t37 104q24 41 61 63q36 20 87 25v-691q-101 8 -149 93q-48 86 -48 257z" />
    <glyph glyph-name="sterling" unicode="&#xa3;" horiz-adv-x="645" 
d="M172 124h-75v-125h422v125h-203v678h182v127h-184v107q0 36 8 62q7 21 22 36q14 13 31 17q16 4 37 4h134v123h-179q-37 0 -70 -13q-35 -14 -62 -45q-28 -31 -45 -85q-18 -54 -18 -136v-70h-122v-127h122v-678z" />
    <glyph glyph-name="currency" unicode="&#xa4;" horiz-adv-x="938" 
d="M668 373l102 -103l61 62l-104 104q32 44 48 94q16 49 16 104q0 52 -15 104q-17 54 -47 96l107 106l-60 64l-104 -107q-43 35 -98 55q-56 19 -109 20q-55 1 -109 -15q-55 -17 -100 -50l-111 113l-63 -62l113 -112q-38 -47 -54 -100q-18 -55 -17 -110q0 -55 20 -110
q20 -54 55 -100l-107 -109l60 -59l110 109q46 -31 99 -48t107 -15q51 0 105 17q50 16 95 52zM295 470q-33 36 -49 78q-17 45 -17 90q0 47 16 89q17 44 50 77q35 35 77 51q42 17 87 18q46 0 88 -16q42 -17 76 -49q34 -34 51 -79q16 -44 16 -91q-2 -48 -18 -91
q-18 -44 -51 -79q-33 -32 -77 -49q-42 -16 -86 -16q-43 0 -86 17q-41 16 -77 50z" />
    <glyph glyph-name="yen" unicode="&#xa5;" horiz-adv-x="852" 
d="M342 523h-217v-109h217v-124h-217v-109h217v-181h162v181h219v109h-219v124h219v109h-219v26l373 729h-183l-272 -612l-266 612h-187l373 -729v-26z" />
    <glyph glyph-name="brokenbar" unicode="&#xa6;" horiz-adv-x="301" 
d="M193 690v587h-82v-587h82zM193 -261v587h-82v-587h82z" />
    <glyph glyph-name="section" unicode="&#xa7;" horiz-adv-x="745" 
d="M395 -151q-53 0 -88 20t-55 52t-27 71q-8 42 -8 78h-149q-4 -73 18 -133q22 -58 67 -103q44 -44 105 -68q62 -24 133 -24q60 0 111 16q52 15 93 45q40 30 64 73t25 98q1 34 -13 74q-13 35 -36 70q-23 33 -51 63q-20 21 -58 55q68 21 109 62q40 40 55 89q15 48 7 101
q-9 49 -38 94q-32 48 -80 93q-57 52 -99 85l-103 78q-57 41 -93 74q-42 36 -68 71q-27 35 -29 70q-2 31 11 55q12 25 37 44q27 19 61 29q32 9 81 11q61 1 100 -19t58 -50q20 -31 26 -65q6 -33 4 -64h125q1 70 -22 126q-23 53 -65 89q-44 36 -101 54q-60 17 -125 17
q-62 0 -122 -11q-57 -12 -101 -39q-41 -26 -68 -71q-25 -43 -23 -112q0 -33 14 -63q16 -33 35 -55q27 -31 50 -50l55 -51q-33 -22 -59 -48q-28 -27 -46 -61q-18 -32 -26 -79q-8 -44 0 -99q10 -58 49 -113q38 -53 88 -100q55 -51 104 -90q51 -40 102 -86q47 -44 76 -86
q30 -44 30 -90q0 -21 -7 -42q-8 -25 -23 -41q-16 -18 -44 -31q-26 -13 -66 -13zM508 560q23 -26 38 -61q14 -35 12 -71q-1 -35 -26 -69t-80 -55l-27 24q-25 21 -43 38q-48 45 -50 47q-41 41 -49 50l-41 47q-18 22 -25 38q-9 23 -10 46q-3 27 4 54q6 26 23 55q16 27 49 47
l50 -33l53 -40q21 -17 58 -51q26 -25 64 -66z" />
    <glyph glyph-name="dieresis" unicode="&#xa8;" horiz-adv-x="557" 
d="M70 1263q0 -32 23 -55t54 -23q32 0 55 23t23 55t-23 55q-22 22 -55 22q-32 0 -54 -22q-23 -23 -23 -55zM340 1263q0 -32 23 -55t55 -23t55 23t23 55t-23 55q-22 22 -55 22t-55 -22q-23 -23 -23 -55z" />
    <glyph glyph-name="copyright" unicode="&#xa9;" horiz-adv-x="1437" 
d="M55 641q0 -152 47 -276q47 -125 133 -209q85 -85 209 -132q123 -47 275 -47q135 0 258 47q120 46 212 132q90 86 143 209q52 122 52 276t-52 276t-143 210q-93 88 -212 134q-120 46 -258 46q-139 0 -259 -46t-211 -134q-89 -86 -142 -210q-52 -122 -52 -276zM174 639
q0 125 38 233t107 183t171 119q100 42 227 42t228 -42q100 -43 170 -119q71 -77 108 -183q37 -105 37 -233q0 -127 -36 -232q-38 -107 -106 -181q-69 -76 -169 -118q-101 -42 -227 -42q-128 0 -228 42q-104 43 -173 118q-72 77 -109 181q-38 106 -38 232zM731 324
q-57 0 -94 15q-38 15 -60 46q-23 30 -33 76q-11 49 -14 108q-2 42 -2 45q-1 9 -1 23q0 13 1 21q0 2 2 40q4 60 15 107q11 45 33 75q24 30 59 44q39 14 94 14q47 0 78 -9q31 -11 54 -30q21 -19 33 -50q11 -29 19 -73h101q-4 51 -24 95q-20 42 -57 74q-39 31 -88 47
q-51 16 -116 16q-139 0 -219 -77q-82 -77 -86 -222q-3 -89 0 -156q6 -149 87 -224q79 -75 218 -75q137 0 210 69q73 67 79 193h-98q-4 -46 -16 -87q-10 -36 -32 -59q-24 -25 -56 -35q-36 -11 -87 -11z" />
    <glyph glyph-name="ordfeminine" unicode="&#xaa;" horiz-adv-x="645" 
d="M255 675q65 0 119 26t86 79v-94h96v338q0 56 -6 101q-6 46 -25 76q-20 32 -55 48q-37 17 -96 17h-23q-6 -1 -17.5 -1.5t-17.5 -0.5q-13 -1 -43 -3l-45 -3q-39 -3 -116 -7l5 -83q15 1 48 3.5t50 4.5l80 6q41 3 63 3q55 0 79 -24q23 -25 23 -88q-4 -1 -15.5 -3t-18.5 -4
q-2 0 -20 -4t-29 -6q-30 -7 -58 -12q-10 -3 -30.5 -7.5t-31.5 -6.5q-94 -21 -140 -65q-45 -45 -45 -119q0 -34 11 -67q11 -35 32 -55q23 -22 57 -36q33 -13 83 -13zM284 961l31.5 8.5t36 9t29.5 7.5q33 7 79 20v-97q0 -28 -11 -58q-12 -28 -35 -51q-24 -22 -60 -36
q-37 -14 -86 -14q-56 0 -78 30q-23 29 -23 70q0 40 32 69q31 28 85 42z" />
    <glyph glyph-name="guillemotleft" unicode="&#xab;" horiz-adv-x="651" 
d="M157 1203l-72 -438h63l131 309v129h-122zM397 1203l-71 -438h62l130 309v129h-121z" />
    <glyph glyph-name="logicalnot" unicode="&#xac;" horiz-adv-x="833" 
d="M16 1171h675v-238h105v346h-780v-108z" />
    <glyph glyph-name="Softhyphen" unicode="&#xad;" horiz-adv-x="783" 
d="M688 601h-588v-140h588v140z" />
    <glyph glyph-name="registered" unicode="&#xae;" horiz-adv-x="1446" 
d="M975 782q0 61 -19 100q-20 42 -51 67t-75 37q-46 11 -93 11h-243v-725h100v301h135l135 -301h111l-146 310q30 4 57 21q27 18 46 42q20 27 32 60q11 36 11 77zM737 649h-143v264h96q36 0 57 1q32 0 59 -10q26 -10 47 -37q19 -26 19 -81q0 -54 -18 -82q-17 -27 -41 -40
q-21 -11 -45 -13q-30 -2 -31 -2zM55 641q0 -103 24 -191q22 -86 67 -162t104 -132q58 -57 134 -97q72 -40 159 -61q84 -21 176 -21q135 0 258 47q120 46 212 132q90 86 143 209q52 122 52 276t-52 276t-143 210q-93 88 -212 134q-120 46 -258 46q-139 0 -259 -46t-211 -134
q-89 -86 -142 -210q-52 -122 -52 -276zM174 639q0 125 38 233q38 106 107 181t171 119q100 42 227 42t228 -42q100 -43 170 -119q71 -77 108 -181q37 -105 37 -233t-37 -232q-37 -105 -108 -182q-72 -78 -170 -119q-99 -43 -228 -43q-128 0 -227 43q-100 42 -171 119
q-69 75 -107 182q-38 106 -38 232z" />
    <glyph glyph-name="macron" unicode="&#xaf;" horiz-adv-x="1117" 
d="M1117 1283h-1117v-140h1117v140z" />
    <glyph glyph-name="degree" unicode="&#xb0;" horiz-adv-x="731" 
d="M81 1001q0 -57 23 -111q23 -53 61 -90q38 -38 92 -61t111 -23t111 23q53 23 91 61q40 38 62 90q22 51 22 111t-22 111q-22 50 -62 90q-39 38 -91 60q-51 22 -111 22t-111 -22q-53 -23 -92 -60q-38 -38 -61 -90q-23 -54 -23 -111zM165 1001q0 45 15 84q14 38 41 67
q27 30 63 46t82 16q45 0 83 -16q36 -16 66 -46q26 -26 44 -67q16 -38 16 -84t-16 -82q-17 -39 -44 -66t-66 -44q-38 -16 -83 -16q-46 0 -82 16q-39 17 -63 44q-28 29 -41 66q-15 37 -15 82z" />
    <glyph glyph-name="plusminus" unicode="&#xb1;" horiz-adv-x="559" 
d="M18 606v-94h220v-219h88v219h219v94h-219v203h-88v-203h-220zM25 84v-84h510v84h-510z" />
    <glyph glyph-name="Superscripttwo" unicode="&#xb2;" horiz-adv-x="487" 
d="M416 765h-200q29 40 53 77l49 72l49 74q37 58 45 111q6 52 -12 92q-18 41 -57 63q-41 23 -93 23q-44 0 -80 -12q-37 -14 -61 -38q-25 -25 -39 -63t-9 -88h99q-1 20 2 46q3 24 13 42q9 19 27 29q16 10 46 7q26 -3 42 -16q17 -14 24 -31t5 -41q-3 -24 -16 -44l-51 -82
l-57 -87l-64 -98l-74 -115h359v79z" />
    <glyph glyph-name="Superscriptthree" unicode="&#xb3;" horiz-adv-x="446" 
d="M185 1021v-59q49 -1 84 -29q33 -29 33 -83q0 -28 -7 -45q-8 -20 -19 -30q-13 -13 -27 -17q-15 -6 -30 -6q-24 0 -39 9q-15 8 -25 23q-10 13 -13 33q-3 16 -1 38h-96q-7 -40 5 -73q10 -32 36 -55q25 -23 59 -35q35 -12 73 -12q41 0 72 10q33 10 57 30t38 52q14 33 14 74
q0 55 -31 95t-86 52q56 12 84 48q29 37 29 93q0 40 -13 67q-14 28 -36 44q-26 18 -56 25q-35 8 -72 8q-48 0 -82 -12q-37 -14 -56 -35q-22 -23 -29 -54q-9 -31 -6 -69h98q0 22 4 39q3 17 11 34q8 14 23 23q16 8 38 8q12 0 27 -3q16 -5 27 -14q12 -11 20 -29q8 -21 8 -49
t-11 -47q-11 -17 -29 -29q-18 -10 -38 -15q-12 -3 -38 -5z" />
    <glyph glyph-name="acute" unicode="&#xb4;" horiz-adv-x="549" 
d="M356 1352l-262 -203h113l311 203h-162z" />
    <glyph glyph-name="mu" unicode="&#xb5;" 
d="M121 928l1 -1188h150v350q26 -44 80 -71q52 -27 113 -27q192 0 270 109v-101h164v928h-164v-578q0 -60 -18 -106q-18 -47 -49 -78q-32 -32 -72 -48q-41 -16 -90 -16q-50 0 -89 16q-42 16 -72 48q-31 31 -49 78q-18 46 -18 106v578h-157z" />
    <glyph glyph-name="paragraph" unicode="&#xb6;" horiz-adv-x="915" 
d="M657 1118v-1118h107v1118h123v121h-518q-68 0 -128 -20q-56 -19 -100 -58q-42 -38 -65 -92q-23 -57 -23 -125q0 -69 23 -124q22 -55 65 -93q44 -39 100 -58q60 -20 128 -20h28v-649h92v1118h168z" />
    <glyph glyph-name="periodcentered" unicode="&#xb7;" horiz-adv-x="569" 
d="M184 430h203v197h-203v-197z" />
    <glyph glyph-name="cedilla" unicode="&#xb8;" horiz-adv-x="426" 
d="M147 -334h111q53 0 85 19q32 18 48 46q15 27 17 60q1 29 -10 60q-11 26 -35 47q-23 18 -54 18h-121q-43 0 -58 22t13 62q-27 -9 -42 -32q-17 -22 -18 -48q-1 -25 13 -44q13 -19 47 -19h123q33 0 50 -20t15 -43q-2 -24 -23 -44q-22 -20 -64 -20h-97v-64z" />
    <glyph glyph-name="Superscriptone" unicode="&#xb9;" horiz-adv-x="393" 
d="M88 761v-77h223v77h-60v518h-55q-8 -27 -21 -46q-13 -18 -32 -31q-20 -16 -52 -14v-59h65v-368h-68z" />
    <glyph glyph-name="ordmasculine" unicode="&#xba;" horiz-adv-x="642" 
d="M319 688q108 0 166 55q59 56 65 173q1 19 1 63q0 45 -1 68q-5 115 -64 173t-167 58t-166 -58q-59 -58 -64 -173q-2 -46 -2 -68q0 -25 2 -63q4 -116 64 -173q58 -55 166 -55zM187 1052q4 71 37 111q32 38 95 38t95 -38q32 -39 36 -111q2 -42 2 -67t-2 -71q-3 -71 -35 -112
q-33 -40 -96 -40q-65 0 -96 40q-33 41 -36 112q-1 23 -1 71q-1 24 1 67z" />
    <glyph glyph-name="guillemotright" unicode="&#xbb;" horiz-adv-x="653" 
d="M157 1203l-72 -438h63l131 309v129h-122zM397 1203l-71 -438h62l130 309v129h-121z" />
    <glyph glyph-name="onequarter" unicode="&#xbc;" horiz-adv-x="1409" 
d="M157 666v-92h261v92h-70v615h-65q-7 -30 -24 -54q-14 -20 -37 -37q-25 -18 -62 -17v-70h77v-437h-80zM503 0l446 1278h-95l-447 -1278h96zM1299 170v91h-69v126h-103v-126h-163l209 444h-121l-242 -535h314v-170h106v170h69z" />
    <glyph glyph-name="onehalf" unicode="&#xbd;" horiz-adv-x="1413" 
d="M1238 94h-237l63 92l58 86l58 88q46 72 53 133t-14 109q-23 47 -68 75q-46 28 -110 28q-51 0 -95 -15t-74 -45t-45 -74q-16 -43 -11 -105h117q-1 27 3 55q3 26 15 49q10 21 32 35q22 12 56 8q31 -3 50 -18q21 -18 28 -38q8 -23 6 -49q-3 -26 -18 -52l-62 -98l-68 -104
l-76 -117l-88 -137h427v94zM157 669v-92h261v92h-70v615h-65q-7 -30 -24 -54q-14 -20 -37 -37q-25 -18 -62 -17v-70h77v-437h-80zM503 0l446 1278h-95l-447 -1278h96z" />
    <glyph glyph-name="threequarters" unicode="&#xbe;" horiz-adv-x="1413" 
d="M286 980v-70q27 -1 56 -10q25 -9 44 -25q18 -17 29 -41q11 -25 11 -57q0 -30 -8 -54q-9 -22 -23 -36q-16 -14 -33 -20q-18 -6 -36 -6q-27 0 -46 11q-18 10 -29 27t-14 39q-4 19 -2 45h-115q-8 -49 6 -87q13 -38 43 -66q29 -27 70 -41q42 -14 86 -14q46 0 85 12
q39 10 68 35q30 25 46 62q16 36 16 88q0 62 -36 112q-38 49 -103 62q64 13 100 58q34 43 34 110q0 46 -15 78q-18 34 -44 53q-28 19 -66 30q-39 9 -85 9q-57 0 -98 -15q-40 -15 -66 -41q-24 -26 -35 -64q-10 -38 -6 -81h116q0 26 4 46q5 25 14 39q11 17 28 27q16 10 44 10
q17 0 32 -4q16 -4 32 -17q15 -12 25 -34q9 -22 9 -57q0 -36 -13 -56q-13 -21 -35 -34q-19 -12 -45 -17q-24 -4 -45 -6zM1307 169v90h-69v126h-102v-126h-163l209 442h-121l-241 -532h313v-169h105v169h69zM533 0l446 1278h-95l-447 -1278h96z" />
    <glyph glyph-name="questiondown" unicode="&#xbf;" horiz-adv-x="825" 
d="M391 -219q-92 0 -156 26q-62 25 -103 70q-40 44 -56 101q-17 59 -17 120q0 67 20 116t49 87q30 39 65 74q30 30 64 76q30 41 50 94q19 53 21 126h128q9 -75 -4 -129q-14 -58 -39 -104t-57 -87q-39 -50 -60 -80q-29 -41 -48 -82q-19 -42 -19 -94q0 -39 6 -70q6 -33 24 -57
q18 -25 50 -39q33 -14 83 -14q60 0 100 18q39 16 62 52q23 35 30 85q7 51 3 118h167q8 -81 -6 -155q-13 -73 -55 -130q-43 -57 -115 -89q-74 -33 -187 -33zM493 1061h-203v-197h203v197z" />
    <glyph glyph-name="Agrave" unicode="&#xc0;" horiz-adv-x="1163" 
d="M491 1278l-504 -1278h187l141 387h530l140 -387h188l-504 1278h-178zM362 518l217 608l219 -608h-436zM768 1378l-262 203h-162l311 -203h113z" />
    <glyph glyph-name="Aacute" unicode="&#xc1;" horiz-adv-x="1176" 
d="M475 1278l-504 -1278h187l141 387h530l140 -387h188l-504 1278h-178zM346 518l217 608l219 -608h-436zM653 1581l-262 -203h113l311 203h-162z" />
    <glyph glyph-name="Acircumflex" unicode="&#xc2;" horiz-adv-x="1153" 
d="M475 1278l-504 -1278h187l141 387h530l140 -387h188l-504 1278h-178zM346 518l217 608l219 -608h-436zM606 1647h-27l-221 -203h92l143 160l123 -160h90z" />
    <glyph glyph-name="Atilde" unicode="&#xc3;" horiz-adv-x="1161" 
d="M653 1278h-178l-504 -1278h187l141 387h530l140 -387h188zM782 518h-436l217 608zM377 1510v-72q12 8 22 20q9 10 27 25q14 10 36 22q19 9 46 9q33 0 53 -11q26 -16 37 -25q22 -18 35 -25q19 -11 49 -11q22 0 43 8q20 8 34 19q16 12 25 24l19 25v63l-11.5 -8.5
t-10.5 -8.5q-10 -9 -27 -19q-15 -9 -33 -15q-19 -6 -43 -6q-20 0 -37 12q-5 3 -11 7t-13 9.5t-12 8.5q-23 16 -42 26q-24 11 -55 11q-24 0 -43 -9q-24 -13 -35 -23q-11 -9 -29 -29z" />
    <glyph glyph-name="Adieresis" unicode="&#xc4;" horiz-adv-x="1153" 
d="M653 1278h-178l-504 -1278h187l141 387h530l140 -387h188zM782 518h-436l217 608zM365 1494q0 -32 23 -55t54 -23q32 0 55 23t23 55t-23 55q-22 22 -55 22q-32 0 -54 -22q-23 -23 -23 -55zM635 1494q0 -32 23 -55t55 -23t55 23t23 55t-23 55q-22 22 -55 22t-55 -22
q-23 -23 -23 -55z" />
    <glyph glyph-name="Aring" unicode="&#xc5;" horiz-adv-x="1153" 
d="M366 1455q0 -59 31 -105q30 -46 78 -72h178q51 21 82 70q30 50 30 107q0 42 -16 77q-17 37 -43 63t-63 43q-35 16 -77 16t-77 -16q-38 -16 -64 -43q-26 -26 -43 -63q-16 -35 -16 -77zM429 1455q0 27 11 54q10 24 30 44q19 19 43 29q27 11 53 11q27 0 54 -11q23 -9 44 -29
q20 -21 29 -44q11 -27 11 -54q0 -26 -11 -53q-10 -24 -29 -43q-20 -20 -44 -30q-27 -11 -54 -11q-26 0 -53 11q-25 10 -43 30q-20 18 -30 43q-11 27 -11 53zM653 1278h-178l-504 -1278h187l141 387h530l140 -387h188zM782 518h-436l217 608z" />
    <glyph glyph-name="AE" unicode="&#xc6;" horiz-adv-x="1323" 
d="M516 1278l-608 -1278h180l146 324h385v131h-330l330 742v81h-103zM619 0h618v133h-482v485h416v132h-416v395h482v133h-618v-1278z" />
    <glyph glyph-name="Ccedilla" unicode="&#xc7;" horiz-adv-x="1206" 
d="M606 106q-150 0 -226 94q-78 96 -85 265q-1 41 -3 87q-1 31 -1 93q0 61 1 91q2 48 3 83q10 167 87 259q75 91 224 91q129 0 210 -60t106 -196h168q-14 102 -54 172t-103 116q-63 45 -146 66t-181 21q-228 0 -350 -128q-121 -129 -129 -380q-3 -74 -3 -149t3 -135
q9 -259 131 -383q122 -123 348 -123q106 0 188 22q85 23 146 71q62 50 102 128q39 78 54 190h-168q-20 -153 -102 -223q-82 -72 -220 -72zM500 -336h111q53 0 85 19q32 18 48 46q15 27 17 60q1 29 -10 60q-11 26 -35 47q-22 18 -54 18h-121q-43 0 -58 22t13 62
q-27 -9 -42 -32q-16 -22 -18 -48q-1 -25 13 -44q13 -19 47 -19h123q33 0 50 -20t15 -43q-2 -24 -23 -44q-22 -20 -64 -20h-97v-64z" />
    <glyph glyph-name="Egrave" unicode="&#xc8;" horiz-adv-x="1063" 
d="M154 0h774v133h-604v485h522v132h-522v395h604v133h-774v-1278zM748 1378l-262 203h-162l311 -203h113z" />
    <glyph glyph-name="Eacute" unicode="&#xc9;" horiz-adv-x="1051" 
d="M154 0h774v133h-604v485h522v132h-522v395h604v133h-774v-1278zM653 1581l-262 -203h113l311 203h-162z" />
    <glyph glyph-name="Ecircumflex" unicode="&#xca;" horiz-adv-x="1057" 
d="M154 0h774v133h-604v485h522v132h-522v395h604v133h-774v-1278zM551 1647h-27l-221 -203h92l143 160l123 -160h90z" />
    <glyph glyph-name="Edieresis" unicode="&#xcb;" horiz-adv-x="1073" 
d="M154 1278v-1278h774v133h-604v485h522v132h-522v395h604v133h-774zM349 1494q0 -32 23 -55t54 -23q32 0 55 23t23 55t-23 55q-22 22 -55 22q-32 0 -54 -22q-23 -23 -23 -55zM619 1494q0 -32 23 -55t55 -23t55 23t23 55t-23 55q-22 22 -55 22t-55 -22q-23 -23 -23 -55z
" />
    <glyph glyph-name="Igrave" unicode="&#xcc;" horiz-adv-x="496" 
d="M174 0h168v1278h-168v-1278zM441 1378l-262 203h-162l311 -203h113z" />
    <glyph glyph-name="Iacute" unicode="&#xcd;" horiz-adv-x="500" 
d="M174 0h168v1278h-168v-1278zM305 1581l-262 -203h113l311 203h-162z" />
    <glyph glyph-name="Icircumflex" unicode="&#xce;" horiz-adv-x="500" 
d="M174 0h168v1278h-168v-1278zM281 1647h-27l-221 -203h92l143 160l123 -160h90z" />
    <glyph glyph-name="Idieresis" unicode="&#xcf;" horiz-adv-x="483" 
d="M174 1278v-1278h168v1278h-168zM47 1494q0 -32 23 -55t54 -23q32 0 55 23t23 55t-23 55q-22 22 -55 22q-32 0 -54 -22q-23 -23 -23 -55zM317 1494q0 -32 23 -55t55 -23t55 23t23 55t-23 55q-22 22 -55 22t-55 -22q-23 -23 -23 -55z" />
    <glyph glyph-name="Eth" unicode="&#xd0;" horiz-adv-x="1227" 
d="M238 718h-234v-140h234v-578h380q145 0 237 47q91 46 142 132q50 85 70 202q18 117 18 258q0 139 -18 258q-20 117 -70 202q-51 84 -142 132q-92 47 -237 47h-380v-560zM596 131h-202v447h198v140h-198v435h202q80 0 135 -18q56 -20 93 -52q37 -34 58 -81q22 -48 32 -104
q10 -53 13 -122q2 -88 2 -137q0 -50 -2 -136q-3 -70 -13 -122q-10 -54 -32 -103q-21 -47 -58 -78q-38 -34 -92 -51q-56 -18 -136 -18z" />
    <glyph glyph-name="Ntilde" unicode="&#xd1;" horiz-adv-x="1266" 
d="M940 1278v-1120l-547 1120h-239v-1278h157v1143l553 -1143h232v1278h-156zM414 1540v-72q12 8 22 20q9 10 27 25q14 10 36 22q20 9 46 9q33 0 53 -11q26 -16 37 -25q22 -18 35 -25q19 -11 49 -11q22 0 43 8q20 8 34 19q16 12 25 24l19 25v63l-11.5 -8.5t-10.5 -8.5
q-10 -9 -27 -19q-15 -9 -33 -15q-20 -6 -43 -6q-21 0 -37 12q-5 3 -11 7t-13 9.5t-12 8.5q-23 16 -42 26q-24 11 -55 11q-23 0 -43 -9q-24 -13 -35 -23q-11 -9 -29 -29z" />
    <glyph glyph-name="Ograve" unicode="&#xd2;" horiz-adv-x="1202" 
d="M598 1287q-229 0 -352 -128t-131 -379q-2 -98 -2 -149q0 -55 2 -135q4 -129 39 -224q34 -97 94 -157q61 -62 147 -92q87 -30 201 -30q227 0 349 122q121 121 132 381q2 80 2 135q0 51 -2 149q-8 252 -129 379q-122 128 -350 128zM907 465q-6 -169 -83 -263
q-76 -93 -228 -93t-228 93q-77 94 -83 263q-1 41 -3 87q-1 31 -1 93q0 61 1 91q2 48 3 83q11 168 85 259q75 91 226 91q74 0 131 -23q56 -24 95 -68q38 -46 59 -110q22 -66 26 -149q1 -35 3 -83q1 -30 1 -91q0 -62 -1 -93q-2 -46 -3 -87zM770 1378l-262 203h-162l311 -203
h113z" />
    <glyph glyph-name="Oacute" unicode="&#xd3;" horiz-adv-x="1190" 
d="M598 1287q-229 0 -352 -128t-131 -379q-2 -98 -2 -149q0 -55 2 -135q4 -129 39 -224q34 -97 94 -157q61 -62 147 -92q87 -30 201 -30q227 0 349 122q121 121 132 381q2 80 2 135q0 51 -2 149q-8 252 -129 379q-122 128 -350 128zM907 465q-6 -169 -83 -263
q-76 -93 -228 -93t-228 93q-77 94 -83 263q-1 41 -3 87q-1 31 -1 93q0 61 1 91q2 48 3 83q11 168 85 259q75 91 226 91q74 0 131 -23q56 -24 95 -68q38 -46 59 -110q22 -66 26 -149q1 -35 3 -83q1 -30 1 -91q0 -62 -1 -93q-2 -46 -3 -87zM647 1581l-262 -203h113l311 203
h-162z" />
    <glyph glyph-name="Ocircumflex" unicode="&#xd4;" horiz-adv-x="1190" 
d="M598 1287q-229 0 -352 -128t-131 -379q-2 -98 -2 -149q0 -55 2 -135q4 -129 39 -224q34 -97 94 -157q61 -62 147 -92q87 -30 201 -30q227 0 349 122q121 121 132 381q2 80 2 135q0 51 -2 149q-8 252 -129 379q-122 128 -350 128zM907 465q-6 -169 -83 -263
q-76 -93 -228 -93t-228 93q-77 94 -83 263q-1 41 -3 87q-1 31 -1 93q0 61 1 91q2 48 3 83q11 168 85 259q75 91 226 91q74 0 131 -23q56 -24 95 -68q38 -46 59 -110q22 -66 26 -149q1 -35 3 -83q1 -30 1 -91q0 -62 -1 -93q-2 -46 -3 -87zM619 1647h-27l-221 -203h92l143 160
l123 -160h90z" />
    <glyph glyph-name="Otilde" unicode="&#xd5;" horiz-adv-x="1194" 
d="M598 1287q-229 0 -352 -128t-131 -379q-2 -98 -2 -149q0 -55 2 -135q4 -129 39 -224q34 -97 94 -157q61 -62 147 -92q87 -30 201 -30q227 0 349 122q121 121 132 381q2 80 2 135q0 51 -2 149q-8 252 -129 379q-122 128 -350 128zM907 465q-6 -169 -83 -263
q-76 -93 -228 -93t-228 93q-77 94 -83 263q-1 41 -3 87q-1 31 -1 93q0 61 1 91q2 48 3 83q11 168 85 259q75 91 226 91q74 0 131 -23q56 -24 95 -68q38 -46 59 -110q22 -66 26 -149q1 -35 3 -83q1 -30 1 -91q0 -62 -1 -93q-2 -46 -3 -87zM389 1540v-72q12 8 22 20
q9 10 27 25q14 10 36 22q20 9 46 9q33 0 53 -11q26 -16 37 -25q22 -18 35 -25q19 -11 49 -11q22 0 43 8q20 8 34 19q16 12 25 24l19 25v63l-11.5 -8.5t-10.5 -8.5q-10 -9 -27 -19q-15 -9 -33 -15q-20 -6 -43 -6q-20 0 -37 12q-5 3 -11 7t-13 9.5t-12 8.5q-23 16 -42 26
q-24 11 -55 11q-23 0 -43 -9q-24 -13 -35 -23q-11 -9 -29 -29z" />
    <glyph glyph-name="Odieresis" unicode="&#xd6;" horiz-adv-x="1190" 
d="M598 1287q-229 0 -352 -128t-131 -379q-2 -98 -2 -149q0 -55 2 -135q4 -129 39 -224q34 -97 94 -157q61 -62 147 -92q87 -30 201 -30q227 0 349 122q121 121 132 381q2 80 2 135q0 51 -2 149q-8 252 -129 379q-122 128 -350 128zM907 465q-6 -169 -83 -263
q-76 -93 -228 -93t-228 93q-77 94 -83 263q-1 41 -3 87q-1 31 -1 93q0 61 1 91q2 48 3 83q11 168 85 259q75 91 226 91q74 0 131 -23q56 -24 95 -68q38 -46 59 -110q22 -66 26 -149q1 -35 3 -83q1 -30 1 -91q0 -62 -1 -93q-2 -46 -3 -87zM389 1494q0 -32 23 -55t54 -23
q32 0 55 23t23 55t-23 55q-22 22 -55 22q-32 0 -54 -22q-23 -23 -23 -55zM659 1494q0 -32 23 -55t55 -23t55 23t23 55t-23 55q-22 22 -55 22t-55 -22q-23 -23 -23 -55z" />
    <glyph glyph-name="multiply" unicode="&#xd7;" horiz-adv-x="768" 
d="M176 818l-80 -80l209 -209l-209 -208l80 -80l209 208l209 -208l80 80l-209 208l209 209l-80 80l-209 -209z" />
    <glyph glyph-name="Oslash" unicode="&#xd8;" horiz-adv-x="1124" 
d="M565 1287q-229 0 -352 -128t-131 -379q-2 -98 -2 -149q0 -55 2 -135q6 -162 55 -267q47 -105 138 -164l-70 -159l71 -31l68 155q90 -37 219 -37q227 0 349 122q122 121 132 381q2 80 2 135q0 51 -2 149q-9 298 -182 423l53 120l-71 29l-49 -110q-48 22 -106 34
q-60 11 -124 11zM252 465q-2 41 -3 87q-1 31 -1 93q0 61 1 91q2 48 3 83q11 168 85 259q75 91 226 91q108 0 178 -49l-406 -919q-40 46 -59 112q-21 66 -24 152zM874 465q-6 -169 -83 -263q-77 -93 -228 -93q-98 0 -166 40l403 914q32 -45 51 -106q19 -64 23 -138
q1 -35 3 -83q1 -30 1 -91q0 -62 -1 -93q-1 -46 -3 -87z" />
    <glyph glyph-name="Ugrave" unicode="&#xd9;" horiz-adv-x="1245" 
d="M862 1278v-813q0 -77 -16 -137q-17 -66 -50 -107q-35 -44 -87 -68q-51 -25 -127 -25t-127 25q-52 24 -87 68q-34 43 -51 107q-16 60 -16 137v813h-174v-795q0 -247 114 -369q114 -121 341 -121q229 0 343 121q113 122 113 369v795h-176zM736 1378l-262 203h-162l311 -203
h113z" />
    <glyph glyph-name="Uacute" unicode="&#xda;" horiz-adv-x="1233" 
d="M862 1278v-813q0 -77 -16 -137q-17 -66 -50 -107q-35 -44 -87 -68q-51 -25 -127 -25t-127 25q-52 24 -87 68q-34 43 -51 107q-16 60 -16 137v813h-174v-795q0 -247 114 -369q114 -121 341 -121q229 0 343 121q113 122 113 369v795h-176zM745 1581l-262 -203h113l311 203
h-162z" />
    <glyph glyph-name="Ucircumflex" unicode="&#xdb;" horiz-adv-x="1237" 
d="M862 1278v-813q0 -77 -16 -137q-17 -66 -50 -107q-35 -44 -87 -68q-51 -25 -127 -25t-127 25q-52 24 -87 68q-34 43 -51 107q-16 60 -16 137v813h-174v-795q0 -247 114 -369q114 -121 341 -121q229 0 343 121q113 122 113 369v795h-176zM601 1647h-27l-221 -203h92
l143 160l123 -160h90z" />
    <glyph glyph-name="Udieresis" unicode="&#xdc;" horiz-adv-x="1237" 
d="M862 1278v-813q0 -77 -16 -137q-17 -66 -50 -107q-35 -44 -87 -68q-51 -25 -127 -25t-127 25q-52 24 -87 68q-34 43 -51 107q-16 60 -16 137v813h-174v-795q0 -247 114 -369q114 -121 341 -121q229 0 343 121q113 122 113 369v795h-176zM365 1494q0 -32 23 -55t54 -23
q32 0 55 23t23 55t-23 55q-22 22 -55 22q-32 0 -54 -22q-23 -23 -23 -55zM635 1494q0 -32 23 -55t55 -23t55 23t23 55t-23 55q-22 22 -55 22t-55 -22q-23 -23 -23 -55z" />
    <glyph glyph-name="Yacute" unicode="&#xdd;" horiz-adv-x="811" 
d="M401 666l-266 612h-187l373 -729v-549h162v549l373 729h-183zM534 1581l-262 -203h113l311 203h-162z" />
    <glyph glyph-name="Thorn" unicode="&#xde;" horiz-adv-x="889" 
d="M99 1275v-1535h154v356q45 -54 104 -78q57 -25 130 -25q172 0 267 89q93 87 104 278q0 23 1 40q0 36 1 57v65q-1 23 -1 67v60q-1 18 -1 45q-6 182 -102 276q-98 95 -269 95q-73 0 -130 -25q-58 -25 -104 -82v317h-154zM276 703q7 115 59 177q50 62 152 62q101 0 154 -62
q51 -62 57 -177q1 -6 1.5 -21t0.5 -23q0 -38 1 -59v-68v-68q-1 -22 -1 -61q0 -8 -0.5 -24t-1.5 -23q-4 -114 -57 -179q-52 -64 -154 -64t-154 64q-53 65 -57 179q-1 12 -1 47v61q-1 22 -1 68v68q0 41 1 59q0 33 1 44z" />
    <glyph glyph-name="germandbls" unicode="&#xdf;" horiz-adv-x="1083" 
d="M283 0l-2 895q0 69 19 122t51 91q32 37 75 56q42 20 90 18q120 -1 186 -43q64 -40 64 -138q0 -44 -19 -69t-49 -44q-23 -15 -65 -35q-39 -19 -66 -38q-31 -22 -54 -56q-24 -36 -28 -87q0 -47 25 -78q23 -31 62 -57q41 -28 82 -47l87 -45q41 -23 76 -54q34 -31 47 -72
q14 -42 11 -78q-3 -38 -31 -66t-86 -45q-60 -17 -152 -17h-51v-113h111q112 0 184 34q73 34 113 86t47 112q8 60 -15 114q-23 57 -60 94q-36 36 -82 63q-40 24 -88 45q-45 18 -81 36q-36 16 -59 38q-23 21 -23 52q0 34 23 54t56 33l74 28q39 14 73 37q34 24 57 63
q22 37 22 102q0 67 -27 121q-28 52 -78 90q-51 38 -123 57q-70 19 -161 19t-161 -27q-71 -29 -120 -78q-51 -53 -76 -121q-26 -72 -26 -157v-895h148z" />
    <glyph glyph-name="agrave" unicode="&#xe0;" horiz-adv-x="954" 
d="M358 -18q106 0 193 41q85 40 139 129v-152h154v545q0 89 -9 163q-11 74 -41 123q-31 51 -88 79q-58 27 -155 27q-20 0 -37 -1q-26 -2 -57 -3q-9 0 -32 -1.5t-37 -2.5q-51 -4 -74 -5q-89 -5 -187 -12l8 -133q33 3 158 13l65 6q11 1 32.5 2.5t31.5 1.5q28 1 58 3q17 1 44 1
q46 0 77 -9t51 -30q20 -22 29 -56t9 -86l-55 -12q-1 0 -31 -6.5t-47 -10.5l-94 -19l-48 -10.5l-53 -11.5q-155 -35 -226 -106q-73 -72 -73 -191q0 -58 17 -109q16 -49 53 -87q35 -38 91 -59t134 -21zM406 444l155 39l129 33v-156q0 -48 -18 -94q-19 -46 -57 -82
q-37 -35 -96 -58q-57 -22 -140 -22q-45 0 -74 13q-31 12 -50 34q-20 23 -29 51t-9 62q0 66 52 112q54 46 137 68zM662 1050l-262 203h-162l311 -203h113z" />
    <glyph glyph-name="aacute" unicode="&#xe1;" 
d="M358 -18q106 0 193 41q85 40 139 129v-152h154v545q0 89 -9 163q-11 74 -41 123q-31 51 -88 79q-58 27 -155 27q-20 0 -37 -1q-26 -2 -57 -3q-9 0 -32 -1.5t-37 -2.5q-51 -4 -74 -5q-89 -5 -187 -12l8 -133q33 3 158 13l65 6q11 1 32.5 2.5t31.5 1.5q28 1 58 3q17 1 44 1
q46 0 77 -9t51 -30q20 -22 29 -56t9 -86l-55 -12q-1 0 -31 -6.5t-47 -10.5l-94 -19l-48 -10.5l-53 -11.5q-155 -35 -226 -106q-73 -72 -73 -191q0 -58 17 -109q16 -49 53 -87q35 -38 91 -59t134 -21zM406 444l155 39l129 33v-156q0 -48 -18 -94q-19 -46 -57 -82
q-37 -35 -96 -58q-57 -22 -140 -22q-45 0 -74 13q-31 12 -50 34q-20 23 -29 51t-9 62q0 66 52 112q54 46 137 68zM571 1252l-262 -203h113l311 203h-162z" />
    <glyph glyph-name="acircumflex" unicode="&#xe2;" horiz-adv-x="932" 
d="M358 -18q106 0 193 41q85 40 139 129v-152h154v545q0 89 -9 163q-11 74 -41 123q-31 51 -88 79q-58 27 -155 27q-20 0 -37 -1q-26 -2 -57 -3q-9 0 -32 -1.5t-37 -2.5q-51 -4 -74 -5q-89 -5 -187 -12l8 -133q33 3 158 13l65 6q11 1 32.5 2.5t31.5 1.5q28 1 58 3q17 1 44 1
q46 0 77 -9t51 -30q20 -22 29 -56t9 -86l-55 -12q-1 0 -31 -6.5t-47 -10.5l-94 -19l-48 -10.5l-53 -11.5q-155 -35 -226 -106q-73 -72 -73 -191q0 -58 17 -109q16 -49 53 -87q35 -38 91 -59t134 -21zM406 444l155 39l129 33v-156q0 -48 -18 -94q-19 -46 -57 -82
q-37 -35 -96 -58q-57 -22 -140 -22q-45 0 -74 13q-31 12 -50 34q-20 23 -29 51t-9 62q0 66 52 112q54 46 137 68zM490 1297h-27l-221 -203h92l143 160l123 -160h90z" />
    <glyph glyph-name="atilde" unicode="&#xe3;" 
d="M358 -18q106 0 193 41q85 40 139 129v-152h154v545q0 89 -9 163q-11 74 -41 123q-31 51 -88 79q-58 27 -155 27q-20 0 -37 -1q-26 -2 -57 -3q-9 0 -32 -1.5t-37 -2.5q-51 -4 -74 -5q-89 -5 -187 -12l8 -133q33 3 158 13l65 6q11 1 32.5 2.5t31.5 1.5q28 1 58 3q17 1 44 1
q46 0 77 -9t51 -30q20 -22 29 -56t9 -86l-55 -12q-1 0 -31 -6.5t-47 -10.5l-94 -19l-48 -10.5l-53 -11.5q-155 -35 -226 -106q-73 -72 -73 -191q0 -58 17 -109q16 -49 53 -87q35 -38 91 -59t134 -21zM406 444l155 39l129 33v-156q0 -48 -18 -94q-19 -46 -57 -82
q-37 -35 -96 -58q-57 -22 -140 -22q-45 0 -74 13q-31 12 -50 34q-20 23 -29 51t-9 62q0 66 52 112q54 46 137 68zM262 1166v-72q12 8 22 20q9 10 27 25q14 10 36 22q20 9 46 9q33 0 53 -11q26 -16 37 -25q22 -18 35 -25q19 -11 49 -11q22 0 43 8q20 8 34 19q16 12 25 24
l19 25v63l-11.5 -8.5t-10.5 -8.5q-10 -9 -27 -19q-15 -9 -33 -15q-20 -6 -43 -6q-21 0 -37 12q-5 3 -11 7t-13 9.5t-12 8.5q-23 16 -42 26q-24 11 -55 11q-23 0 -43 -9q-24 -13 -35 -23q-11 -9 -29 -29z" />
    <glyph glyph-name="adieresis" unicode="&#xe4;" horiz-adv-x="932" 
d="M358 -18q106 0 193 41q85 40 139 129v-152h154v545q0 89 -9 163q-11 74 -41 123q-31 51 -88 79q-58 27 -155 27q-20 0 -37 -1q-26 -2 -57 -3q-9 0 -32 -1.5t-37 -2.5q-51 -4 -74 -5q-89 -5 -187 -12l8 -133q33 3 158 13l65 6q11 1 32.5 2.5t31.5 1.5q28 1 58 3q17 1 44 1
q46 0 77 -9t51 -30q20 -22 29 -56t9 -86l-55 -12q-1 0 -31 -6.5t-47 -10.5l-94 -19l-48 -10.5l-53 -11.5q-155 -35 -226 -106q-73 -72 -73 -191q0 -58 17 -109q16 -49 53 -87q35 -38 91 -59t134 -21zM406 444l155 39l129 33v-156q0 -48 -18 -94q-19 -46 -57 -82
q-37 -35 -96 -58q-57 -22 -140 -22q-45 0 -74 13q-31 12 -50 34q-20 23 -29 51t-9 62q0 66 52 112q54 46 137 68zM265 1169q0 -32 23 -55t54 -23q32 0 55 23t23 55t-23 55q-22 22 -55 22q-32 0 -54 -22q-23 -23 -23 -55zM535 1169q0 -32 23 -55t55 -23t55 23t23 55t-23 55
q-22 22 -55 22t-55 -22q-23 -23 -23 -55z" />
    <glyph glyph-name="aring" unicode="&#xe5;" horiz-adv-x="944" 
d="M293 1280q0 -42 16 -77q17 -37 43 -64q26 -26 64 -43q35 -16 78 -16q41 0 76 16q37 17 63 43q27 27 43 64q16 35 16 77t-16 77q-17 37 -43 63t-63 43q-35 16 -76 16q-43 0 -78 -16q-38 -17 -64 -43t-43 -63q-16 -35 -16 -77zM357 1280q0 27 11 54q10 26 29 44
q21 20 44 29q25 11 53 11q26 0 53 -11q23 -9 44 -29q20 -20 30 -44t10 -54q0 -29 -10 -53q-10 -25 -30 -43q-20 -20 -44 -30q-27 -11 -53 -11q-28 0 -53 11q-24 10 -44 30q-18 17 -29 43q-11 27 -11 53zM358 -18q106 0 193 41q85 40 139 129v-152h154v545q0 89 -9 163
q-11 74 -41 123q-31 51 -88 79q-58 27 -155 27q-20 0 -37 -1q-26 -2 -57 -3q-9 0 -32 -1.5t-37 -2.5q-51 -4 -74 -5q-89 -5 -187 -12l8 -133q33 3 158 13l65 6q11 1 32.5 2.5t31.5 1.5q28 1 58 3q17 1 44 1q46 0 77 -9t51 -30q20 -22 29 -56t9 -86l-55 -12q-1 0 -31 -6.5
t-47 -10.5l-94 -19l-48 -10.5l-53 -11.5q-155 -35 -226 -106q-73 -72 -73 -191q0 -58 17 -109q16 -49 53 -87q35 -38 91 -59t134 -21zM406 444l155 39l129 33v-156q0 -48 -18 -94q-19 -46 -57 -82q-37 -35 -96 -58q-57 -22 -140 -22q-45 0 -74 13q-31 12 -50 34
q-20 23 -29 51t-9 62q0 66 52 112q54 46 137 68z" />
    <glyph glyph-name="ae" unicode="&#xe6;" horiz-adv-x="1501" 
d="M402 444l146 38q66 15 121 30v-152q0 -46 -17 -94q-18 -46 -54 -82q-36 -35 -91 -58q-54 -22 -131 -22q-43 0 -70 13q-30 13 -47 34q-19 23 -26 51q-9 28 -9 62q0 66 49 112t129 68zM1051 825q44 0 79 -13q35 -14 61 -47q27 -37 43 -90q16 -55 22 -142h-434q8 155 66 224
q59 68 163 68zM1399 289h-158q-2 -34 -13 -64q-14 -31 -36 -54q-24 -25 -59 -38q-36 -14 -82 -14q-104 0 -161 76q-57 74 -68 231h588q0 144 -27 245q-27 100 -75 161q-47 60 -113 88q-66 27 -144 27q-45 0 -86 -9t-79 -27t-67 -46t-51 -68q-28 76 -83 108t-147 32
q-20 0 -35 -1q-21 -1 -53 -3q-10 0 -32 -1.5t-34 -2.5q-46 -4 -69 -5q-83 -5 -176 -12l8 -133q37 4 148 13l61 6q11 1 31 2.5t29 1.5q28 2 54 3q17 1 43 1q42 0 72 -9q30 -11 48 -32q18 -23 27 -57q9 -36 9 -87l-52 -12q-31 -7 -74 -15l-88 -18l-95 -21q-145 -35 -212 -106
q-69 -72 -69 -191q0 -61 16 -109q17 -51 50 -87q33 -38 86 -59t126 -21q53 0 109 10q58 10 114 33q55 23 98 60t61 92q28 -46 68 -81q42 -38 82 -58q46 -24 84 -34q44 -11 78 -11q156 0 242 74q83 73 106 222z" />
    <glyph glyph-name="ccedilla" unicode="&#xe7;" horiz-adv-x="961" 
d="M840 305h-174q-3 -32 -14 -65q-12 -31 -35 -57q-21 -24 -58 -40q-36 -15 -86 -15q-121 0 -179 85t-58 266q0 91 15 156q13 63 44 106q29 42 74 61q42 19 104 19q47 0 81 -15q35 -17 57 -40q23 -26 36 -55q12 -30 15 -58h176q-12 77 -39 133q-27 54 -71 89q-45 35 -108 51
q-61 16 -147 16q-93 0 -166 -24q-76 -25 -127 -79q-52 -55 -81 -144q-29 -92 -29 -220q0 -129 29 -222q28 -91 81 -148q52 -58 127 -84t166 -26q169 0 257 81q87 78 110 229zM390 -333h111q53 0 85 19q32 18 48 46q15 27 17 60q1 29 -10 60q-11 26 -35 47q-22 18 -54 18
h-121q-43 0 -58 22t13 62q-27 -9 -42 -32q-16 -23 -18 -48q-1 -25 13 -44q13 -19 47 -19h123q33 0 50 -20t15 -43q-2 -24 -23 -44q-22 -20 -64 -20h-97v-64z" />
    <glyph glyph-name="egrave" unicode="&#xe8;" horiz-adv-x="952" 
d="M848 287h-168q-2 -33 -15 -63q-14 -33 -38 -54q-27 -25 -62 -38q-39 -14 -88 -14q-111 0 -172 72q-61 70 -72 225h627q0 143 -29 245q-28 99 -80 163q-51 62 -121 90q-69 28 -153 28q-91 0 -166 -26q-74 -27 -127 -84q-52 -59 -81 -150q-29 -93 -29 -222q0 -130 29 -220
q29 -89 81 -143q52 -55 127 -79q73 -24 166 -24q169 0 258 73q90 72 113 221zM477 817q48 0 84 -13q37 -13 66 -47q27 -32 46 -89q17 -58 23 -141h-463q7 153 70 222q62 68 174 68zM653 1059l-262 203h-162l311 -203h113z" />
    <glyph glyph-name="eacute" unicode="&#xe9;" horiz-adv-x="963" 
d="M848 287h-168q-2 -33 -15 -63q-14 -33 -38 -54q-27 -25 -62 -38q-39 -14 -88 -14q-111 0 -172 72q-61 70 -72 225h627q0 143 -29 245q-28 99 -80 163q-51 62 -121 90q-69 28 -153 28q-91 0 -166 -26q-74 -27 -127 -84q-52 -59 -81 -150q-29 -93 -29 -222q0 -130 29 -220
q29 -89 81 -143q52 -55 127 -79q73 -24 166 -24q169 0 258 73q90 72 113 221zM477 817q48 0 84 -13q37 -13 66 -47q27 -32 46 -89q17 -58 23 -141h-463q7 153 70 222q62 68 174 68zM581 1262l-262 -203h113l311 203h-162z" />
    <glyph glyph-name="ecircumflex" unicode="&#xea;" 
d="M848 287h-168q-2 -33 -15 -63q-14 -33 -38 -54q-27 -25 -62 -38q-39 -14 -88 -14q-111 0 -172 72q-61 70 -72 225h627q0 143 -29 245q-28 99 -80 163q-51 62 -121 90q-69 28 -153 28q-91 0 -166 -26q-74 -27 -127 -84q-52 -59 -81 -150q-29 -93 -29 -222q0 -130 29 -220
q29 -89 81 -143q52 -55 127 -79q73 -24 166 -24q169 0 258 73q90 72 113 221zM477 817q48 0 84 -13q37 -13 66 -47q27 -32 46 -89q17 -58 23 -141h-463q7 153 70 222q62 68 174 68zM482 1276h-27l-221 -203h92l143 160l123 -160h90z" />
    <glyph glyph-name="edieresis" unicode="&#xeb;" 
d="M848 287h-168q-2 -33 -15 -63q-14 -33 -38 -54q-27 -25 -62 -38q-39 -14 -88 -14q-111 0 -172 72q-61 70 -72 225h627q0 143 -29 245q-28 99 -80 163q-51 62 -121 90q-69 28 -153 28q-91 0 -166 -26q-74 -27 -127 -84q-52 -59 -81 -150q-29 -93 -29 -222q0 -130 29 -220
q29 -89 81 -143q52 -55 127 -79q73 -24 166 -24q169 0 258 73q90 72 113 221zM477 817q48 0 84 -13q37 -13 66 -47q27 -32 46 -89q17 -58 23 -141h-463q7 153 70 222q62 68 174 68zM272 1159q0 -32 23 -55t54 -23q32 0 55 23t23 55t-23 55q-22 22 -55 22q-32 0 -54 -22
q-23 -23 -23 -55zM542 1159q0 -32 23 -55t55 -23t55 23t23 55t-23 55q-22 22 -55 22t-55 -22q-23 -23 -23 -55z" />
    <glyph glyph-name="igrave" unicode="&#xec;" horiz-adv-x="391" 
d="M398 1067l-262 203h-162l311 -203h113zM154 0h168v934h-168v-934z" />
    <glyph glyph-name="iacute" unicode="&#xed;" horiz-adv-x="391" 
d="M260 1263l-262 -203h113l311 203h-162zM154 0h168v934h-168v-934z" />
    <glyph glyph-name="icircumflex" unicode="&#xee;" horiz-adv-x="391" 
d="M226 1280h-27l-221 -203h92l143 160l123 -160h90zM154 0h168v934h-168v-934z" />
    <glyph glyph-name="idieresis" unicode="&#xef;" horiz-adv-x="391" 
d="M-2 1174q0 -32 23 -55t54 -23q32 0 55 23t23 55t-23 55q-22 22 -55 22q-32 0 -54 -22q-23 -23 -23 -55zM268 1174q0 -32 23 -55t55 -23t55 23t23 55t-23 55q-22 22 -55 22t-55 -22q-23 -23 -23 -55zM154 934v-934h168v934h-168z" />
    <glyph glyph-name="eth" unicode="&#xf0;" horiz-adv-x="760" 
d="M100 753l40 -66l181 92l101 -179q-4 1 -18 3t-23 4q-22 4 -57 -1q-49 -4 -97 -26q-46 -21 -81 -59q-36 -41 -55 -94q-21 -56 -21 -128q0 -61 25 -112q26 -55 68 -94q42 -41 99 -63q57 -24 121 -24q62 0 119 20q53 19 98 56q42 36 68 86t30 108q2 29 0 58q-2 35 -8 62
q-8 34 -21 70q-11 31 -38 83q-7 14 -30 52l-44 73l-51 84l-50 85l201 90l-34 59l-208 -83l-103 182l-146 -57l114 -188zM383 489q33 0 64 -15t55 -40q24 -26 39 -58q14 -34 14 -68q0 -35 -12 -65q-12 -31 -34 -53q-23 -23 -54 -35q-30 -13 -72 -13q-34 0 -61 13
q-29 14 -50 36q-22 22 -34 54q-13 30 -13 66t13 68q12 32 34 57q21 24 50 39q30 14 61 14z" />
    <glyph glyph-name="ntilde" unicode="&#xf1;" horiz-adv-x="1030" 
d="M764 0h154v551q0 78 -20 150q-21 71 -63 123t-106 82q-65 30 -153 30q-96 0 -167 -30q-70 -30 -112 -87v109h-155v-928h155v565q0 57 20 105q20 47 52 78q30 30 75 47q42 16 91 16t90 -16q42 -17 72 -47q31 -31 49 -78q18 -46 18 -105v-565zM336 1151v-72q12 8 22 20
q9 10 27 25q14 10 36 22q19 9 46 9q33 0 53 -11q26 -16 37 -25q22 -18 35 -25q19 -11 49 -11q22 0 43 8q20 8 34 19q16 12 25 24l19 25v63l-11.5 -8.5t-10.5 -8.5q-10 -9 -27 -19q-15 -9 -33 -15q-20 -6 -43 -6q-21 0 -37 12q-5 3 -11 7t-13 9.5t-12 8.5q-23 16 -42 26
q-24 11 -55 11q-23 0 -43 -9q-24 -13 -35 -23q-11 -9 -29 -29z" />
    <glyph glyph-name="ograve" unicode="&#xf2;" 
d="M477 -7q172 0 267 89q93 87 104 278q2 58 2 100q0 37 -2 109q-6 181 -102 276q-98 95 -269 95q-172 0 -266 -94q-96 -94 -103 -277q-2 -72 -2 -109q0 -42 2 -100q8 -188 104 -277q95 -90 265 -90zM266 578q7 115 59 177q50 62 152 62q101 0 154 -62q51 -61 57 -177
q3 -51 3 -108q0 -58 -3 -114q-4 -114 -57 -179q-52 -64 -154 -64t-154 64q-53 65 -57 179q-2 74 -2 114q-1 51 2 108zM660 1043l-262 203h-162l311 -203h113z" />
    <glyph glyph-name="oacute" unicode="&#xf3;" 
d="M477 -7q172 0 267 89q93 87 104 278q2 58 2 100q0 37 -2 109q-6 181 -102 276q-98 95 -269 95q-172 0 -266 -94q-96 -94 -103 -277q-2 -72 -2 -109q0 -42 2 -100q8 -188 104 -277q95 -90 265 -90zM266 578q7 115 59 177q50 62 152 62q101 0 154 -62q51 -61 57 -177
q3 -51 3 -108q0 -58 -3 -114q-4 -114 -57 -179q-52 -64 -154 -64t-154 64q-53 65 -57 179q-2 74 -2 114q-1 51 2 108zM551 1236l-262 -203h113l311 203h-162z" />
    <glyph glyph-name="ocircumflex" unicode="&#xf4;" horiz-adv-x="956" 
d="M477 -7q172 0 267 89q93 87 104 278q2 58 2 100q0 37 -2 109q-6 181 -102 276q-98 95 -269 95q-172 0 -266 -94q-96 -94 -103 -277q-2 -72 -2 -109q0 -42 2 -100q8 -188 104 -277q95 -90 265 -90zM266 578q7 115 59 177q50 62 152 62q101 0 154 -62q51 -61 57 -177
q3 -51 3 -108q0 -58 -3 -114q-4 -114 -57 -179q-52 -64 -154 -64t-154 64q-53 65 -57 179q-2 74 -2 114q-1 51 2 108zM511 1257h-27l-221 -203h92l143 160l123 -160h90z" />
    <glyph glyph-name="otilde" unicode="&#xf5;" horiz-adv-x="956" 
d="M477 -7q172 0 267 89q93 87 104 278q2 58 2 100q0 37 -2 109q-6 181 -102 276q-98 95 -269 95q-172 0 -266 -94q-96 -94 -103 -277q-2 -72 -2 -109q0 -42 2 -100q8 -188 104 -277q95 -90 265 -90zM266 578q7 115 59 177q50 62 152 62q101 0 154 -62q51 -61 57 -177
q3 -51 3 -108q0 -58 -3 -114q-4 -114 -57 -179q-52 -64 -154 -64t-154 64q-53 65 -57 179q-2 74 -2 114q-1 51 2 108zM283 1141v-72q12 8 22 20q9 10 27 25q14 10 36 22q20 9 46 9q33 0 53 -11q26 -16 37 -25q22 -18 35 -25q19 -11 49 -11q22 0 43 8q20 8 34 19q16 12 25 24
l19 25v63l-11.5 -8.5t-10.5 -8.5q-10 -9 -27 -19q-15 -9 -33 -15q-19 -6 -43 -6q-20 0 -37 12q-5 3 -11 7t-13 9.5t-12 8.5q-23 16 -42 26q-24 11 -55 11q-24 0 -43 -9q-24 -13 -35 -23q-11 -9 -29 -29z" />
    <glyph glyph-name="odieresis" unicode="&#xf6;" horiz-adv-x="944" 
d="M477 -7q172 0 267 89q93 87 104 278q2 58 2 100q0 37 -2 109q-6 181 -102 276q-98 95 -269 95q-172 0 -266 -94q-96 -94 -103 -277q-2 -72 -2 -109q0 -42 2 -100q8 -188 104 -277q95 -90 265 -90zM266 578q7 115 59 177q50 62 152 62q101 0 154 -62q51 -61 57 -177
q3 -51 3 -108q0 -58 -3 -114q-4 -114 -57 -179q-52 -64 -154 -64t-154 64q-53 65 -57 179q-2 74 -2 114q-1 51 2 108zM274 1181q0 -32 23 -55t54 -23q32 0 55 23t23 55t-23 55q-22 22 -55 22q-32 0 -54 -22q-23 -23 -23 -55zM544 1181q0 -32 23 -55t55 -23t55 23t23 55
t-23 55q-22 22 -55 22t-55 -22q-23 -23 -23 -55z" />
    <glyph glyph-name="divide" unicode="&#xf7;" horiz-adv-x="627" 
d="M196 760h203v197h-203v-197zM198 91h203v197h-203v-197zM602 601h-588v-140h588v140z" />
    <glyph glyph-name="oslash" unicode="&#xf8;" horiz-adv-x="880" 
d="M444 -7q172 0 267 89q93 87 104 278q2 58 2 100q0 37 -2 109q-4 112 -42 190q-37 78 -107 123l47 103l-54 27l-47 -102q-74 30 -168 30q-172 0 -266 -94q-96 -94 -103 -277q-2 -72 -2 -109q0 -42 2 -100q4 -111 41 -189q34 -76 101 -120l-67 -147l53 -29l68 148
q73 -30 173 -30zM655 578q3 -51 3 -108q0 -58 -3 -114q-4 -114 -57 -179q-52 -64 -154 -64q-70 0 -117 31l276 602q46 -58 52 -168zM233 578q7 115 59 177q50 62 152 62q66 0 112 -28l-275 -600q-22 31 -34 73q-13 42 -14 94q-2 74 -2 114q-1 51 2 108z" />
    <glyph glyph-name="ugrave" unicode="&#xf9;" horiz-adv-x="1006" 
d="M735 0h164v928h-164v-578q0 -60 -18 -106q-18 -47 -49 -78q-32 -32 -72 -48q-41 -16 -90 -16t-88 16q-41 17 -71 48q-31 32 -47 78q-17 48 -17 106v578h-162v-566q0 -78 21 -146q19 -67 62 -117q42 -49 107 -78q66 -29 154 -29q192 0 270 109v-101zM660 1036l-262 203
h-162l311 -203h113z" />
    <glyph glyph-name="uacute" unicode="&#xfa;" horiz-adv-x="1014" 
d="M735 0h164v928h-164v-578q0 -60 -18 -106q-18 -47 -49 -78q-32 -32 -72 -48q-41 -16 -90 -16t-88 16q-41 17 -71 48q-31 32 -47 78q-17 48 -17 106v578h-162v-566q0 -78 21 -146q19 -67 62 -117q42 -49 107 -78q66 -29 154 -29q192 0 270 109v-101zM598 1245l-262 -203
h113l311 203h-162z" />
    <glyph glyph-name="ucircumflex" unicode="&#xfb;" horiz-adv-x="1014" 
d="M735 0h164v928h-164v-578q0 -60 -18 -106q-18 -47 -49 -78q-32 -32 -72 -48q-41 -16 -90 -16t-88 16q-41 17 -71 48q-31 32 -47 78q-17 48 -17 106v578h-162v-566q0 -78 21 -146q19 -67 62 -117q42 -49 107 -78q66 -29 154 -29q192 0 270 109v-101zM494 1250h-27
l-221 -203h92l143 160l123 -160h90z" />
    <glyph glyph-name="udieresis" unicode="&#xfc;" horiz-adv-x="1026" 
d="M735 0h164v928h-164v-578q0 -60 -18 -106q-18 -47 -49 -78q-32 -32 -72 -48q-41 -16 -90 -16t-88 16q-41 17 -71 48q-31 32 -47 78q-17 48 -17 106v578h-162v-566q0 -78 21 -146q19 -67 62 -117q42 -49 107 -78q66 -29 154 -29q192 0 270 109v-101zM277 1148
q0 -32 23 -55t54 -23q32 0 55 23t23 55t-23 55q-22 22 -55 22q-32 0 -54 -22q-23 -23 -23 -55zM547 1148q0 -32 23 -55t55 -23t55 23t23 55t-23 55q-22 22 -55 22t-55 -22q-23 -23 -23 -55z" />
    <glyph glyph-name="yacute" unicode="&#xfd;" horiz-adv-x="766" 
d="M250 -260h158l378 1188h-153l-205 -645l-256 645h-176l375 -826zM483 1251l-262 -203h113l311 203h-162z" />
    <glyph glyph-name="thorn" unicode="&#xfe;" horiz-adv-x="822" 
d="M130 1063v-1063h127v297q71 -72 178 -72q76 0 136 23q58 22 96 65q37 39 55 98q16 57 15 126q-5 146 -83 226q-80 80 -219 80q-106 0 -178 -75v295h-127zM260 544q6 94 49 147q43 54 126 54t125 -54q43 -55 47 -147q2 -45 -5 -81q-7 -37 -28 -71q-20 -32 -54 -51
q-35 -20 -85 -20q-57 0 -92 23t-54 56t-25 73q-6 37 -4 71z" />
    <glyph glyph-name="ydieresis" unicode="&#xff;" horiz-adv-x="758" 
d="M371 102l-121 -362h158l378 1188h-153l-205 -645l-256 645h-176zM204 1159q0 -32 23 -55t54 -23q32 0 55 23t23 55t-23 55q-22 22 -55 22q-32 0 -54 -22q-23 -23 -23 -55zM474 1159q0 -32 23 -55t55 -23t55 23t23 55t-23 55q-22 22 -55 22t-55 -22q-23 -23 -23 -55z" />
    <glyph glyph-name="OE" unicode="&#x152;" horiz-adv-x="1630" 
d="M562 1287q-213 0 -327 -128q-114 -126 -122 -379q-2 -98 -2 -149q0 -55 2 -135q11 -260 123 -381q113 -122 324 -122q51 0 94 10q44 9 85 27q41 19 72 43q33 25 56 54v-127h666v133h-519v485h448v132h-448v395h519v133h-666v-130q-48 62 -128 101q-81 38 -177 38z
M852 465q-6 -172 -79 -263q-73 -93 -213 -93q-141 0 -212 93q-73 92 -77 263q-1 41 -3 87q-1 31 -1 93q0 61 1 91q2 48 3 83q4 81 25 149q20 66 55 110t87 68q54 23 122 23q141 0 211 -91q71 -92 81 -259q1 -35 3 -83v-91q0 -62 -1 -93q0 -15 -0.5 -44t-1.5 -43z" />
    <glyph glyph-name="oe" unicode="&#x153;" horiz-adv-x="1532" 
d="M1450 287h-161q-2 -34 -13 -63q-14 -32 -37 -54q-26 -25 -60 -38q-37 -14 -84 -14q-105 0 -167 72q-60 69 -71 225h605q0 143 -26 245q-25 99 -74 163q-48 61 -116 90q-66 28 -151 28q-102 0 -180 -42t-129 -135q-47 89 -124 132q-79 44 -185 44q-172 0 -266 -94
q-96 -94 -103 -277q-2 -72 -2 -109q0 -42 2 -100q8 -188 104 -277q95 -90 265 -90q107 0 185 42q76 40 123 127q49 -90 129 -129q79 -40 181 -40q162 0 247 73q85 72 108 221zM266 578q7 115 59 177q50 62 152 62q101 0 157 -62q54 -61 60 -177q3 -51 3 -108q0 -58 -3 -114
q-4 -114 -60 -179q-55 -64 -157 -64t-154 64q-53 65 -57 179q-2 74 -2 114q-1 51 2 108zM1095 817q45 0 80 -13t63 -47t44 -89q17 -58 23 -141h-448q7 153 70 222q62 68 168 68z" />
    <glyph glyph-name="Scaron" unicode="&#x160;" horiz-adv-x="1032" 
d="M488 1411h47l190 215h-114l-99 -170l-98 170h-119zM503 1296q-87 0 -157 -22q-71 -22 -124 -63q-55 -42 -82 -95q-30 -56 -30 -123q0 -63 22 -113q23 -53 67 -95q46 -46 114 -86q64 -40 162 -85q55 -24 106 -54t83 -61q34 -35 54 -75q19 -41 19 -96q0 -105 -61 -160
q-62 -57 -177 -57q-40 0 -84 14q-42 13 -76 44q-33 29 -55 77q-22 45 -22 114h-170q-3 -102 31 -172q35 -73 92 -116q56 -46 132 -67q73 -21 152 -21q85 0 157 22q76 23 130 64q56 41 89 102q32 61 32 137q0 84 -28 147q-29 65 -76 113q-50 51 -112 89q-67 39 -137 71
q-87 41 -132 68q-56 32 -87 61q-34 31 -47 63q-14 33 -14 72q0 41 18 75q17 32 50 59q32 26 73 39q42 14 88 14q61 0 108 -21q45 -21 75 -57t45 -85q14 -51 14 -104h164q2 89 -24 160q-26 73 -76 121q-52 49 -128 76q-78 26 -178 26z" />
    <glyph glyph-name="scaron" unicode="&#x161;" horiz-adv-x="774" 
d="M373 1031h47l190 215h-114l-99 -170l-98 170h-119zM374 108q-64 0 -102 39q-39 40 -43 105h-157q10 -124 91 -192q80 -68 214 -68q73 0 133 16q63 15 105 46q44 30 69 76q25 44 25 106q0 60 -21 102q-20 40 -56 73q-34 31 -80 54l-29 14.5l-35 17l-31 14.5q-44 20 -92 45
q-39 20 -67 42q-28 21 -42 44t-14 50t9 54q10 27 28 47q18 19 47 33q27 13 67 13q34 0 67 -14q32 -16 53 -37t35 -51q13 -27 13 -55h144q1 68 -23 119q-26 51 -68 81q-44 32 -101 47t-120 15t-117 -16q-57 -17 -97 -45q-41 -30 -65 -71q-24 -40 -24 -91q0 -65 22 -108
q22 -45 58 -77q34 -33 86 -61l106 -57q71 -37 85 -43q36 -18 60 -36q24 -21 35 -44q11 -27 11 -64q0 -40 -14 -65q-13 -23 -38 -37q-23 -12 -57 -17q-29 -4 -70 -4z" />
    <glyph glyph-name="Ydieresis" unicode="&#x178;" horiz-adv-x="805" 
d="M684 1278l-272 -612l-266 612h-187l373 -729v-549h162v549l373 729h-183zM195 1494q0 -32 23 -55t54 -23q32 0 55 23t23 55t-23 55q-22 22 -55 22q-32 0 -54 -22q-23 -23 -23 -55zM465 1494q0 -32 23 -55t55 -23t55 23t23 55t-23 55q-22 22 -55 22t-55 -22
q-23 -23 -23 -55z" />
    <glyph glyph-name="Zcaron" unicode="&#x17d;" horiz-adv-x="956" 
d="M503 1381h47l190 215h-114l-99 -170l-98 170h-119zM889 1278h-803l-1 -133h558l-582 -1145h803v133h-559z" />
    <glyph glyph-name="zcaron" unicode="&#x17e;" horiz-adv-x="670" 
d="M333 1031h47l190 215h-114l-99 -170l-98 170h-119zM635 0v127h-384l408 801h-616v-127h384l-409 -801h617z" />
    <glyph glyph-name="florin" unicode="&#x192;" horiz-adv-x="465" 
d="M123 715v-799q0 -28 -2 -68q-1 -30 -11 -52q-9 -21 -26 -34q-18 -12 -49 -12h-49v-119h80q54 0 93 15q38 13 64 48q24 33 36 88q11 58 11 136v797h133v114h-131v199q0 74 30 108q28 33 71 33h112v109h-168q-40 0 -73 -10q-34 -10 -62 -40q-26 -27 -43 -80
q-16 -51 -16 -134v-185h-123v-114h123z" />
    <glyph glyph-name="circumflex" unicode="&#x2c6;" horiz-adv-x="694" 
d="M365 1416h-27l-211 -203h92l133 160l133 -160h90z" />
    <glyph glyph-name="tilde" unicode="&#x2dc;" horiz-adv-x="549" 
d="M72 1309v-72q12 8 22 20q9 10 27 25q14 10 36 22q20 9 46 9q33 0 53 -11q26 -16 37 -25q22 -18 35 -25q19 -11 49 -11q22 0 43 8q20 8 34 19q16 12 25 24l19 25v63l-11.5 -8.5t-10.5 -8.5q-10 -9 -27 -19q-15 -9 -33 -15q-20 -6 -43 -6q-21 0 -37 12q-5 3 -11 7t-13 9.5
t-12 8.5q-23 16 -42 26q-24 11 -55 11q-23 0 -43 -9q-24 -13 -35 -23q-11 -9 -29 -29z" />
    <glyph glyph-name="HEBREWPOINTSHEVA" unicode="&#x5b0;" horiz-adv-x="129" 
d="M21 -133q-35 0 -52 -21q-18 -23 -18 -47q0 -27 21 -47q20 -20 49 -20q26 0 48 20q20 20 20 47q0 29 -20 49q-20 19 -48 19zM21 -342q-31 0 -50 -19q-20 -20 -20 -49q0 -28 21 -48q19 -19 49 -19q28 0 48 19q20 20 20 48q0 29 -20 49q-20 19 -48 19z" />
    <glyph glyph-name="HEBREWPOINTHATAFSEGO" unicode="&#x5b1;" horiz-adv-x="333" 
d="M-186 -133q-33 0 -50 -21q-17 -23 -17 -47q0 -28 19 -47q20 -20 48 -20q29 0 49 20q19 19 19 47q0 30 -19 49t-49 19zM27 -133q-29 0 -48 -18q-19 -19 -19 -50q0 -27 20 -47t47 -20q30 0 50 20q18 19 18 47q0 35 -21 52q-20 16 -47 16zM226 -133q-31 0 -49 -18
q-19 -19 -19 -50q0 -26 20 -46q20 -21 48 -21t48 20q19 19 19 47q0 24 -17 47q-16 21 -50 21zM-81 -312q-31 0 -49 -21q-19 -22 -19 -47q0 -28 21 -48q20 -19 47 -19q29 0 49 20q18 19 18 47q0 33 -20 51q-22 17 -47 17zM226 -322q-31 0 -49 -19q-19 -19 -19 -49
q0 -33 22 -49q22 -18 46 -18q29 0 48 19t19 48q0 32 -20 50q-21 18 -47 18z" />
    <glyph glyph-name="HEBREWPOINTHATAFPATA" unicode="&#x5b2;" horiz-adv-x="304" 
d="M199 -133q-29 0 -48 -19q-20 -20 -20 -49q0 -27 19 -46q18 -21 49 -21q33 0 49 22q16 20 16 45t-16 47q-16 21 -49 21zM-243 -227h301v86h-301v-86zM199 -342q-35 0 -51 -21q-17 -22 -17 -47q0 -32 20 -49q19 -18 48 -18q33 0 49 22q16 20 16 45q0 32 -21 50t-44 18z" />
    <glyph glyph-name="HEBREWPOINTHATAFQAMA" unicode="&#x5b3;" horiz-adv-x="294" 
d="M189 -133q-29 0 -48 -19q-20 -20 -20 -49q0 -27 19 -46q18 -21 49 -21q33 0 49 22q16 20 16 45t-16 47q-16 21 -49 21zM-202 -382h94v157h126v84h-351v-84h131v-157zM189 -342q-35 0 -51 -21q-17 -22 -17 -47q0 -32 20 -49q19 -18 48 -18q33 0 49 22q16 20 16 45
q0 32 -21 50t-44 18z" />
    <glyph glyph-name="HEBREWPOINTHIRIQ" unicode="&#x5b4;" horiz-adv-x="136" 
d="M21 -142q-20 0 -34 -6q-16 -9 -24 -17q-9 -9 -14 -24t-5 -27q0 -33 23 -54t54 -21t53 21t22 54q0 32 -22 53t-53 21z" />
    <glyph glyph-name="HEBREWPOINTTSERE" unicode="&#x5b5;" horiz-adv-x="231" 
d="M-83 -145q-31 0 -49 -19q-19 -19 -19 -48q0 -30 18 -49t50 -19q26 0 46 20q19 19 19 48q0 16 -6 29q-6 12 -15 21q-14 10 -21 13q-11 4 -23 4zM123 -145q-28 0 -48 -20q-19 -20 -19 -47q0 -17 7 -28q6 -13 16 -22q8 -8 21 -13t23 -5q32 0 50 19t18 49q0 23 -17 46
q-18 21 -51 21z" />
    <glyph glyph-name="HEBREWPOINTSEGOL" unicode="&#x5b6;" horiz-adv-x="231" 
d="M-83 -139q-31 0 -49 -18q-19 -19 -19 -48t18 -48t50 -19q26 0 46 20q19 19 19 47q0 33 -21 50q-22 16 -44 16zM123 -139q-28 0 -48 -20q-19 -19 -19 -46q0 -17 7 -28q6 -14 16 -21q8 -8 21 -13t23 -5q32 0 50 19t18 48q0 24 -17 46q-18 20 -51 20zM21 -307q-31 0 -50 -19
q-20 -20 -20 -49q0 -27 21 -47q20 -20 49 -20q26 0 48 20q20 20 20 47q0 29 -20 49q-20 19 -48 19z" />
    <glyph glyph-name="HEBREWPOINTPATAH" unicode="&#x5b7;" horiz-adv-x="783" 
d="M421 -243h322v89h-322v-89z" />
    <glyph glyph-name="HEBREWPOINTQAMATS" unicode="&#x5b8;" horiz-adv-x="241" 
d="M-26 -409h92v175h135v82h-362v-82h135v-175z" />
    <glyph glyph-name="HEBREWPOINTHOLAM" unicode="&#x5b9;" horiz-adv-x="135" 
d="M20 1330q-30 0 -52 -19q-23 -20 -23 -54q0 -31 22 -52q21 -21 53 -21t54 21q21 21 21 50q0 31 -19 53t-56 22z" />
    <glyph glyph-name="HEBREWPOINTQUBUTS" unicode="&#x5bb;" horiz-adv-x="259" 
d="M-114 -93q-15 0 -27 -6q-13 -6 -20 -15q-8 -9 -13 -21q-5 -13 -5 -24q0 -29 18 -48t47 -19q30 0 49 19t19 48t-19 48q-19 18 -49 18zM21 -216q-31 0 -50 -18q-20 -18 -20 -49q0 -29 21 -48q20 -20 49 -20q26 0 48 20q20 20 20 48t-20 48q-20 19 -48 19zM151 -334
q-26 0 -45 -19q-20 -20 -20 -48q0 -29 18 -48q18 -20 47 -20t49 20q19 19 19 48t-19 48t-49 19z" />
    <glyph glyph-name="HEBREWPOINTDAGESHORM" unicode="&#x5bc;" horiz-adv-x="135" 
d="M20 650q-30 0 -52 -19q-23 -20 -23 -54q0 -31 22 -52q21 -21 53 -21t54 21q21 21 21 50q0 31 -19 53t-56 22z" />
    <glyph glyph-name="HEBREWPOINTMETEG" unicode="&#x5bd;" horiz-adv-x="102" 
d="M-22 -150v-303h84v303h-84z" />
    <glyph glyph-name="HEBREWPUNCTUATIONMAQ" unicode="&#x5be;" horiz-adv-x="614" 
d="M555 1061h-494v-145h494v145z" />
    <glyph glyph-name="HEBREWPUNCTUATIONPAS" unicode="&#x5c0;" horiz-adv-x="138" 
d="M-57 0h155v1061h-155v-1061z" />
    <glyph glyph-name="HEBREWPOINTSHINDOT" unicode="&#x5c1;" horiz-adv-x="135" 
d="M20 1330q-30 0 -52 -19q-23 -20 -23 -54q0 -31 22 -52q21 -21 53 -21t54 21q21 21 21 50q0 31 -19 53t-56 22z" />
    <glyph glyph-name="HEBREWPOINTSINDOT" unicode="&#x5c2;" horiz-adv-x="135" 
d="M20 1330q-30 0 -52 -19q-23 -20 -23 -54q0 -31 22 -52q21 -21 53 -21t54 21q21 21 21 50q0 31 -19 53t-56 22z" />
    <glyph glyph-name="HEBREWLETTERALEF" unicode="&#x5d0;" horiz-adv-x="1094" 
d="M813 0h198l-291 420q128 15 200 98q71 83 71 238v305h-177v-350q0 -45 -12 -76q-12 -32 -34 -54q-22 -23 -54 -36q-29 -13 -71 -19l-349 535h-186l232 -348q-74 -17 -115 -50q-43 -33 -70 -82q-26 -50 -35 -106q-10 -56 -10 -121v-354h180l-3 416q0 76 30 126
q30 49 92 66z" />
    <glyph glyph-name="HEBREWLETTERBET" unicode="&#x5d1;" horiz-adv-x="1007" 
d="M955 145h-139v916h-719v-148h535v-768h-535v-145h858v145z" />
    <glyph glyph-name="HEBREWLETTERGIMEL" unicode="&#x5d2;" horiz-adv-x="664" 
d="M396 239h4l33 -239h162l-135 1061h-354v-148h204q12 -100 19 -149l9 -66q2 -11 4.5 -33.5t3.5 -34.5q1 -11 3.5 -33.5t4.5 -34.5q2 -15 7 -62q1 -7 2 -20t2 -20q1 -13 1 -40q0 -56 -12 -103q-12 -48 -40 -82q-29 -35 -76 -55q-49 -20 -118 -20h-78v-160h61q64 0 115 17
q48 16 86 49q36 33 58 75q24 46 34 98z" />
    <glyph glyph-name="HEBREWLETTERDALET" unicode="&#x5d3;" horiz-adv-x="954" 
d="M571 0h189v913h108v148h-802v-148h505v-913z" />
    <glyph glyph-name="HEBREWLETTERHE" unicode="&#x5d4;" horiz-adv-x="1090" 
d="M133 582v-582h180v582h-180zM940 1061h-815v-148h635v-913h180v1061z" />
    <glyph glyph-name="HEBREWLETTERVAV" unicode="&#x5d5;" horiz-adv-x="499" 
d="M346 1061h-188v-1061h188v1061z" />
    <glyph glyph-name="HEBREWLETTERZAYIN" unicode="&#x5d6;" horiz-adv-x="715" 
d="M352 0h176q-12 56 -27 136l-28 147l-34 179l-28 151q-13 65 -13 125q0 48 12 92q13 44 43 83h186v148h-567v-148h254q-51 -38 -69 -92q-19 -54 -19 -124q0 -60 10 -121q5 -35 20 -130l27 -146q13 -74 27 -145z" />
    <glyph glyph-name="HEBREWLETTERHET" unicode="&#x5d7;" horiz-adv-x="1096" 
d="M631 1061h-486v-1061h181v913h295q55 0 89 -22q33 -23 51 -60t24 -89q6 -51 6 -109v-633h184v612q0 105 -13 184q-14 86 -50 142q-38 60 -105 91q-69 32 -176 32z" />
    <glyph glyph-name="HEBREWLETTERTET" unicode="&#x5d8;" horiz-adv-x="1128" 
d="M989 1061h-418v-148h240v-301q0 -154 -22 -243q-23 -91 -66 -141q-44 -50 -104 -66q-63 -17 -138 -17h-118l-87 916h-186l104 -1061h295q113 0 203 28q94 29 158 92q66 64 103 169q36 105 36 260v512z" />
    <glyph glyph-name="HEBREWLETTERYOD" unicode="&#x5d9;" horiz-adv-x="498" 
d="M350 1062h-188v-550h188v550z" />
    <glyph glyph-name="HEBREWLETTERFINALKAF" unicode="&#x5da;" horiz-adv-x="821" 
d="M688 1061h-629v-148h443v-1173h186v1321z" />
    <glyph glyph-name="HEBREWLETTERKAF" unicode="&#x5db;" horiz-adv-x="915" 
d="M395 1061h-299v-148h307q52 0 97 -14q42 -14 74 -48q31 -36 47 -88q16 -54 16 -134v-207q0 -77 -17 -131q-16 -54 -47 -86q-33 -33 -74 -46q-45 -14 -96 -14h-305v-145h297q209 0 318 105q110 104 110 319v211q0 219 -105 322q-106 104 -323 104z" />
    <glyph glyph-name="HEBREWLETTERLAMED" unicode="&#x5dc;" horiz-adv-x="899" 
d="M864 1061h-624v217h-160v-365h543l-328 -913h180z" />
    <glyph glyph-name="HEBREWLETTERFINALMEM" unicode="&#x5dd;" horiz-adv-x="1092" 
d="M971 0v659q0 97 -17 176q-18 76 -60 125q-43 51 -111 76t-171 25h-485v-1061h844zM800 650v-504h-498v767h294q70 0 112 -20q41 -21 62 -56q21 -38 25 -84q5 -53 5 -103z" />
    <glyph glyph-name="HEBREWLETTERMEM" unicode="&#x5de;" horiz-adv-x="1090" 
d="M506 145v-145h467v545q0 130 -18 227q-20 99 -65 161q-47 65 -124 96q-81 32 -199 32h-467v-148h172l-200 -913h184l193 913h126q66 0 111 -20q42 -19 68 -56q25 -37 34 -88q9 -52 9 -116v-488h-291z" />
    <glyph glyph-name="HEBREWLETTERFINALNUN" unicode="&#x5df;" horiz-adv-x="504" 
d="M344 1061h-188v-1321h188v1321z" />
    <glyph glyph-name="HEBREWLETTERNUN" unicode="&#x5e0;" horiz-adv-x="641" 
d="M190 145h-118v-145h161q65 0 116 21q52 22 85 61q34 40 52 96t18 127v756h-326v-148h144v-596q0 -51 -6 -84q-7 -34 -22 -53q-15 -20 -40 -27q-27 -8 -64 -8z" />
    <glyph glyph-name="HEBREWLETTERSAMEKH" unicode="&#x5e1;" horiz-adv-x="1092" 
d="M977 1061h-877l131 -1061h242q113 0 204 28q94 29 160 92q66 64 103 169q37 104 37 260v512zM807 913v-319q0 -98 -11 -173q-10 -72 -32 -123q-21 -50 -51 -80q-31 -29 -69 -46q-40 -18 -83 -22q-52 -5 -98 -5h-69l-94 768h507z" />
    <glyph glyph-name="HEBREWLETTERAYIN" unicode="&#x5e2;" horiz-adv-x="1040" 
d="M918 1061h-179v-496q0 -96 -21 -158q-22 -65 -58 -104q-38 -43 -90 -68q-49 -25 -115 -51l-162 877h-191l187 -932l-295 -104l45 -139l179 62l75 27q10 4 35.5 12.5t38.5 13.5q46 16 67 24l29 10.5t25 8.5q128 46 208 100q84 55 133 123q49 69 69 156q20 89 20 198v440z
" />
    <glyph glyph-name="HEBREWLETTERFINALPE" unicode="&#x5e3;" horiz-adv-x="995" 
d="M862 -260v907q0 107 -24 187q-24 78 -75 129q-53 50 -132 74q-81 24 -193 24h-313v-578h181v430h143q57 0 103 -11q42 -12 69 -42q26 -29 40 -81q13 -49 13 -130v-909h188z" />
    <glyph glyph-name="HEBREWLETTERPE" unicode="&#x5e4;" horiz-adv-x="1104" 
d="M524 1061h-370v-572h179v424h199q52 0 98 -11q41 -11 74 -41q32 -30 48 -81q16 -49 16 -129v-237q0 -76 -17 -130q-16 -51 -48 -83q-31 -31 -75 -43q-42 -13 -96 -13h-376v-145h368q210 0 319 105q109 103 109 319v211q0 219 -105 322q-106 104 -323 104z" />
    <glyph glyph-name="HEBREWLETTERFINALTSA" unicode="&#x5e5;" horiz-adv-x="961" 
d="M672 1061v-268q0 -83 -15 -142q-16 -61 -49 -97q-34 -38 -90 -57t-135 -21l-125 585h-170l285 -1321h172l-131 602q102 9 185 41q79 31 135 87t84 138q28 80 28 191v262h-174z" />
    <glyph glyph-name="HEBREWLETTERTSADI" unicode="&#x5e6;" horiz-adv-x="1075" 
d="M956 731v330h-176v-334q0 -75 -39 -123q-41 -50 -132 -66l-347 523h-203l606 -916h-528v-145h815l-274 418q66 12 119 42q52 29 88 72t53 94q18 51 18 105z" />
    <glyph glyph-name="HEBREWLETTERQOF" unicode="&#x5e7;" horiz-adv-x="1130" 
d="M985 1061h-881v-148h697v-361q0 -137 -18 -218q-20 -83 -56 -123q-38 -42 -94 -54q-57 -12 -133 -12h-15v-145h25q113 0 200 25q87 24 149 84q61 59 94 161q32 102 32 254v537zM143 668v-928h168v928h-168z" />
    <glyph glyph-name="HEBREWLETTERRESH" unicode="&#x5e8;" horiz-adv-x="899" 
d="M424 1061h-330v-148h320q56 0 91 -26q36 -26 55 -68q20 -44 27 -98q7 -52 7 -115v-606h186v594q0 98 -14 187q-15 85 -54 148q-42 63 -109 97q-72 35 -179 35z" />
    <glyph glyph-name="HEBREWLETTERSHIN" unicode="&#x5e9;" horiz-adv-x="1331" 
d="M1014 1061v-555q0 -101 -26 -171q-25 -68 -73 -111q-47 -42 -114 -60t-148 -18h-275l-86 915h-175l98 -1061h459q250 0 382 136t132 411v514h-174zM745 1061h-168v-668h168v668z" />
    <glyph glyph-name="HEBREWLETTERTAV" unicode="&#x5ea;" horiz-adv-x="1176" 
d="M680 1061h-549v-148h115v-768h-193v-145h370v913h245q58 0 96 -21q37 -21 58 -58q21 -38 29 -88q7 -48 7 -109v-637h180v602q0 100 -15 186q-17 85 -56 145q-40 60 -109 94t-178 34z" />
    <glyph glyph-name="ENQUAD" unicode="&#x2000;" horiz-adv-x="827" 
 />
    <glyph glyph-name="EMQUAD" unicode="&#x2001;" horiz-adv-x="1654" 
 />
    <glyph glyph-name="ENSPACE" unicode="&#x2002;" horiz-adv-x="827" 
 />
    <glyph glyph-name="EMSPACE" unicode="&#x2003;" horiz-adv-x="1654" 
 />
    <glyph glyph-name="THREE-PER-EMSPACE" unicode="&#x2004;" horiz-adv-x="551" 
 />
    <glyph glyph-name="FOUR-PER-EMSPACE" unicode="&#x2005;" horiz-adv-x="413" 
 />
    <glyph glyph-name="SIX-PER-EMSPACE" unicode="&#x2006;" horiz-adv-x="275" 
 />
    <glyph glyph-name="FIGURESPACE" unicode="&#x2007;" horiz-adv-x="275" 
 />
    <glyph glyph-name="PUNCTUATIONSPACE" unicode="&#x2008;" horiz-adv-x="206" 
 />
    <glyph glyph-name="THINSPACE" unicode="&#x2009;" horiz-adv-x="330" 
 />
    <glyph glyph-name="HAIRSPACE" unicode="&#x200a;" horiz-adv-x="91" 
 />
    <glyph glyph-name="HYPHEN" unicode="&#x2010;" horiz-adv-x="803" 
d="M688 601h-588v-140h588v140z" />
    <glyph glyph-name="NON-BREAKINGHYPHEN" unicode="&#x2011;" horiz-adv-x="803" 
d="M688 601h-588v-140h588v140z" />
    <glyph glyph-name="figuredash" unicode="&#x2012;" horiz-adv-x="803" 
d="M688 601h-588v-140h588v140z" />
    <glyph glyph-name="endash" unicode="&#x2013;" horiz-adv-x="1094" 
d="M1062 587h-1042v-113h1042v113z" />
    <glyph glyph-name="emdash" unicode="&#x2014;" horiz-adv-x="2163" 
d="M2120 574h-2067v-92h2067v92z" />
    <glyph glyph-name="quoteleft" unicode="&#x2018;" horiz-adv-x="428" 
d="M92 760h70l147 313v131h-137z" />
    <glyph glyph-name="quoteright" unicode="&#x2019;" horiz-adv-x="426" 
d="M92 760h70l147 313v131h-137z" />
    <glyph glyph-name="quotesinglbase" unicode="&#x201a;" horiz-adv-x="428" 
d="M92 760h70l147 313v131h-137z" />
    <glyph glyph-name="quotedblleft" unicode="&#x201c;" horiz-adv-x="618" 
d="M157 1203l-72 -438h63l131 309v129h-122zM397 1203l-71 -438h62l130 309v129h-121z" />
    <glyph glyph-name="quotedblright" unicode="&#x201d;" horiz-adv-x="635" 
d="M157 1203l-72 -438h63l131 309v129h-122zM397 1203l-71 -438h62l130 309v129h-121z" />
    <glyph glyph-name="quotedblbase" unicode="&#x201e;" horiz-adv-x="625" 
d="M157 1203l-72 -438h63l131 309v129h-122zM397 1203l-71 -438h62l130 309v129h-121z" />
    <glyph glyph-name="dagger" unicode="&#x2020;" horiz-adv-x="768" 
d="M-33 752l430 -750l219 379l213 371h-862zM649 647l-248 -436l-251 436h499z" />
    <glyph glyph-name="daggerdbl" unicode="&#x2021;" horiz-adv-x="811" 
d="M827 252l-430 749l-432 -749h862zM145 356l248 437l252 -437h-500z" />
    <glyph glyph-name="bullet" unicode="&#x2022;" horiz-adv-x="659" 
d="M98 527q0 -47 18 -88q17 -41 48 -71q32 -32 72 -48q40 -18 88 -18t88 18q40 16 72 48q30 30 48 71q17 42 17 88t-17 88q-18 41 -48 72q-32 30 -72 48q-42 17 -88 17t-88 -17q-40 -18 -72 -48q-32 -31 -48 -72q-18 -41 -18 -88z" />
    <glyph glyph-name="ellipsis" unicode="&#x2026;" horiz-adv-x="1612" 
d="M199 0h203v197h-203v-197zM687 0h203v197h-203v-197zM1209 0h203v197h-203v-197z" />
    <glyph glyph-name="NARROWNO-BREAKSPACE" unicode="&#x202f;" horiz-adv-x="330" 
 />
    <glyph glyph-name="perthousand" unicode="&#x2030;" horiz-adv-x="1200" 
d="M163 0l613 1061h-67l-615 -1061h69zM245 1066q-82 0 -126 -44q-44 -46 -44 -133v-189q0 -88 44 -135t126 -47q83 0 127 47q43 46 43 135v189q0 89 -43 133q-44 44 -127 44zM245 588q-19 0 -33 9q-13 6 -25 22q-10 13 -15 32q-6 18 -6 37v213q0 45 21 70q20 24 58 24
q39 0 60 -26q21 -28 20 -68v-213q1 -42 -20 -71t-60 -29zM630 542q-82 0 -126 -45q-44 -46 -44 -133v-190q0 -88 44 -135t126 -47q83 0 127 47t44 135v190q0 87 -44 133q-43 45 -127 45zM630 62q-20 0 -33 9q-13 6 -25 22q-10 13 -15 32q-6 18 -6 38v213q0 44 21 70
q19 25 58 25t60 -27q21 -28 20 -68v-213q1 -42 -20 -71q-21 -30 -60 -30zM1019 542q-83 0 -126 -45q-44 -46 -44 -133v-190q0 -88 44 -135t126 -47q83 0 127 47t44 135v190q0 87 -44 133q-44 45 -127 45zM1019 62q-19 0 -33 9q-13 6 -25 22q-10 13 -15 32q-6 18 -6 38v213
q0 44 21 70q19 25 58 25t60 -27q21 -28 20 -68v-213q1 -42 -20 -71q-21 -30 -60 -30z" />
    <glyph glyph-name="guilsinglleft" unicode="&#x2039;" horiz-adv-x="689" 
d="M41 570v-73l551 -273v116l-416 191l416 193v119z" />
    <glyph glyph-name="guilsinglright" unicode="&#x203a;" horiz-adv-x="719" 
d="M642 497v73l-551 273v-119l416 -193l-416 -191v-116z" />
    <glyph glyph-name="MEDIUMMATHEMATICALSP" unicode="&#x205f;" horiz-adv-x="413" 
 />
    <glyph glyph-name="NEWSHEQELSIGN" unicode="&#x20aa;" horiz-adv-x="1597" 
d="M1083 344v436q0 132 -76 207q-77 74 -216 74h-635v-1061h173v916h433q43 -2 70 -10q28 -9 45 -27q18 -22 25 -47q7 -27 7 -68v-420h174zM535 0h612q140 5 217 76q78 70 78 205v780h-176v-764q0 -40 -8 -70q-9 -29 -27 -47q-19 -19 -46 -26q-29 -8 -67 -9h-412v572h-171
v-717z" />
    <glyph glyph-name="Euro" unicode="&#x20ac;" horiz-adv-x="913" 
d="M41 567v-100h133l-1 -123q0 -89 20 -158t63 -112q44 -44 112 -66q66 -22 167 -22q68 0 121 14q52 14 86 36q36 24 57 50q21 29 33 58q10 28 15 58q3 18 5 50h-135q0 -37 -10 -67q-11 -33 -33 -55t-57 -36q-36 -14 -82 -14q-43 0 -79 10q-40 11 -69 37q-30 27 -48 76
q-19 47 -19 125l-1 139h209v100h-209v129h209v101h-209l2 176q0 71 22 112q21 42 53 65q33 24 70 31q35 7 69 7q47 0 82 -9q32 -10 55 -30q21 -20 32 -50q10 -30 13 -73h133q0 18 -3 45q-3 25 -14 55q-10 28 -31 58q-21 28 -56 51q-37 24 -87 37q-54 14 -124 14
q-99 0 -168 -24q-68 -24 -112 -71q-43 -46 -63 -116q-20 -71 -20 -160v-118h-131v-101h131v-129h-131z" />
    <glyph glyph-name="trademark" unicode="&#x2122;" horiz-adv-x="1092" 
d="M37 1198h115v-440h104v440h104v80h-323v-80zM866 1278l-147 -306l-139 306h-140v-520h88v435l144 -320h98l142 320v-435h85v520h-131z" />
    <glyph glyph-name="arrowleft" unicode="&#x2190;" horiz-adv-x="2048" 
d="M498 823h-115l-303 -295l303 -285h117l-267 248h1715v82h-1715z" />
    <glyph glyph-name="arrowright" unicode="&#x2192;" horiz-adv-x="2048" 
d="M1646 823h-115l265 -250h-1715v-82h1715l-267 -248h117l303 285z" />
    <glyph glyph-name="minus" unicode="&#x2212;" horiz-adv-x="793" 
d="M688 601h-588v-140h588v140z" />
    <glyph glyph-name="BLACKMEDIUMSQUARE" unicode="&#x25fc;" horiz-adv-x="930" 
d="M0 930v-930h930v930h-930z" />
    <glyph glyph-name="PEACESYMBOL" unicode="&#x262e;" horiz-adv-x="931" 
d="M39 757v-662h850v823h-850v-153v-8zM206 517v7h31v-3h34v-7h-5v-1h31v-12h-156v-11h-4v11h-16v16h14v1h2v-1h1v1h1v-1h1v1h5v-1h3v1h5v-1h8v1h1v-1h7v1h15v16h-23v71h5v-39h4v-10h20v-2h11v-4h-3v-10h3v-14h-9v-2h9v-7h5zM826 771v31h3v19h-3v52h-12v-52h-2v40h-9v-40h-5
v44h-3v-44h-10v28h1v1h-1v30h-2v-30h-11v6h3v15h-3v14h67v-25h-7v-2h7v-30h-2v-2h2v-13h-2v-8h2v-11h-2v-7h2v-16h-13zM533 130v5h9v3h4v21h24v17h-24v68h7v-37h3v-9h20v-3h11v-3h-4v-11h4v-14h-9v-2h9v-35h-2v9h-1v-9h-11v21h-6v-21h-34zM342 297v-9h17v-8h-11v3h-17v-3h-4
v1h-8v-1h-6v5h4v2h-4v22h4v30h-4v27h6v-24h8v24h4v-33h25v-24h3v-12h-17zM720 297v-9h16v-8h-10v3h-18v-3h-3v1h-8v-1h-6v5h5v2h-5v22h5v30h-5v27h6v-24h8v24h3v-33h26v-24h2v-12h-16zM712 655v-9h17v-6h-11v2h-17v-2h-18v3h5v3h-5v21h5v31h-5v27h6v-25h8v25h4v-34h25v-24h3
v-12h-17zM291 412h-4v7h-4v-7h-4v7h-3v45h-106v6h187v2h-9v23h3v-14h2v14h6v-17h2v17h7v-23h-6v-9h7v-5h-7v-14h-5v20h-69v-36h3v-8h-3v-1h3v-7zM335 655v-9h16v-6h-10v2h-18v-2h-17v3h4v3h-4v21h4v31h-4v27h5v-25h9v25h3v-34h25v-24h3v-12h-16zM463 847h-12v33h-3v-7h-11
v-26h-2v14h-10v-14h-5v18h-2v-18h-10v2h1v1h-1v30h-3v-30h-10v6h1v15h-1v14h68v-38zM592 130v35h31v-3h37v-4h3v-3h-12v-2h-2v-3h-52v-9h13v-5h65v-1h6v-5h-89zM105 253v-3h4v-29h-9v-14h9v-54h-9v2h-2v12h4v3h-4v10h8v5h-8v11h1v6h-1v33h2v5h-2v18h3v4h-3v24h11v-33h-4z
M188 140v19h4v17h-4v22h10v-3h11v-3h-3v-11h3v-14h-10v-2h10v-17h-7v-18h-7v10h-7zM179 771h-2v1h2v18h8v-11h5v-7h4v2h18v-20h-18v17h-4v-20h-5v-13h-8v33zM574 754v17h-4v-20h-5v-13h-8v52h8v-11h5v-7h4v2h17v-20h-17zM215 144v21h31v-3h37v-4h3v-3h-13v-2h-2v-3h-52v-6
h-4zM565 412h-3v1h3v18h7v-11h6v-7h4v2h17v-20h-17v17h-4v-20h-6v-13h-7v33zM85 512h-3v9h-5v-9h-4v76h12v-76zM557 512v6h5v16h-5v22h11v-2h12v-4h-4v-10h4v-14h-10v-2h10v-12h-23zM204 395v17h-5v-20h-5v-13h-6v52h6v-11h5v-7h5v2h17v-20h-17zM233 318v40h15v-65h-3v25h-5
v-25h-4v25h-3zM739 698v15h27v-36h-17v21h-10zM547 566v-10h9v-22h-17v95h2v-3h3v-60h3zM604 677v41h14v-67h-3v26h-5v-26h-4v26h-2zM729 871h-11v9h-17v-9h-18v13h-10v-13h-3v5h-9v-5h-4v8h-5v-8h-2v9h-2v5h81v-14zM179 207v-9h8v-22h-18v74h6v-43h4zM848 571v-9h1v9h6
v-159h-4v139h2v3h-2v6h-5v-6h-4v17h6zM612 450h-47v1h47v5h-64v5h77v-3h2v-29h-2v-9h-3v32h-7v-32h-3v30zM493 885v-38h-7v28h-8v-28h-10v38h25zM475 511h3v-10h1v-7h-1v-6h-3v6h-4v-6h-11v6h-26v-6h-7v6h-2v-6h-9v7h1v6h7v9h-4v1h5v-10h35v10h3v-10h5v10h3v-10h4v10z
M233 539h7v-2h14v2h20v-7h-8v-2h-29v-4h-31v14h27v-1zM611 539h7v-2h14v2h20v-7h-9v-2h-28v-4h-31v14h27v-1zM227 677v41h13v-67h-4v26h-4v-26h-3v26h-2zM738 130v6h52v-5h3v5h17v14h-5v13h7v-25h8v25h3v-33h-85zM369 339v15h26v-36h-15v21h-11zM612 318v40h13v-65h-3v25h-4
v-25h-4v25h-2zM100 580h-8v-14h8v-54h-2v15h-5v-15h-3v76h7v6h-4v5h-3v6h10v-25zM351 871h-10v9h-18v-9h-17v13h-10v-13h-3v5h-10v-5h-4v8h-3v6h75v-14zM620 180h5v-2h14v2h21v-6h-9v-2h-28v-5h-31v14h28v-1zM241 180h7v-2h14v2h21v-6h-10v-2h-27v-5h-31v14h26v-1zM567 574
v52h13v-52h-13zM758 318v21h-11v15h26v-36h-8v7h-5v-7h-2zM114 885v-38h-5v28h-9v-28h-10v38h24zM584 512v12h31v-3h35v-7h-7v-2h-51v6h-5v-6h-3zM834 412v31h3v-19h5v98h3v5h-3v5h4v-120h-12zM201 698h-5v-14h5v-30h-11v30h4v4h-4v30h11v-20zM503 472h-14v43h14v-43z
M369 472v23h26v-23h-26zM747 495h26v-23h-26v23zM708 379h-4v32h-6v8h15v1h-15v17h18v-26h-8v-32zM190 574v52h11v-52h-11zM701 738h-5v32h-5v8h14v1h-14v17h16v-26h-6v-32zM475 174h6v3h-6v15h9v3h-9v18h2v-6h9v-54h-11v21zM69 885h16v-38h-12v33h-2v-33h-2v38zM493 580h-7
v33h2v15h-2v8h2v4h-2v21h7v-81zM457 130v6h3v16h11v-16h4v16h11v-22h-29zM726 495h3v-14h2v14h5v-17h2v17h7v-23h-6v-9h7v-5h-7v-14h-4v28h-9v23zM580 698h-5v-14h5v-14h-13v13h6v7h-6v28h13v-20zM631 438v-1h11v-9h8v-8h-19v9h-2v29h8v-4h5v-16h-11zM475 670v-9h3v-6h-10
v29h5v7h-3v7h-2v15h10v-43h-3zM209 339h-4v-15h4v-9h-13v43h13v-19zM660 357h4v3h5v-21h-5v7h-4v-7h-3v7h-7v-7h-11v19h11v-1h7v1h3v-1zM532 885v-14h-7v13h-2v-13h-6v-15h-1v27h-2v-27h-4v24h-2v-24h-5v29h29zM722 739v-9h7v-32h-11v50h11v-9h-7zM352 380v-9h7v-32h-11v50
h11v-9h-7zM154 885v-14h-6v13h-2v-13h-7v-15h-1v27h-1v-27h-5v24h-2v-24h-4v29h28zM739 831v18h27v-18h-27zM739 536v18h27v-18h-27zM353 837v12h6v-18h-5v-9h7v-5h-7v-14h-5v28h-8v18h10v-12h2zM283 357h4v3h4v-21h-4v7h-4v-7h-4v7h-8v-7h-9v7h-1v11h1v1h9v-1h8v1h4v-1z
M623 797v-1h11v-10h7v-7h-18v8h-1v30h6v-3h6v-17h-11zM584 871v6h-4v-6h-23v14h35v-14h-8zM246 797v-1h10v-10h7v-7h-17v8h-2v30h7v-3h5v-17h-10zM254 438v-1h10v-9h7v-8h-17v9h-2v29h7v-4h5v-16h-10zM245 430h-4v21h4v1h-8v-32h-4v38h17v-29h-2v-9h-3v10zM731 380v-9h5v-32
h-10v50h10v-9h-5zM494 130v22h4v1h-4v54h8v-31h-7v-17h7v-4h-2v-20h2v-5h-8zM274 715h5v3h4v-20h-4v7h-5v-7h-3v7h-8v-7h-9v20h9v-3h8v3h3v-3zM652 715h5v3h4v-20h-4v7h-5v-7h-2v7h-9v-7h-9v7h-1v10h1v3h9v-3h9v3h2v-3zM362 831v18h25v-18h-25zM389 136h24v-5h3v5h15v14h-4
v2h7v-14h9v14h3v-22h-57v6zM523 390h8v-56h-8v56zM731 837v12h5v-18h-5v-9h7v-5h-7v-14h-4v28h-9v18h11v-12h2zM345 739v-9h6v-32h-10v50h10v-9h-6zM468 532h5v4h-5v15h7v3h-7v17h1v-5h9v-54h-3v15h-4v-15h-3v20zM209 216h-13v34h13v-34zM494 389h8v-55h-8v55zM320 411v8h15
v1h-15v17h18v-25h-17v-1h-1zM739 580v16h27v-16h-27zM69 152h8v-16h5v16h10v-22h-23v22zM793 495h8v15h-3v12h5v-60h-10v33zM369 412v16h26v-16h-26zM747 412v16h26v-16h-26zM122 302v-1h1v-48h-7v59h7v-10h-1zM313 771v7h14v1h-14v17h17v-25h-17zM497 312v-9h5v-52h-8v4h2
v15h-2v7h2v3h-2v32h3zM486 748h7v-58h-7v58zM516 748h7v-58h-7v58zM739 771v15h27v-15h-27zM582 324h5v-29h-12v37h7v-8zM236 136h62v-1h5v-5h-67v6zM116 149v3h4v1h-4v54h7v-31h-6v-17h6v-4h-1v-20h1v-5h-7v1h1v18h-1zM73 623v11h1v-2h1v2h5v9h-7v18h12v-38h-12zM613 876
v-5h-15v14h35v-9h-20zM463 599h-1v-6h1v-13h-12v33h12v-14zM90 623v38h10v-38h-10zM766 871h-27v14h27v-14zM166 138h3v21h18v-19h-17v-10h-4v8zM362 771v15h25v-15h-25zM69 467h8v-15h-6v-6h6v-30h-8v51zM471 221h-11v34h11v-15h-1v-5h1v-14zM604 817h16v-30h-2v-8h-3v32
h-7v-32h-4v38zM826 580v33h11v-33h-11zM73 805h12v-30h-12v30zM452 805h11v-30h-12v27h1v3zM387 871h-25v14h25v-14zM849 713h6v-58h-6v58zM584 497h3v-21h-12v12h-8v-12h-5v4h3v17h15v-8h4v8zM525 629h7v-49h-7v49zM516 629h7v-49h-7v49zM587 216h-12v28h12v-28zM533 376h8
v-42h-8v42zM793 177v18h3v8h-3v10h10v-36h-10zM408 536v18h2v9h-2v8h10v-35h-10zM785 536v18h2v9h-2v8h10v-35h-10zM82 446h11v-30h-11v30zM98 446h11v-30h-11v30zM475 446h11v-30h-11v30zM227 817h15v-30h-2v-8h-4v32h-7v-32h-2v38zM848 713v-15h-22v15h22zM206 497h3v-21
h-13v12h-6v-12h-2v21h13v-8h5v8zM461 446h10v-30h-11v27h1v3zM739 655v12h27v-12h-27zM402 449h7v-21h4v-16h-11v37zM478 580h-10v13h2v6h-2v14h10v-33zM348 245v22h6v6h-6v4h11v-32h-11zM408 339v-10h5v-5h-5v-6h-6v36h11v-15h-5zM855 339h-21v15h21v-15zM525 735h7v-45h-7
v45zM826 655v12h19v17h3v-29h-22zM484 323v-11h2v-15h-11v27h6v8h5v-9h-2zM369 297v12h26v-12h-26zM73 722v26h12v-26h-12zM718 604v22h7v6h-7v4h11v-32h-11zM146 390h7v-44h-7v44zM305 798h-14v22h14v-22zM691 439h-14v22h14v-22zM416 177v18h3v8h-3v10h9v-36h-9zM90 805
h10v-30h-10v30zM468 805h10v-30h-10v30zM503 642h5v-7h-1v-6h1v-49h-5v9h2v3h-2v50zM777 698v-10h6v-4h-6v-7h-5v36h11v-15h-6zM747 410v-21h-2v-9h-7v9h-2v21h11zM780 495h3v-4h2v4h5v-33h-7v10h-3v23zM780 449h6v-21h4v-16h-10v37zM313 439h-13v22h13v-22zM682 798h-13v22
h13v-22zM341 604v22h6v6h-6v4h10v-32h-10zM785 339v-10h5v-5h-5v-6h-5v36h10v-15h-5zM775 821v10h-3v18h11v-28h-8zM138 805h8v-34h-8v34zM523 446h8v-34h-8v34zM154 446h8v-34h-8v34zM533 446h8v-34h-8v34zM739 720v10h27v-10h-27zM747 516v14h19v-14h-19zM146 651h-8v33h8
v-33zM587 339h-5v-5h-7v24h12v-19zM395 361h-26v10h26v-10zM773 361h-26v10h26v-10zM90 748h10v-26h-10v26zM109 609v52h5v-52h-5zM399 698v-10h6v-4h-6v-7h-4v36h10v-15h-6zM77 691v-7h8v-11h-12v26h12v-8h-8zM856 397h-85v3h85v-3zM486 516v50h7v-32h-6v-16h6v-2h-7z
M650 472h-11v23h11v-23zM416 501h-63v4h63v-4zM380 713h7v-36h-7v36zM262 183v12h21v-12h-21zM639 183v12h21v-12h-21zM739 768v-20h-3v-9h-5v9h-2v20h10zM812 462h-7v35h7v-35zM834 462v52h-8v8h11v-60h-3zM739 739v9h27v-9h-27zM739 604v9h27v-9h-27zM431 195v-3h3v-15h-7
v36h7v-18h-3zM809 195v-3h3v-15h-7v36h7v-18h-3zM530 486h-11v22h11v-22zM650 221h-11v22h11v-22zM154 376h8v-30h-8v30zM300 733h-10v24h10v-24zM678 733h-10v24h10v-24zM687 374h-10v24h10v-24zM637 318h-6v40h6v-40zM768 437h-14v17h14v-17zM146 446h7v-34h-7v34z
M516 805h7v-34h-7v34zM556 871h-17v14h17v-14zM525 805h7v-34h-7v34zM553 412h-7v34h7v-34zM475 221v14h3v5h-3v4h11v-23h-11zM145 556v-20h1v-2h-8v32h8v-10h-1zM847 843v-5h1v-10h-8v30h8v-15h-1zM747 380v9h26v-9h-26zM369 177v18h13v-18h-13zM747 177v18h13v-18h-13z
M369 380v9h26v-9h-26zM162 221h-8v29h8v-29zM530 198v-21h1v-1h-8v31h8v-9h-1zM503 735h5v-45h-5v45zM90 673v11h5v7h-5v8h10v-26h-10zM361 245v32h7v-32h-7zM98 291v8h9v1h-9v12h11v-21h-11zM510 745v3h4v-58h-4v45h1v10h-1zM209 295h-13v17h13v-17zM826 720v10h22v-10h-22
zM632 543v11h20v-11h-20zM254 543v11h20v-11h-20zM82 262v14h5v9h-5v1h11v-24h-11zM726 251v16h7v6h-7v4h10v-26h-10zM138 748h8v-27h-8v27zM494 439h8v-27h-8v27zM739 563v8h27v-8h-27zM308 374h-9v24h9v-24zM739 628v8h27v-8h-27zM557 835v14h23v-14h-13v12h-9v-12h-1z
M518 389h1v1h3v-56h-4v42h1v10h-1v3zM436 402h-6v2h6v6h6v-6h7v-2h-7v-3h2v-3h-2v-7h-6v7h-18v3h18v3zM834 361v10h21v-10h-21zM369 221v16h13v-16h-13zM747 221v16h13v-16h-13zM181 835h-4v4h2v10h22v-14h-11v12h-9v-12zM271 472h-9v23h9v-23zM402 495h3v-4h3v4h5v-7h-5
v-21h5v-5h-7v10h-4v23zM628 677h-5v41h5v-41zM251 677h-5v41h5v-41zM478 334v5h-3v15h11v-20h-8zM451 554v17h12v-17h-12zM834 221v34h6v-34h-6zM148 805h6v-34h-6v34zM522 556v-20h1v-2h-7v32h7v-10h-1zM175 412h-6v34h6v-34zM153 221h-7v29h7v-29zM123 221h-7v29h7v-29z
M259 318h-5v40h5v-40zM146 580h-8v25h8v-25zM402 177v18h11v-18h-11zM140 389h2v1h3v-44h-5v30h2v10h-2v3zM718 536v18h11v-18h-11zM772 536v18h11v-18h-11zM637 365h-6v33h6v-33zM639 249v18h11v-18h-11zM849 613h6v-33h-6v33zM842 613h6v-33h-6v33zM271 221h-9v22h9v-22z
M263 580h-9v22h9v-22zM641 580h-9v22h9v-22zM460 195v18h11v-18h-11zM348 177v18h11v-18h-11zM152 198v-21h1v-1h-7v31h7v-9h-1zM510 629h4v-49h-4v49zM219 885h14v-14h-14v14zM683 831v18h18v-18h-4v16h-8v-16h-6zM839 148v-3h1v-15h-6v33h6v-15h-1zM639 293v16h11v-22h-3
v6h-8zM353 604v32h6v-32h-6zM834 297v12h19v15h2v-27h-5v9h-10v-9h-6zM154 654h-2v-3h-4v33h6v-30zM575 251v16h12v-16h-12zM116 439h7v-27h-7v27zM486 798h7v-27h-7v27zM82 241v17h11v-17h-11zM82 202v17h11v-17h-11zM161 871v14h23v-5h-15v-9h-8zM826 554v17h11v-17h-11z
M109 516v50h5v-32h-4v-16h4v-2h-5zM502 221h-8v23h8v-23zM541 221h-8v23h8v-23zM531 221h-8v23h8v-23zM196 253v14h13v-14h-13zM738 251v26h7v-26h-7zM341 536v18h10v-18h-10zM395 536v18h10v-18h-10zM726 177v18h10v-18h-10zM780 177v18h10v-18h-10zM451 698v15h12v-15h-12
zM451 536v15h12v-15h-12zM362 536v18h10v-18h-10zM348 412v16h11v-16h-11zM359 221h-11v16h11v-16zM402 221v16h11v-16h-11zM729 580h-11v16h11v-16zM772 580v16h11v-16h-11zM221 427h-7v25h7v-25zM82 511h3v-16h5v16h3v-23h-11v23zM70 185v-5h7v-10h-8v26h8v-11h-7z
M544 771h-5v34h5v-34zM166 771h-5v34h5v-34zM850 255h5v-34h-5v34zM747 158v13h13v-13h-13zM423 554v-3h2v-15h-5v35h5v-17h-2zM369 158v13h13v-13h-13zM512 376h4v-42h-4v42zM546 334v24h7v-24h-7zM359 401h-14v4h14v1h10v-1h5v-4h-5v-4h-10v4zM800 554v-3h3v-15h-5v35h5
v-17h-3zM106 149v-18h3v-1h-10v22h10v-3h-3zM369 280v8h26v-8h-6v6h-7v-6h-13zM251 724h-5v33h5v-33zM628 724h-5v33h5v-33zM460 339v15h11v-15h-11zM460 177v15h11v-15h-11zM718 771v15h11v-15h-11zM772 771v15h11v-15h-11zM259 365h-5v33h5v-33zM116 389h7v-24h-7v8h1v3
h-1v13zM137 651h-5v33h5v-33zM826 536v15h11v-15h-11zM306 831v18h17v-18h-3v16h-9v-16h-5zM766 640h-27v6h27v-6zM262 249v18h9v-18h-9zM632 608v18h9v-18h-9zM254 608v18h9v-18h-9zM632 831v18h9v-18h-9zM254 831v18h9v-18h-9zM739 850v6h27v-6h-27zM726 412v16h10v-16
h-10zM793 412v16h10v-16h-10zM351 580h-10v16h10v-16zM405 580h-10v16h10v-16zM780 221v16h10v-16h-10zM736 221h-10v16h10v-16zM503 566h5v-32h-5v32zM132 566h5v-32h-5v32zM418 580h-10v16h10v-16zM785 580v16h10v-16h-10zM793 221v16h10v-16h-10zM731 604v32h5v-32h-5z
M138 629h8v-20h-8v20zM362 580v16h10v-16h-10zM641 771h-7v-3h-11v10h18v-7zM747 297v12h13v-12h-13zM262 293v16h9v-22h-2v6h-7zM240 563h-4v39h4v-39zM140 439h2v7h3v-34h-5v27zM132 798h2v7h3v-34h-5v27zM313 494h10v-6h-4v-16h-6v22zM691 494h10v-6h-4v-16h-6v22z
M397 821v10h-2v18h10v-2h-5v-21h5v-5h-8zM650 412h-8v-2h-11v9h19v-7zM140 207h5v-31h-5v31zM123 315h-7v22h7v-22zM632 651v16h9v-21h-2v5h-7zM254 651v16h9v-21h-2v5h-7zM71 512h-2v76h2v-76zM69 511h2v-16h2v16h4v-23h-8v23zM533 270h8v-19h-8v19zM523 270h8v-19h-8v19z
M362 698v15h10v-15h-10zM154 580h-6v25h6v-25zM341 771v15h10v-15h-10zM395 771v15h10v-15h-10zM362 850v6h25v-6h-25zM785 771v15h10v-15h-10zM795 698h-10v15h10v-15zM418 698h-10v15h10v-15zM803 339h-10v15h10v-15zM166 654h-5v30h5v-30zM263 771h-7v-3h-10v10h17v-7z
M849 748h1v19h5v-28h-6v9zM109 673v26h3v3h-3v2h5v-31h-5zM145 221h-5v29h5v-29zM765 195h8v-18h-8v18zM73 609v12h12v-12h-12zM451 655v12h12v-12h-12zM416 221v16h9v-16h-9zM98 389h11v-13h-11v13zM82 376v13h11v-13h-11zM567 216h-5v28h5v-28zM539 690v28h5v-28h-5z
M271 412h-7v-2h-10v9h17v-7zM557 850v6h23v-6h-23zM69 202v17h8v-17h-8zM206 550v4h34v-4h-34zM584 550v4h34v-4h-34zM69 241v17h8v-17h-8zM154 270h8v-17h-8v17zM109 798h5v-27h-5v27zM425 339h-9v15h9v-15zM503 798h5v-27h-5v27zM85 594h-12v11h12v-11zM82 155v12h11v-12
h-11zM460 297v12h11v-12h-11zM416 412v16h9v-12h-3v-4h-6zM93 300h-11v12h11v-12zM179 850v6h22v-6h-22zM683 532v22h6v-22h-6zM402 297v12h11v-12h-11zM772 655v12h11v-12h-11zM73 826h4v-6h8v-9h-12v15zM240 724h-4v33h4v-33zM237 365h-4v33h4v-33zM608 724h-4v33h4v-33z
M319 221h-6v22h6v-22zM689 580h-6v22h6v-22zM126 642h4v-33h-4v33zM369 203v10h13v-10h-13zM382 245h-13v10h13v-10zM747 203v10h13v-10h-13zM109 748h5v-26h-5v26zM408 771v15h10v-11h-5v-4h-5zM803 150h-10v13h10v-13zM694 243v-1h3v-21h-6v22h3zM510 798h1v7h3v-34h-4v27
zM518 439h1v7h3v-34h-4v27zM512 283h4v-32h-4v32zM765 237h8v-16h-8v16zM138 688v16h8v-16h-8zM126 566h4v-32h-4v32zM510 566h4v-32h-4v32zM451 826h5v-6h7v-9h-11v10h-1v5zM361 130v6h21v-6h-21zM380 554h7v-18h-7v18zM313 174v21h6v-21h-6zM691 174v21h6v-21h-6zM361 177
v18h7v-18h-7zM738 177v18h7v-18h-7zM137 580h-5v25h5v-25zM114 580h-5v25h5v-25zM181 574h-4v31h4v-31zM135 207h4v-31h-4v31zM518 207h4v-31h-4v31zM512 207h4v-31h-4v31zM525 566h7v-32h-7v2h5v20h-5v10zM533 207h8v-31h-8v1h6v21h-6v9zM82 185v11h11v-11h-11zM82 224v11
h11v-11h-11zM593 431h-8v15h8v-15zM562 334v24h5v-24h-5zM362 655v12h10v-12h-10zM181 654h-4v30h4v-30zM148 629h6v-20h-6v20zM772 807h6v-20h-6v20zM395 807h6v-20h-6v20zM248 203h-3v40h3v-40zM625 203h-3v40h3v-40zM395 655v12h10v-12h-10zM780 297v12h10v-12h-10z
M793 297v12h10v-12h-10zM785 655v12h10v-12h-10zM451 720v10h12v-10h-12zM135 376h4v-30h-4v30zM90 609v12h10v-12h-10zM840 860v15h8v-15h-8zM146 270h7v-17h-7v17zM546 251v19h2v-3h5v-16h-7zM826 739v9h13v-9h-13zM98 315v9h5v3h6v-12h-11zM618 563h-3v39h3v-39zM425 150
h-9v13h9v-13zM403 168v-5h10v-13h-3v8h-8v13h11v-3h-10zM610 465h-58v2h58v-2zM132 745v3h5v-27h-5v14h2v10h-2zM850 163h3v5h-3v6h5v-26h-5v15zM135 283h4v-7h-1v-6h1v-17h-4v30zM380 596h7v-16h-7v16zM69 276h8v-14h-8v14zM664 495h2v-1h3v-22h-5v23zM812 221h-7v16h7v-16
zM745 221h-7v16h7v-16zM427 221v16h7v-16h-7zM368 221h-7v16h7v-16zM606 574v28h4v-28h-4zM148 566h6v-32h-6v2h4v20h-4v10zM738 412v16h7v-16h-7zM361 412v16h7v-16h-7zM805 412v16h7v-16h-7zM539 402h-37v3h37v-3zM82 170v10h11v-10h-11zM306 532v22h5v-22h-5zM460 361v10
h11v-10h-11zM471 153h-11v10h11v-10zM413 361h-11v10h11v-10zM783 720h-11v10h11v-10zM311 580h-5v22h5v-22zM475 361v10h11v-10h-11zM348 203v10h11v-10h-11zM413 245h-11v10h11v-10zM402 203v10h11v-10h-11zM669 221h-5v22h5v-22zM664 287v22h5v-22h-5zM639 203v10h11v-10
h-11zM139 221h-4v9h2v3h-2v17h4v-29zM82 467h3v-7h8v-8h-11v15zM389 195h6v-18h-6v18zM834 380v9h12v-9h-12zM130 651h-4v10h2v12h-2v11h4v-33zM85 327v-3h8v-9h-11v12h3zM313 249v18h6v-18h-6zM236 216v27h4v-27h-4zM683 608v18h6v-18h-6zM614 216v27h4v-27h-4zM126 798h4
v-27h-4v27zM135 439h4v-27h-4v27zM512 439h4v-27h-4v27zM683 850v6h18v-6h-18zM353 536v18h6v-18h-6zM451 739v9h12v-9h-12zM812 339h-7v15h7v-15zM745 339h-7v15h7v-15zM434 339h-7v15h7v-15zM368 339h-7v15h7v-15zM602 375h-15v7h15v-7zM69 389h8v-13h-8v13zM554 574v52h2
v-52h-2zM765 171h8v-13h-8v13zM747 280v8h13v-8h-13zM840 813v13h8v-13h-8zM154 324v13h8v-13h-8zM823 221h-3v34h3v-34zM446 221h-3v34h3v-34zM306 850v6h17v-6h-17zM187 216h-3v34h3v-34zM691 249v18h6v-16h-3v-2h-3zM154 207h8v-31h-8v1h7v21h-7v9zM726 203v10h10v-10
h-10zM780 203v10h10v-10h-10zM790 361h-10v10h10v-10zM372 720h-10v10h10v-10zM405 720h-10v10h10v-10zM468 720v10h10v-10h-10zM132 629h5v-20h-5v20zM418 720h-10v10h10v-10zM795 720h-10v10h10v-10zM803 361h-10v10h10v-10zM618 724h-3v33h3v-33zM615 365h-3v33h3v-33z
M625 365h-3v33h3v-33zM592 192v3h33v-3h-33zM783 604h-11v9h11v-9zM460 380v9h11v-9h-11zM402 380v9h11v-9h-11zM772 739v9h11v-9h-11zM475 389h11v-9h-11v9zM664 174v6h2v3h-2v12h5v-21h-5zM460 467h3v-7h8v-8h-10v10h-1v5zM248 365h-3v33h3v-33zM215 192v3h33v-3h-33z
M348 158v4h5v9h6v-13h-11zM70 153h-1v14h8v-12h-7v-2zM380 530h7v-14h-7v14zM359 580h-6v16h6v-16zM69 315v12h8v-12h-8zM77 300h-8v12h8v-12zM148 688v16h6v-16h-6zM765 309h8v-12h-8v12zM389 237h6v-16h-6v16zM288 381h-8v12h8v-12zM130 580h-4v9h2v3h-2v13h4v-25z
M843 782v-7h5v-4h-8v16h8v-5h-5zM522 221h-4v23h4v-23zM240 472h-4v23h4v-23zM283 472h-4v23h4v-23zM618 472h-4v23h4v-23zM738 158v13h7v-13h-7zM580 654h-13v7h13v-7zM361 158v13h7v-13h-7zM209 276h-13v7h13v-7zM580 635h-13v7h13v-7zM146 324v13h7v-13h-7zM161 609v20h2
v-3h3v-17h-5zM486 670v13h7v-13h-7zM516 670v13h7v-13h-7zM525 670v13h7v-13h-7zM747 270v7h13v-7h-13zM369 270v7h13v-7h-13zM785 739v9h10v-9h-10zM313 130v5h18v-5h-18zM793 380v9h10v-9h-10zM606 318h-5v18h5v-18zM229 318h-5v18h5v-18zM664 249v18h5v-18h-5zM287 495h2
v-1h2v-22h-4v23zM306 608v18h5v-18h-5zM425 361h-9v10h9v-10zM731 536v18h5v-18h-5zM405 604h-10v9h10v-9zM418 604h-10v9h10v-9zM425 245h-9v10h9v-10zM795 604h-10v9h10v-9zM353 771v15h6v-15h-6zM359 698h-6v15h6v-15zM395 739v9h10v-9h-10zM780 380v9h10v-9h-10z
M262 203v10h9v-10h-9zM468 748h10v-9h-10v9zM90 820h10v-9h-10v9zM408 739v9h10v-9h-10zM468 820h10v-9h-10v9zM834 177v15h6v-15h-6zM169 253v17h2v-3h4v-14h-6zM372 604h-10v9h10v-9zM362 739v9h10v-9h-10zM849 858h6v-15h-6v15zM849 875h6v-15h-6v15zM119 482h-5v18h5
v-18zM287 287v22h4v-22h-4zM718 563v8h11v-8h-11zM82 291v8h11v-8h-11zM283 580h-4v22h4v-22zM291 221h-4v22h4v-22zM772 628v8h11v-8h-11zM279 287v22h4v-22h-4zM283 221h-4v22h4v-22zM413 280h-11v8h11v-8zM98 460h11v-8h-11v8zM697 532v22h4v-22h-4zM69 224v11h8v-11h-8z
M351 757v8h11v-8h-11zM661 580h-4v22h4v-22zM475 460h11v-8h-11v8zM475 280v8h11v-8h-11zM772 563v8h11v-8h-11zM98 365v8h11v-8h-11zM82 365v8h11v-8h-11zM840 794v11h8v-11h-8zM826 628v8h11v-8h-11zM790 510h-5v12h10v-12h-2v11h-3v-11zM413 510h-5v12h10v-12h-2v11h-3
v-11zM516 221h-4v9h2v3h-2v11h4v-23zM567 295h-5v17h5v-17zM726 158v4h5v9h5v-13h-10zM691 130v5h17v-5h-17zM140 270h5v-17h-5v17zM353 516v14h6v-14h-6zM148 735h6v-14h-6v14zM657 646v21h4v-21h-4zM657 532v7h1v4h-1v11h4v-22h-4zM586 574v28h3v-28h-3zM738 297v12h7v-12
h-7zM327 174v21h4v-21h-4zM229 574v28h3v-28h-3zM427 416v12h7v-12h-7zM359 871h-6v14h6v-14zM739 516v14h6v-14h-6zM805 297v12h7v-12h-7zM361 297v12h7v-12h-7zM279 532v7h1v4h-1v11h4v-22h-4zM362 516v14h6v-14h-6zM587 276h-12v7h12v-7zM380 667h7v-12h-7v12zM279 646
v21h4v-21h-4zM416 380v9h9v-9h-9zM300 339v27h3v-27h-3zM670 698v27h3v-27h-3zM287 174v6h1v3h-1v12h4v-21h-4zM293 698v27h3v-27h-3zM678 339v27h3v-27h-3zM785 628v8h10v-8h-10zM798 580v16h5v-16h-5zM468 628v8h10v-8h-10zM803 280h-10v8h10v-8zM362 628v8h10v-8h-10z
M395 628v8h10v-8h-10zM341 563v8h10v-8h-10zM736 580h-5v16h5v-16zM132 688v16h5v-16h-5zM562 251v16h5v-16h-5zM154 302v10h8v-10h-8zM765 213h8v-10h-8v10zM531 293h-8v10h8v-10zM362 563v8h10v-8h-10zM395 563v8h10v-8h-10zM790 280h-10v8h10v-8zM451 628v6h1v-2h1v2h5v2
h5v-8h-12zM161 688v16h5v-16h-5zM408 628v8h10v-8h-10zM420 580v16h5v-16h-5zM389 171h6v-13h-6v13zM169 324v13h6v-13h-6zM849 826h6v-13h-6v13zM402 270v7h11v-7h-11zM650 276h-11v7h11v-7zM201 635h-11v7h11v-7zM475 270v7h11v-7h-11zM518 270h4v-19h-4v19zM803 698h-5
v15h5v-15zM736 698h-5v15h5v-15zM425 698h-5v15h5v-15zM850 145h5v-15h-5v15zM731 771v15h5v-15h-5zM850 192h5v-15h-5v15zM798 771v15h5v-15h-5zM463 512h-3v9h-4v-7h-5v8h12v-10zM780 158v5h10v-13h-3v8h-7zM541 295h-3v-2h-5v10h8v-8zM279 249v18h4v-18h-4zM279 608v18h4
v-18h-4zM697 608v18h4v-18h-4zM236 831v18h4v-18h-4zM353 655v12h6v-12h-6zM606 831v18h4v-18h-4zM425 280h-9v8h9v-8zM327 249v18h4v-18h-4zM606 608v18h4v-18h-4zM254 563v8h9v-8h-9zM169 346v12h6v-12h-6zM287 249v18h4v-18h-4zM614 249v18h4v-18h-4zM279 831v18h4v-18
h-4zM236 249v18h4v-18h-4zM236 608v18h4v-18h-4zM657 831v18h4v-18h-4zM494 323v9h8v-9h-8zM632 563v8h9v-8h-9zM523 323v9h8v-9h-8zM533 323v9h8v-9h-8zM840 739v9h8v-9h-8zM657 608v18h4v-18h-4zM793 270v7h10v-7h-10zM427 153v10h7v-10h-7zM736 871h-5v14h5v-14zM361 203
v10h7v-10h-7zM434 245h-7v10h7v-10zM745 361h-7v10h7v-10zM738 203v10h7v-10h-7zM380 730h7v-10h-7v10zM146 302v10h7v-10h-7zM731 516v14h5v-14h-5zM812 245h-7v10h7v-10zM780 270v7h10v-7h-10zM413 391h-7v10h7v-10zM812 361h-7v10h7v-10zM460 270v6h1v-2h1v2h3v1h6v-7
h-11zM434 361h-7v10h7v-10zM368 361h-7v10h7v-10zM523 651h-7v10h7v-10zM592 488v9h5v-21h-2v12h-3zM625 472h-3v23h3v-23zM660 472h-3v23h3v-23zM723 521v9h6v-14h-3v5h-3zM345 521v9h6v-14h-3v5h-3zM248 472h-3v23h3v-23zM664 158v4h17v-4h-17zM177 609v17h4v-17h-4z
M98 346v2h3v3h-3v2h11v-7h-11zM190 216h-2v34h2v-34zM597 677h-4v17h4v-17zM220 677h-4v17h4v-17zM460 168v6h11v-6h-11zM274 580h-3v22h3v-22zM678 287v22h3v-22h-3zM437 580h-2v33h2v-33zM300 287v22h3v-22h-3zM303 221h-3v22h3v-22zM293 532v22h3v-22h-3zM673 580h-3v22
h3v-22zM320 532v22h3v-22h-3zM670 532v22h3v-22h-3zM296 580h-3v22h3v-22zM783 640h-11v6h11v-6zM229 724h-2v33h2v-33zM660 221h-3v22h3v-22zM718 850v6h11v-6h-11zM826 640v6h11v-6h-11zM814 580h-2v33h2v-33zM348 130v6h11v-6h-11zM681 221h-3v22h3v-22zM657 287v22h3
v-22h-3zM849 805h6v-11h-6v11zM140 324v13h5v-13h-5zM539 670v13h5v-13h-5zM503 670v13h5v-13h-5zM701 580h-4v16h4v-16zM162 315h-8v8h8v-8zM331 221h-4v16h4v-16zM126 688v16h4v-16h-4zM69 365v8h8v-8h-8zM494 460h8v-8h-8v8zM532 654h-2v-3h-5v10h7v-7zM69 291v8h8v-8h-8
zM287 158v4h16v-4h-16zM279 516v5h17v-4h-5v-1h-4v4h-4v-4h-4zM765 288h8v-8h-8v8zM177 688v16h4v-16h-4zM416 270v7h9v-7h-9zM271 276h-9v7h9v-7zM486 820h7v-9h-7v9zM271 646v21h3v-21h-3zM427 380v9h7v-9h-7zM546 323v9h7v-9h-7zM641 635h-9v7h9v-7zM380 748h7v-9h-7v9z
M300 174v21h3v-21h-3zM368 389v-9h-7v9h7zM263 635h-9v7h9v-7zM670 646v21h3v-21h-3zM293 646v21h3v-21h-3zM465 280v5h-5v3h11v-8h-6zM805 380v9h7v-9h-7zM380 613h7v-9h-7v9zM678 174v21h3v-21h-3zM705 174v21h3v-21h-3zM103 330v3h-5v4h11v-7h-6zM546 518h10v-6h-10v6z
M691 203v10h6v-10h-6zM215 488v9h4v-21h-2v12h-2zM589 698h-3v20h3v-20zM451 527v5h12v-5h-12zM389 213h6v-10h-6v10zM731 655v12h5v-12h-5zM418 655h-10v6h10v-6zM418 640h-10v6h10v-6zM162 295h-2v-2h-6v8h8v-6zM657 516v5h16v-4h-4v-1h-5v4h-4v-4h-3zM169 302v10h6v-10
h-6zM405 640h-10v6h10v-6zM798 655v12h5v-12h-5zM359 720h-6v10h6v-10zM372 640h-10v6h10v-6zM795 640h-10v6h10v-6zM726 130v6h10v-6h-10zM389 255h6v-10h-6v10zM849 838h6v-10h-6v10zM209 654v30h2v-30h-2zM341 850v6h10v-6h-10zM840 195h-6v10h6v-10zM313 203v10h6v-10
h-6zM849 730h6v-10h-6v10zM69 805h2v-30h-2v30zM842 551h4v-15h-4v15zM468 640v6h10v-6h-10zM77 751h-5v3h1v11h4v-14zM668 768v4h2v6h3v-6h5v-4h-10zM217 295v29h2v-29h-2zM140 832v-1h-2v8h8v-7h-6zM290 768v4h3v6h3v-6h4v-4h-10zM595 295v29h2v-29h-2zM434 280h-7v8h7v-8
zM138 642h8v-7h-8v7zM523 283h8v-7h-8v7zM154 283h8v-7h-8v7zM368 280h-7v8h7v-8zM745 280h-7v8h7v-8zM533 480h8v-7h-8v7zM812 280h-7v8h7v-8zM116 460h7v-8h-7v8zM77 330h-8v7h8v-7zM553 295h-7v8h7v-8zM380 636h7v-8h-7v8zM533 283h8v-7h-8v7zM153 293h-7v8h7v-8z
M153 315h-7v8h7v-8zM234 871v14h4v-14h-4zM209 574v28h2v-28h-2zM154 480h8v-7h-8v7zM554 690v28h2v-28h-2zM126 735h4v-14h-4v14zM765 277h8v-7h-8v7zM380 571h7v-8h-7v8zM826 527v5h11v-5h-11zM186 880v5h11v-5h-11zM420 775v11h5v-11h-5zM271 831v18h3v-18h-3zM293 831
v18h3v-18h-3zM245 249v18h3v-18h-3zM229 608v18h3v-18h-3zM320 608v18h3v-18h-3zM670 831v18h3v-18h-3zM678 249v18h3v-18h-3zM293 608v18h3v-18h-3zM820 195v18h3v-18h-3zM359 748v-9h-6v9h6zM615 608v18h3v-18h-3zM670 608v18h3v-18h-3zM657 249v18h3v-18h-3zM443 195v18
h3v-18h-3zM229 831v18h3v-18h-3zM300 249v18h3v-18h-3zM615 831v18h3v-18h-3zM622 249v18h3v-18h-3zM271 608v18h3v-18h-3zM254 850v6h9v-6h-9zM93 333h-8v-3h-3v7h11v-4zM217 216v26h2v-26h-2zM557 574v52h1v-52h-1zM69 673v26h2v-26h-2zM135 324v13h4v-13h-4zM510 670v13
h4v-13h-4zM747 251v4h13v-4h-13zM69 748h2v-26h-2v26zM595 216v26h2v-26h-2zM518 832v-1h-2v8h7v-7h-5zM458 640v3h-7v3h12v-6h-5zM135 130v5h10v-5h-10zM425 720h-5v10h5v-10zM850 205h5v-10h-5v10zM420 512v10h5v-10h-5zM664 203v10h5v-10h-5zM803 720h-5v10h5v-10z
M736 720h-5v10h5v-10zM140 302v10h5v-10h-5zM512 130v5h10v-5h-10zM323 738h-5v10h5v-10zM508 651h-5v10h5v-10zM418 821h-10v5h10v-5zM516 642h7v-7h-7v7zM146 283h7v-7h-7v7zM525 839h7v-7h-7v7zM427 270v7h7v-7h-7zM525 642h7v-7h-7v7zM805 270v7h7v-7h-7zM123 346h-7v7
h7v-7zM553 276h-7v7h7v-7zM175 315h-6v8h6v-8zM708 221h-3v16h3v-16zM677 410v3h1v6h3v-6h6v-3h-10zM834 280v8h6v-8h-6zM842 636h6v-8h-6v8zM85 392h-5v3h2v11h3v-14zM313 420v8h6v-8h-6zM331 472h-4v12h4v-12zM691 420v8h6v-8h-6zM820 412v16h3v-16h-3zM323 580h-3v16h3
v-16zM683 563v8h6v-8h-6zM823 462h-3v16h3v-16zM353 563v8h6v-8h-6zM705 251v16h3v-16h-3zM849 636h6v-8h-6v8zM840 879v6h8v-6h-8zM632 850v6h1v-1h8v-5h-9zM98 511h2v-23h-2v23zM586 835v12h-2v2h5v-14h-3zM299 410v3h1v6h3v-6h5v-3h-9zM562 323v9h5v-9h-5zM109 820h5v-9
h-5v9zM798 739v9h5v-9h-5zM425 297h-9v5h9v-5zM823 177h-3v15h3v-15zM446 339h-3v15h3v-15zM803 604h-5v9h5v-9zM425 462h-9v5h9v-5zM425 604h-5v9h5v-9zM503 820h5v-9h-5v9zM132 820h5v-9h-5v9zM823 339h-3v15h3v-15zM420 739v9h5v-9h-5zM446 177h-3v15h3v-15zM652 580h-2
v22h2v-22zM475 251v4h11v-4h-11zM526 473v-1h-1v8h6v-7h-5zM369 516v14h3v-14h-3zM380 646h7v-6h-7v6zM184 253v14h3v-14h-3zM834 270v7h6v-7h-6zM689 771h-6v7h6v-7zM683 779v7h6v-7h-6zM175 276h-6v7h6v-7zM389 277h6v-7h-6v7zM586 670v14h3v-14h-3zM148 839h6v-7h-6v7z
M319 412h-6v7h6v-7zM148 642h6v-7h-6v7zM650 646v21h2v-21h-2zM697 412h-6v7h6v-7zM279 203v10h4v-10h-4zM503 839h5v-8h-5v8zM135 302v10h4v-10h-4zM306 563v8h5v-8h-5zM211 698h-2v20h2v-20zM731 563v8h5v-8h-5zM798 628v8h5v-8h-5zM140 480h5v-8h-5v8zM516 293h-4v10h4
v-10zM145 293h-5v8h5v-8zM140 460h5v-8h-5v8zM780 251v4h10v-4h-10zM132 839h5v-8h-5v8zM331 379h-4v10h4v-10zM850 288h5v-8h-5v8zM664 420v8h5v-8h-5zM420 628v8h5v-8h-5zM793 251v4h10v-4h-10zM145 315h-5v8h5v-8zM523 130v5h8v-5h-8zM812 502v20h2v-20h-2zM522 293h-4
v10h4v-10zM608 768h-4v10h4v-10zM240 768h-4v10h4v-10zM514 651h-4v10h4v-10zM287 203v10h4v-10h-4zM327 203v10h4v-10h-4zM184 324v13h3v-13h-3zM849 775h6v-7h-5v3h-1v4zM219 339h-2v19h2v-19zM597 339h-2v19h2v-19zM254 724v1h7v5h5v-6h-12zM237 410h-4v9h4v-9zM126 820
h4v-9h-4v9zM184 346v12h3v-12h-3zM849 885h6v-6h-6v6zM650 831v18h2v-18h-2zM443 416v12h3v-12h-3zM849 646h6v-6h-6v6zM650 608v18h2v-18h-2zM71 643h-2v18h2v-18zM443 297v12h3v-12h-3zM842 646h6v-6h-6v6zM820 297v12h3v-12h-3zM359 640h-6v6h6v-6zM851 389h4v-9h-4v9z
M708 472h-3v12h3v-12zM175 295h-6v6h6v-6zM834 168v6h6v-6h-6zM639 365v1h8v6h4v-7h-12zM518 323v9h4v-9h-4zM510 820h4v-9h-4v9zM149 473v-1h-1v8h5v-7h-4zM353 850v6h6v-6h-6zM512 323v9h4v-9h-4zM140 283h5v-7h-5v7zM434 297h-7v5h7v-5zM544 635h-5v7h5v-7zM434 462h-7v5
h7v-5zM105 394h-5v7h5v-7zM544 654h-5v7h5v-7zM562 276v7h5v-7h-5zM166 635h-5v7h5v-7zM146 130v5h7v-5h-7zM262 365v1h7v6h4v-7h-11zM132 642h5v-7h-5v7zM306 779v7h5v-7h-5zM669 412h-5v7h5v-7zM311 771h-5v7h5v-7zM850 277h5v-7h-5v7zM209 835v12h-3v2h5v-14h-2zM435 554
v17h2v-17h-2zM812 554v17h2v-17h-2zM533 159h8v-4h-8v4zM135 460h4v-8h-4v8zM518 480h4v-8h-4v8zM139 293h-4v8h4v-8zM512 460h4v-8h-4v8zM510 839h4v-8h-4v8zM279 563v8h4v-8h-4zM139 315h-4v8h4v-8zM518 460h4v-8h-4v8zM523 159h8v-4h-8v4zM697 563v8h4v-8h-4zM512 480h4
v-8h-4v8zM126 839h4v-8h-4v8zM97 753h-4v8h4v-8zM657 563v8h4v-8h-4zM154 159h8v-4h-8v4zM135 480h4v-8h-4v8zM765 255h8v-4h-8v4zM632 724v1h7v5h4v-6h-11zM780 522h3v-10h-3v10zM823 361h-3v10h3v-10zM849 787h6v-5h-6v5zM681 472h-3v10h3v-10zM814 698h-2v15h2v-15z
M814 536h-2v15h2v-15zM812 771v15h2v-15h-2zM731 850v6h5v-6h-5zM300 203v10h3v-10h-3zM793 168v3h10v-3h-10zM834 208v5h6v-5h-6zM803 640h-5v6h5v-6zM785 527v3h10v-3h-10zM780 168v3h10v-3h-10zM206 850v6h5v-6h-5zM705 203v10h3v-10h-3zM584 850v6h5v-6h-5zM446 361h-3
v10h3v-10zM303 472h-3v10h3v-10zM618 768h-3v10h3v-10zM443 153v10h3v-10h-3zM657 203v10h3v-10h-3zM69 826h2v-15h-2v15zM402 522h3v-10h-3v10zM408 527v3h10v-3h-10zM184 302v10h3v-10h-3zM736 640h-5v6h5v-6zM425 640h-5v6h5v-6zM437 536h-2v15h2v-15zM678 203v10h3v-10
h-3zM425 655h-5v6h5v-6zM437 698h-2v15h2v-15zM618 276h-4v7h4v-7zM610 635h-4v7h4v-7zM279 779v7h4v-7h-4zM510 642h4v-7h-4v7zM657 779v7h4v-7h-4zM283 276h-4v7h4v-7zM240 635h-4v7h4v-7zM181 635h-4v7h4v-7zM77 392h-2v14h2v-14zM188 253v14h2v-14h-2zM283 771h-4v7h4
v-7zM71 751h-2v14h2v-14zM518 283h4v-7h-4v7zM661 771h-4v7h4v-7zM240 276h-4v7h4v-7zM557 690v28h1v-28h-1zM146 159h7v-4h-7v4zM553 476h-7v4h7v-4zM615 410h-3v9h3v-9zM248 410h-3v9h3v-9zM820 380v9h3v-9h-3zM625 410h-3v9h3v-9zM443 380v9h3v-9h-3zM416 168v3h9v-3h-9z
M188 324v13h2v-13h-2zM554 670v13h2v-13h-2zM425 821h-5v5h5v-5zM850 213h5v-5h-5v5zM664 361v5h5v-5h-5zM200 435h-1v25h1v-25zM85 702h-12v2h12v-2zM691 273v4h6v-4h-6zM313 273v4h6v-4h-6zM657 850v6h4v-6h-4zM236 850v6h4v-6h-4zM812 655v12h2v-12h-2zM187 315h-3v8h3
v-8zM691 158v4h6v-4h-6zM670 563v8h3v-8h-3zM175 476h-6v4h6v-4zM271 563v8h3v-8h-3zM279 850v6h4v-6h-4zM435 655v12h2v-12h-2zM188 346v12h2v-12h-2zM300 420v8h3v-8h-3zM69 609v12h2v-12h-2zM293 563v8h3v-8h-3zM823 280h-3v8h3v-8zM525 514v4h6v-4h-6zM154 389h8v-3h-8
v3zM657 420v8h3v-8h-3zM606 850v6h4v-6h-4zM533 389h8v-3h-8v3zM683 632v4h6v-4h-6zM146 460h3v-8h-3v8zM313 158v4h6v-4h-6zM523 460h3v-8h-3v8zM320 563v8h3v-8h-3zM678 420v8h3v-8h-3zM435 775v11h2v-11h-2zM82 346v2h11v-2h-11zM184 432v11h2v-11h-2zM93 351h-11v2h11
v-2zM71 594h-2v11h2v-11zM69 634h2v-11h-2v11zM618 635h-3v7h3v-7zM805 168v3h7v-3h-7zM293 779v7h3v-7h-3zM232 635h-3v7h3v-7zM427 168v3h7v-3h-7zM625 276h-3v7h3v-7zM271 779v7h3v-7h-3zM820 270v7h3v-7h-3zM525 748h7v-3h-7v3zM248 276h-3v7h3v-7zM274 771h-3v7h3v-7z
M660 276h-3v7h3v-7zM589 635h-3v7h3v-7zM274 635h-3v7h3v-7zM187 276h-3v7h3v-7zM670 779v7h3v-7h-3zM660 412h-3v7h3v-7zM589 654h-3v7h3v-7zM287 361v5h4v-5h-4zM166 835h-5v4h5v-4zM279 720v5h4v-5h-4zM188 302v10h2v-10h-2zM544 835h-5v4h5v-4zM229 768h-2v10h2v-10z
M657 720v5h4v-5h-4zM697 516v5h4v-5h-4zM306 632v4h5v-4h-5zM140 159h5v-4h-5v4zM437 720h-2v10h2v-10zM100 702h-10v2h10v-2zM154 130v5h4v-5h-4zM814 720h-2v10h2v-10zM435 512v10h2v-10h-2zM413 443h-1v18h1v-18zM435 502v9h2v-9h-2zM446 270h-3v6h3v-6zM443 168v6h3v-6
h-3zM148 748h6v-3h-6v3zM670 850v6h3v-6h-3zM435 739v9h2v-9h-2zM783 802h-1v18h1v-18zM812 739v9h2v-9h-2zM271 850v6h3v-6h-3zM229 850v6h3v-6h-3zM138 820h2v-9h-2v9zM615 850v6h3v-6h-3zM405 802h-1v18h1v-18zM516 820h2v-9h-2v9zM820 168v6h3v-6h-3zM187 295h-3v6h3v-6
zM293 850v6h3v-6h-3zM327 158v4h4v-4h-4zM69 346v2h8v-2h-8zM812 628v8h2v-8h-2zM518 514v4h4v-4h-4zM77 351h-8v2h8v-2zM472 761h2v-8h-2v8zM135 159h4v-4h-4v4zM512 159h4v-4h-4v4zM697 632v4h4v-4h-4zM188 517v16h-1v-16h1zM518 159h4v-4h-4v4zM327 273v4h4v-4h-4z
M650 563v8h2v-8h-2zM190 315h-2v8h2v-8zM420 527v3h5v-3h-5zM503 748h5v-3h-5v3zM446 462h-3v5h3v-5zM669 280h-5v3h5v-3zM681 280h-3v5h3v-5zM320 516v5h3v-5h-3zM798 527v3h5v-3h-5zM556 635h-2v7h2v-7zM652 635h-2v7h2v-7zM556 654h-2v7h2v-7zM772 530h1v-14h-1v14z
M211 635h-2v7h2v-7zM597 276h-2v7h2v-7zM650 779v7h2v-7h-2zM219 276h-2v7h2v-7zM480 401h2v-7h-2v7zM190 276h-2v7h2v-7zM652 771h-2v7h2v-7zM303 280h-3v3h1v2h2v-5zM196 365v1h13v-1h-13zM567 724v1h13v-1h-13zM557 670v13h1v-13h-1zM187 476h-3v4h3v-4zM575 365v1h12v-1
h-12zM814 640h-2v6h2v-6zM360 751h-4v3h4v-3zM190 295h-2v6h2v-6zM678 273v4h3v-4h-3zM650 850v6h2v-6h-2zM539 512v6h2v-6h-2zM293 632v4h3v-4h-3zM135 389h4v-3h-4v3zM300 273v4h3v-4h-3zM291 280h-4v3h4v-3zM437 628h-2v6h2v-6zM126 748h4v-3h-4v3zM512 389h4v-3h-4v3z
M705 158v4h3v-4h-3zM705 273v4h3v-4h-3zM320 632v4h3v-4h-3zM670 632v4h3v-4h-3zM177 791v11h1v-11h-1zM562 432v11h1v-11h-1zM190 724v1h11v-1h-11zM554 791v11h1v-11h-1zM437 821h-2v5h2v-5zM812 527v5h2v-5h-2zM435 527v5h2v-5h-2zM793 329h2v-5h-2v5zM443 285v3h3v-3h-3
zM780 530h3v-3h-3v3zM368 392h-3v3h3v-3zM296 640h-3v3h3v-3zM402 530h3v-3h-3v3zM77 285h-8v1h8v-1zM283 640h-4v2h4v-2zM512 518h2v-4h-2v4zM556 835h-2v4h2v-4zM673 640h-3v2h1v1h2v-3zM661 640h-4v2h4v-2zM558 654h-1v7h1v-7zM558 635h-1v7h1v-7zM435 643v3h2v-3h-2z
M215 517v1h-6v-1h6zM416 329h1v-5h-1v5zM539 724v1h5v-1h-5zM562 365v1h5v-1h-5zM161 724v1h5v-1h-5zM664 276v1h5v-1h-5zM408 688h1v-4h-1v4zM177 724v1h4v-1h-4zM71 702h-2v2h2v-2zM287 276v1h4v-1h-4zM279 635v1h4v-1h-4zM785 688h1v-4h-1v4zM657 635v1h4v-1h-4zM279 365
v1h4v-1h-4zM187 412h-3v1h3v-1zM586 724v1h3v-1h-3zM184 365v1h3v-1h-3zM657 365v1h3v-1h-3zM271 724v1h3v-1h-3zM217 365v1h2v-1h-2zM188 365v1h2v-1h-2zM595 365v1h2v-1h-2zM556 771h-2v1h2v-1zM554 724v1h2v-1h-2zM650 724v1h2v-1h-2zM209 724v1h2v-1h-2zM557 724v1h1v-1
h-1z" />
    <glyph glyph-name="YINYANG" unicode="&#x262f;" horiz-adv-x="792" 
d="M643 980h-662v-850h823v850h-153h-8zM403 814h5v-30h-3v-34h-5v5h-1v-33h-12v156h-9v4h9v16h16v-14h1v-2h-1v-1h1v-1h-1v-1h1v-5h-1v-3h1v-5h-1v-8h1v-1h-1v-7h1v-15h14v23h71v-5h-39v-4h-10v-19h-2v-11h-4v3h-10v-3h-14v9h-2v-9h-5v-5zM657 193h31v-3h19v3h52v12h-52v2
h40v9h-40v5h44v3h-44v10h28v-1h1v1h30v2h-30v12h6v-4h15v4h14v-68h-25v7h-2v-7h-30v2h-2v-2h-13v2h-8v-2h-11v2h-7v-2h-16v13zM16 486h5v-9h3v-4h23v-24h17v24h68v-7h-37v-3h-9v-20h-3v-11h-3v4h-11v-4h-14v9h-2v-9h-37v2h9v1h-9v11h23v6h-23v34zM185 675h-9v-17h-8v11h3v17
h-3v4h1v10h-1v6h5v-4h2v4h22v-4h32v4h27v-6h-24v-10h24v-4h-33v-25h-26v-3h-12v17zM185 301h-9v-16h-8v10h3v18h-3v3h1v8h-1v6h5v-5h2v5h22v-5h32v5h27v-6h-24v-8h24v-3h-33v-26h-26v-2h-12v16zM539 309h-9v-17h-6v11h2v17h-2v17h3v-4h3v4h21v-4h31v4h27v-5h-25v-8h25v-4
h-34v-25h-24v-3h-12v17zM302 728v4h7v5h-7v4h7v3h43v105h6v-189h2v9h23v-3h-14v-2h14v-6h-17v-2h17v-8h-23v7h-9v-8h-5v8h-14v5h20v71h-34v-3h-8v3h-1v-3h-7zM539 682h-9v-16h-6v10h2v20h-2v17h3v-4h3v4h21v-4h31v4h27v-5h-25v-9h25v-3h-34v-27h-24v-3h-12v16zM733 556v12
h33v3h-7v9h-26v2h14v9h-14v5h18v2h-18v10h2v-1h1v1h30v3h-30v10h6v-1h15v1h14v-65h-38zM16 427h37v-31h-3v-36h-4v-3h-3v12h-2v2h-3v51h-11v-13h-5v-64h-1v-6h-5v88zM141 914h-3v-4h-29v9h-14v-9h-54v9h2v2h12v-4h3v4h10v-8h5v8h11v-1h6v1h33v-2h5v2h18v-3h4v3h24v-11h-33v4
zM26 832h21v-4h17v4h22v-10h-3v-11h-3v3h-11v-3h-14v10h-2v-10h-19v7h-18v7h10v7zM657 840v2h1v-2h18v-7h-11v-5h-7v-4h2v-18h-20v18h17v4h-20v5h-15v7h35zM640 445h17v4h-20v5h-15v8h54v-8h-11v-5h-7v-4h2v-17h-20v17zM30 805h23v-30h-3v-38h-4v-4h-3v15h-2v2h-3v51h-8v4z
M302 454v3h1v-3h18v-7h-11v-6h-7v-4h2v-17h-20v17h17v4h-20v6h-13v7h33zM398 934v3h7v5h-7v4h74v-12h-74zM398 462h6v-5h14v5h22v-11h-2v-12h-4v4h-10v-4h-14v10h-2v-10h-10v23zM285 816h17v5h-20v5h-13v6h52v-6h-11v-5h-7v-5h2v-17h-20v17zM208 788h40v-15h-67v3h27v5h-27
v4h27v3zM582 282h15v-28h-36v18h21v10zM450 472h-10v-9h-22v17h95v-2h-3v-3h-60v-3zM561 415h41v-14h-67v3h26v5h-26v4h26v2zM757 292v11h9v17h-9v17h13v10h-13v3h5v9h-5v4h8v5h-8v2h9v2h5v-80h-14zM95 840h-9v-7h-22v17h74v-6h-43v-4zM455 171h-9v-1h9v-6h-155v4h135v-2h3
v2h6v5h-6v4h17v-6zM338 407v47h1v-47h5v64h5v-77h-3v-2h-27v2h-9v3h30v7h-30v3h28zM771 526h-38v7h28v8h-28v10h38v-25zM397 544v-3h-10v-1h-5v1h-6v3h6v4h-6v11h6v24h-6v6h6v2h-6v9h7v-1h4v-7h9v4h1v-5h-10v-32h10v-3h-10v-5h10v-3h-10v-4h10zM423 788v-7h-2v-14h2v-20h-7
v8h-2v29h-4v30h14v-26h-1zM423 408v-7h-2v-14h2v-19h-7v9h-2v27h-4v31h14v-27h-1zM561 794h41v-13h-67v4h26v4h-26v3h26v2zM16 283h6v-54h-5v-3h5v-17h16v5h13v-7h-27v-8h27v-3h-35v87zM229 647h15v-26h-36v15h21v11zM208 407h40v-13h-67v3h27v4h-27v4h27v2zM464 919v8h-14
v-8h-52v2h13v5h-13v3h74v-7h6v4h5v3h6v-10h-25zM757 666v10h9v20h-9v17h13v10h-13v3h5v11h-5v4h8v3h6v-78h-14zM68 399v-5h-2v-14h2v-20h-6v9h-2v27h-5v31h14v-28h-1zM68 780v-7h-2v-14h2v-22h-6v11h-2v27h-5v30h14v-25h-1zM458 452h52v-13h-52v13zM208 263h21v11h15v-27
h-36v8h7v6h-7v2zM771 905h-38v5h28v9h-28v10h38v-24zM398 435h10v-31h-3v-34h-5v7h-2v50h6v5h-6v3zM300 185h29v-3h-17v-5h94v-3h5v3h5v-4h-116v12zM582 819v5h-14v-5h-30v11h30v-4h4v4h30v-11h-20zM360 516v14h41v-14h-41zM360 647h23v-26h-23v26zM383 274v-27h-23v27h23z
M269 313v4h32v6h8v-15h1v15h15v-18h-24v8h-32zM458 830h52v-11h-52v11zM622 320v5h34v5h8v-14h1v14h17v-16h-26v6h-34zM62 544v-6h3v6h15v-9h3v9h18v-2h-6v-9h-54v11h21zM771 950v-16h-38v12h33v2h-33v2h38zM464 526v7h33v-2h15v2h8v-2h4v2h21v-7h-81zM16 562h6v-3h18v-11
h-18v-4h18v-11h-24v29zM383 295v-3h-14v-2h14v-5h-17v-2h17v-7h-23v6h-9v-7h-5v7h-14v4h28v9h23zM582 439v5h-14v-5h-14v13h13v-6h7v6h28v-13h-20zM326 388h-1v-10h-7v-8h-8v18h9v2h27v-8h-4v-4h-16v10zM554 544h-9v-3h-6v10h29v-5h7v3h7v2h15v-10h-43v3zM229 811v4h-15v-4
h-9v13h43v-13h-19zM247 360v-4h3v-5h-21v5h7v4h-7v3h7v7h-7v10h19v-10h-1v-7h1v-3h-1zM771 487h-14v7h13v2h-13v6h-15v1h27v2h-27v4h24v2h-24v5h29v-29zM623 299h-9v-7h-32v11h52v-11h-11v7zM270 665h-9v-7h-32v11h50v-11h-9v7zM771 865h-14v6h13v2h-13v7h-15v1h27v1h-27v5
h24v2h-24v4h29v-28zM717 282h18v-28h-18v28zM420 282h18v-28h-18v28zM723 664h12v-6h-18v5h-9v-7h-5v7h-14v5h28v8h18v-10h-12v-2zM247 737v-5h3v-4h-21v4h7v5h-7v4h7v9h-7v9h7v1h11v-1h1v-9h-1v-9h1v-4h-1zM683 396h-1v-11h-10v-6h-7v17h8v1h30v-6h-3v-6h-17v11zM757 435h6
v4h-6v23h14v-35h-14v8zM683 775h-1v-10h-10v-7h-7v17h8v2h30v-7h-3v-5h-17v10zM326 767h-1v-10h-7v-7h-8v17h9v2h27v-7h-4v-5h-16v10zM320 776v4h19v-4h1v8h-30v4h36v-17h-27v2h-9v3h10zM270 290h-9v-5h-32v10h50v-10h-9v5zM16 525h24v-4h1v4h54v-8h-31v7h-17v-7h-4v2h-22
v-2h-5v8zM599 747v-6h3v-4h-20v4h7v6h-7v3h7v8h-7v9h20v-9h-3v-8h3v-3h-3zM599 368v-5h3v-4h-20v4h7v5h-7v2h7v9h-7v8h7v1h10v-1h3v-8h-3v-9h3v-2h-3zM717 655h18v-26h-18v26zM22 627v-24h-5v-3h5v-15h16v4h2v-6h-16v-7h16v-3h-24v54h6zM280 496v-8h-56v8h56zM723 290h12v-5
h-18v5h-9v-7h-5v7h-14v4h28v9h18v-11h-12v-2zM623 672h-9v-6h-32v10h52v-10h-11v6zM416 551v-5h4v5h15v-7h3v7h17v-1h-5v-9h-52v3h13v4h-13v3h18zM104 811v13h34v-13h-34zM279 525v-8h-55v8h55zM301 699h8v-17h1v17h15v-20h-23v19h-1v1zM464 282h16v-28h-16v28zM40 950v-8
h-18v-5h18v-10h-24v23h24zM383 226v-8h13v3h10v-5h-56v10h33zM302 647h16v-26h-16v26zM302 274h16v-27h-16v27zM190 897h-1v-1h-48v7h59v-7h-10v1zM657 706h7v-16h1v16h17v-19h-25v19zM200 522h-9v-5h-52v8h4v-2h15v2h7v-2h3v2h32v-3zM634 533v-7h-60v7h60zM634 503v-7h-60
v7h60zM657 282h15v-28h-15v28zM214 437v-5h-31v12h39v-7h-8zM22 785v-64h-1v-5h-5v69h6zM37 903h3v-4h1v4h54v-7h-31v6h-17v-6h-4v1h-22v-1h-5v7h1v-1h20v1zM507 946h11v-1h-2v-1h2v-5h9v7h18v-12h-38v12zM762 406h-5v15h14v-35h-9v20zM483 556v1h-6v-1h-13v12h33v-12h-14z
M507 929h38v-10h-38v10zM757 254v28h14v-28h-14zM24 853v-3h23v-17h-21v16h-10v4h8zM657 655h15v-26h-15v26zM355 950v-8h-15v6h-6v-6h-28v8h49zM109 548v11h34v-11h-15v1h-5v-1h-14zM703 415v-16h-30v2h-8v3h32v7h-32v4h38zM464 193h33v-11h-33v11zM691 946v-12h-30v12h30z
M691 567v-11h-30v12h27v-1h3zM757 629v26h14v-26h-14zM597 170v-6h-58v6h58zM383 435v-3h-19v12h12v8h-12v5h4v-3h15v-15h-6v-4h6zM513 494v-7h-49v7h49zM513 503v-7h-49v7h49zM104 432v12h28v-12h-28zM266 486v-8h-42v8h42zM65 226h18v-3h8v3h10v-10h-36v10zM420 608h18v-2
h9v2h8v-10h-35v10zM420 234h18v-2h9v2h8v-10h-35v10zM334 937v-11h-28v11h28zM334 921v-11h-28v11h28zM334 544v-11h-28v11h28zM703 794v-15h-30v2h-8v4h32v7h-32v2h38zM597 171h-15v22h15v-22zM383 814v-3h-19v13h12v6h-12v2h19v-13h-6v-5h6zM334 558v-10h-28v11h25v-1h3z
M539 282h12v-28h-12v28zM337 614v-7h-19v-4h-16v11h35zM464 541v10h13v-2h6v2h14v-10h-33zM133 669h22v-6h6v6h4v-11h-32v11zM229 608h-10v-5h-5v5h-6v6h36v-11h-15v5zM227 164v21h15v-21h-15zM619 494v-7h-45v7h45zM539 193h12v-19h17v-3h-29v22zM213 535h-13v-2h-15v11h29
v-6h8v-5h-9v2zM185 647h12v-26h-12v26zM606 946h28v-12h-28v12zM488 303h22v-7h6v7h4v-11h-32v11zM280 873v-7h-44v7h44zM684 714v14h22v-14h-22zM327 330v13h22v-13h-22zM65 600h18v-3h8v3h10v-9h-36v9zM691 929v-10h-30v10h30zM691 551v-10h-30v10h30zM526 516v-5h-7v1h-6
v-1h-49v5h9v-2h3v2h50zM582 242h-10v-6h-4v6h-7v6h36v-12h-15v6zM300 274h-21v2h-9v7h9v2h21v-11zM383 239v-3h-4v-2h4v-5h-33v7h10v3h23zM337 239v-6h-19v-4h-16v10h35zM327 706v13h22v-13h-22zM684 338v13h22v-13h-22zM488 676h22v-6h6v6h4v-10h-32v10zM229 234h-10v-5h-5
v5h-6v5h36v-10h-15v5zM707 244h10v4h18v-12h-28v8zM691 881v-8h-34v8h34zM334 496v-8h-32v8h32zM334 865v-8h-32v8h32zM334 486v-8h-32v8h32zM604 282h10v-28h-10v28zM402 274h12v-20h-12v20zM535 873v8h33v-8h-33zM229 432v5h-5v7h24v-12h-19zM251 621v26h10v-26h-10z
M251 247v27h10v-27h-10zM634 929v-10h-28v10h28zM493 910h52v-5h-52v5zM582 617h-10v-6h-4v6h-7v4h36v-10h-15v6zM575 942h-7v-8h-11v12h26v-12h-8v8zM285 163l2 86h3l-2 -86h-3zM402 533h48v-7h-32v6h-14v-6h-2v7zM360 370v10h23v-10h-23zM387 600v64h4v-64h-4zM597 636v-7
h-36v7h36zM71 759h12v-22h-12v22zM71 380h12v-20h-12v20zM654 282h-20v3h-11v5h11v2h20v-10zM350 207v7h33v-7h-33zM348 185h50l2 8h6v-11h-58v3zM623 282h11v-28h-11v28zM488 282h9v-28h-9v28zM83 585h-3v-2h-15v6h36v-6h-18v2zM83 210h-3v-3h-15v7h36v-7h-18v3zM374 489
v11h20v-11h-20zM109 370v10h22v-10h-22zM266 865v-8h-30v8h30zM617 719v10h26v-10h-26zM617 342v10h26v-10h-26zM264 333v10h24v-10h-24zM208 382v6h40v-6h-40zM325 252v15h17v-15h-17zM334 873v-7h-32v7h32zM691 503v-7h-34v7h34zM757 463v17h14v-17h-14zM691 494v-7h-34v7
h34zM302 466v7h32v-7h-32zM109 544h14v-3h5v3h4v-11h-23v11zM440 874h-20v-1h-2v8h32v-8h-10v1zM729 172h-5v-1h-10v8h30v-8h-15v1zM270 274h9v-27h-9v27zM65 647h18v-13h-18v13zM65 274h18v-13h-18v13zM270 647h9v-26h-9v26zM109 857v8h29v-8h-29zM86 489h-21v-1h-1v8h31
v-8h-9v1zM619 516v-5h-45v5h45zM557 929h11v-5h7v5h8v-10h-26v10zM133 656h32v-8h-32v8zM179 921h8v-9h1v9h12v-11h-21v11zM629 509h5v-4h-60v4h45v-1h10v1zM183 811v13h17v-13h-17zM604 193h10v-22h-10v22zM427 387h11v-19h-11v19zM427 767h11v-20h-11v20zM150 937h14v-5h9
v5h1v-11h-24v11zM139 295h16v-7h6v7h4v-10h-26v10zM634 881v-8h-29v8h29zM327 525v-8h-25v8h25zM447 282h8v-28h-8v28zM264 711v9h24v-9h-24zM512 282h8v-28h-8v28zM721 462h14v-23h-14v13h12v9h-12v1zM279 501v-1h1v-3h-56v4h42v-1h10v1h3zM292 581v5h2v-5h6v-4h-6v-7h-2v7
h-3v-2h-3v2h-7v4h7v17h3v-17h3zM249 185h10v-21h-10v21zM109 647h16v-13h-16v13zM109 274h16v-13h-16v13zM721 838v4h4v-2h10v-21h-14v11h12v8h-12zM360 750v9h23v-9h-23zM383 614v-3h-4v-3h4v-5h-7v5h-21v-5h-5v7h10v4h23zM561 391v5h41v-5h-41zM561 770v5h41v-5h-41z
M224 541h5v3h15v-11h-20v8zM438 568h17v-12h-17v12zM107 185h34v-6h-34v6zM691 871v-6h-34v6h34zM440 497h-20v-1h-2v7h32v-7h-10v1zM302 844v6h32v-6h-32zM109 866v7h29v-7h-29zM109 896v7h29v-7h-29zM208 762v5h40v-5h-40zM464 873v8h25v-8h-25zM65 614h18v-11h-18v11z
M279 879v-2h1v-3h-44v5h30v-2h10v2h3zM420 303h18v-11h-18v11zM420 248h18v-12h-18v12zM255 382v6h33v-6h-33zM137 380h18v-10h-18v10zM497 170v-6h-33v6h33zM497 177v-6h-33v6h33zM109 750v9h22v-9h-22zM464 758v9h22v-9h-22zM464 379v8h22v-8h-22zM83 559h18v-11h-18v11z
M65 669h18v-11h-18v11zM86 867h-21v-1h-1v7h31v-7h-9v1zM513 509v-4h-49v4h49zM771 801v-13h-14v13h14zM717 337h18v-17h-18v4h16v8h-16v5zM34 180h-3v-1h-15v6h33v-6h-15v1zM181 380h16v-10h-22v3h6v7zM488 664h32v-6h-32v6zM183 185h12v-19h17v-2h-29v5h9v10h-9v6z
M538 865v2h-3v4h33v-6h-30zM139 444h16v-12h-16v12zM327 903v-7h-25v7h25zM684 533v-7h-27v7h27zM129 937h17v-11h-17v11zM90 937h17v-11h-17v11zM757 858h14v-23h-5v15h-9v8zM438 193h17v-11h-17v11zM402 910h48v-5h-32v4h-14v-4h-2v5zM109 517v8h23v-8h-23zM109 478v8h23
v-8h-23zM109 488v8h23v-8h-23zM141 824h14v-13h-14v13zM139 283h26v-7h-26v7zM420 676h18v-10h-18v10zM420 621h18v-10h-18v10zM65 295h18v-10h-18v10zM65 239h18v-10h-18v10zM582 568h15v-12h-15v12zM420 568h15v-12h-15v12zM420 655h18v-11h-18v11zM302 669h16v-11h-16v11
zM109 658v11h16v-11h-16zM109 614h16v-11h-16v11zM464 292v11h16v-11h-16zM464 248h16v-12h-16v12zM317 799v7h23v-7h-23zM397 937v-3h-14v-5h14v-3h-21v11h21zM73 949h-5v-7h-10v8h26v-8h-11v7zM657 475v5h34v-5h-34zM657 853v5h34v-5h-34zM141 169v-5h-34v5h34zM46 274h13
v-13h-13v13zM438 593h-3v-2h-15v5h35v-5h-17v2zM46 647h13v-13h-13v13zM266 507v-4h-42v4h42zM224 473h24v-7h-24v7zM291 658v14h4v-14h1v-11h-1v-5h-4v5h-4v11h4zM438 219h-3v-3h-15v5h35v-5h-17v3zM37 913h-20v-3h-1v10h24v-10h-3v3zM168 647h8v-26h-8v6h6v7h-6v13z
M608 770v5h35v-5h-35zM608 391v5h35v-5h-35zM229 559h15v-11h-15v11zM65 559h15v-11h-15v11zM657 303h15v-11h-15v11zM657 248h15v-12h-15v12zM255 762v5h33v-5h-33zM279 903v-7h-24v7h8v-1h3v1h13zM535 882v5h33v-5h-33zM420 193h15v-11h-15v11zM717 713h18v-17h-18v3h16v9
h-16v5zM524 254v28h6v-28h-6zM137 759h18v-9h-18v9zM492 387h18v-8h-18v8zM492 767h18v-9h-18v9zM717 387h18v-8h-18v8zM717 767h18v-9h-18v9zM736 282h6v-28h-6v28zM302 295h16v-10h-16v10zM302 226h16v-10h-16v10zM464 666v10h16v-10h-16zM464 611v10h16v-10h-16zM109 239
h16v-10h-16v10zM109 285v10h16v-10h-16zM450 516v-5h-32v5h32zM450 887v-5h-32v5h32zM464 598v10h16v-10h-16zM464 234h16v-10h-16v10zM109 226h16v-10h-16v10zM488 290h32v-5h-32v5zM513 881v-8h-20v8h20zM464 655h16v-11h-16v11zM657 379v6h-3v11h10v-17h-7zM185 274h12
v-13h-12v13zM181 759h16v-9h-22v2h6v7zM447 781v4h39v-4h-39zM327 879v-2h7v-3h-32v5h25zM684 887v-2h7v-3h-34v5h27zM382 706v-10h-6v4h-16v6h22zM382 330v-10h-6v4h-16v6h22zM707 619h10v2h18v-10h-2v5h-21v-5h-5v8zM302 370v8h-2v10h9v-18h-7zM95 879v-5h-31v5h31z
M205 896v7h22v-7h-22zM535 387h16v-8h-21v1h5v7zM535 767h16v-9h-21v2h5v7zM398 948v2h74v-2h-74zM397 950v-2h-14v-2h14v-4h-21v8h21zM158 486v-8h-19v8h19zM158 496v-8h-19v8h19zM582 655h15v-11h-15v11zM464 865v6h25v-6h-25zM657 676h15v-10h-15v10zM657 621h15v-10h-15
v10zM736 655h6v-26h-6v26zM657 234h15v-10h-15v10zM582 224v10h15v-10h-15zM582 598v10h15v-10h-15zM229 216v10h15v-10h-15zM538 853v5h30v-5h-30zM657 758v7h-3v10h10v-17h-7zM634 170v-1h19v-5h-30v6h11zM557 910h26v-3h3v3h2v-5h-31v5zM109 874v5h29v-5h-29zM83 255v-8
h-18v8h18zM493 946h12v-12h-12v12zM539 568h12v-12h-12v12zM109 600h16v-9h-16v9zM279 921v-11h-13v11h13zM266 937h13v-11h-13v11zM104 452v5h28v-5h-28zM574 480h28v-5h-28v5zM302 750v7h-2v10h9v-17h-7zM736 462h6v-23h-6v23zM90 950h17v-8h-17v8zM434 814h4v-33h-4v33z
M434 435h4v-34h-4v34zM129 950h17v-8h-17v8zM158 865v-8h-17v8h17zM684 910v-5h-27v5h27zM229 591v9h15v-9h-15zM684 516v-5h-27v5h27zM478 934v12h11v-12h-11zM43 937h12v-11h-12v11zM185 559h12v-11h-12v11zM302 600h16v-9h-12v3h-4v6zM188 926v11h12v-11h-12zM736 840h6
v-21h-6v21zM416 337h22v-5h-22v5zM185 614h12v-11h-12v11zM539 248h12v-12h-12v12zM712 946v-4h-6v-8h-9v12h15zM608 781v4h35v-4h-35zM255 784v4h33v-4h-33zM608 411v4h35v-4h-35zM109 700v6h22v-6h-22zM464 332v5h22v-5h-22zM526 893v-4h-33v4h33zM91 647h10v-13h-10v13z
M133 634v13h10v-13h-10zM91 274h10v-13h-10v13zM634 910v-5h-28v5h28zM657 608h15v-10h-11v5h-4v5zM38 216v10h13v-10h-13zM131 327h-1v-3h-21v6h22v-3zM684 509v-1h7v-3h-34v4h27zM327 501v-1h7v-3h-32v4h25zM171 507v-4h-32v4h32zM125 255v-8h-16v8h16zM572 881h16v-8h-16
v8zM450 893v-4h-32v4h32zM450 509v-4h-32v4h32zM712 568v-5h-6v-7h-9v11h10v1h5zM16 656h6v-22h-6v22zM438 636v-7h-18v7h18zM62 706h21v-6h-21v6zM62 330h21v-6h-21v6zM65 656h18v-8h-18v8zM65 283h18v-7h-18v7zM464 882v5h25v-5h-25zM464 905v5h25v-5h-25zM458 838v4h31
v-4h-31zM95 884v-4h-31v4h31zM95 501v-4h-31v4h31zM95 507v-4h-31v4h31zM450 494v-7h-32v7h2v-5h20v5h10zM95 486v-8h-31v8h1v-6h21v6h9zM73 937h11v-11h-11v11zM112 937h11v-11h-11v11zM321 426v8h13v-8h-13zM224 457h24v-5h-24v5zM539 655h12v-11h-12v11zM538 838v4h30v-4
h-30zM513 871v-6h-20v6h20zM693 248v-7h-20v7h20zM693 621v-6h-20v6h20zM91 773v3h40v-3h-40zM91 394v3h40v-3h-40zM539 621h12v-10h-12v10zM185 239h12v-10h-12v10zM185 226h12v-10h-12v10zM539 234h12v-10h-12v10zM604 568h10v-12h-10v12zM266 884v-4h-30v4h30zM493 929
h12v-10h-12v10zM746 179h15v-8h-15v8zM158 873v-7h-17v7h17zM139 473h19v-2h-3v-5h-16v7zM623 193h11v-13h-11v13zM205 921h9v-5h3v-6h-12v11zM447 401v3h39v-3h-39zM38 591v9h13v-9h-13zM56 613h-5v-10h-13v3h8v8h13v-11h-3v10zM353 409v58h2v-58h-2zM629 887h5v-5h-29v5
h14v-2h10v2zM49 169v-3h5v3h6v-5h-26v5h15zM171 884v-4h-7v1h-6v-1h-17v4h30zM480 636v-7h-16v7h16zM164 950v-8h-14v8h14zM383 356v-2h-1v-3h-22v5h23zM109 207v7h16v-7h-16zM109 276v7h16v-7h-16zM109 589h16v-6h-16v6zM109 648v8h16v-8h-16zM458 413h28v-4h-28v4z
M450 871v-6h-32v6h2v-4h20v4h10zM302 283h16v-7h-16v7zM302 656h16v-8h-16v8zM302 214h16v-7h-16v7zM292 480v37h3v-37h-3zM58 937h10v-11h-10v11zM416 713h22v-5h-22v5zM251 559h10v-11h-10v11zM41 548v11h10v-11h-10zM251 603v11h10v-11h-10zM604 236v12h10v-12h-10z
M464 708v5h22v-5h-22zM251 544h10v-11h-10v11zM91 669h10v-11h-10v11zM133 603v11h10v-11h-10zM91 614h10v-11h-10v11zM109 351v5h22v-5h-22zM175 356h22v-5h-22v5zM91 380h10v-10h-10v10zM109 880v4h9v-2h3v2h17v-4h-29zM355 937v-3h-7v-8h-8v11h15zM83 627v-6h-18v6h18z
M268 185h9v-12h-9v12zM535 889v4h10v-2h12v2h11v-4h-33zM217 934h-3v-8h-9v11h12v-3zM137 706h18v-6h-18v6zM104 785h27v-4h-27v4zM492 337h18v-5h-18v5zM104 405h27v-4h-27v4zM684 893v-4h-27v4h27zM327 884v-4h-25v4h25zM327 507v-4h-25v4h25zM736 337h6v-17h-6v17z
M420 664h18v-6h-18v6zM623 568h11v-12h-11v12zM229 207v7h15v-7h-15zM229 276v7h15v-7h-15zM229 583v6h15v-6h-15zM229 648v8h15v-8h-15zM265 417v15h7v-15h-7zM279 950v-8h-13v8h13zM458 465h52v-2h-52v2zM59 255v-8h-13v8h13zM168 274h8v-13h-8v13zM699 179h13v-8h-13v8z
M214 865h13v-8h-13v8zM109 196v3h34v-3h-34zM109 573v3h34v-3h-34zM736 713h6v-17h-6v17zM104 833v2h34v-2h-34zM137 330h18v-6h-16v3h-2v3zM95 865v-8h-31v8h1v-7h21v7h9zM91 295h10v-10h-10v10zM91 239h10v-10h-10v10zM251 229v10h10v-10h-10zM604 644v11h10v-11h-10z
M604 611v10h10v-10h-10zM604 551h10v-10h-10v10zM513 887v-5h-20v5h20zM604 598v10h10v-10h-10zM604 224v10h10v-10h-10zM251 216v10h10v-10h-10zM608 401v3h35v-3h-35zM255 404v3h33v-3h-33zM255 394v3h33v-3h-33zM80 427h3v-33h-3v33zM488 236v12h9v-12h-9zM270 559h9v-11
h-9v11zM270 614h9v-11h-9v11zM623 248h11v-12h-11v12zM279 544v-11h-9v11h9zM62 356h6v-2h3v2h12v-5h-21v5zM355 559v-3h-7v-8h-8v10h10v1h5zM255 773v3h33v-3h-33zM80 805h3v-32h-3v32zM46 669h4v-5h9v-6h-13v11zM41 949v1h14v-8h-12v7h-2zM414 636v-7h-12v7h12zM464 658v6
h16v-6h-16zM205 950h12v-8h-12v8zM188 942v8h12v-8h-12zM572 871h16v-6h-16v6zM197 255v-8h-12v8h12zM125 627v-6h-16v6h16zM271 731v9h12v-9h-12zM464 889v4h9v-2h3v2h13v-4h-25zM668 176h-7v-5h-4v8h16v-8h-5v5zM109 497v4h23v-4h-23zM360 781v4h23v-4h-23zM360 737v4h23
v-4h-23zM360 401v4h23v-4h-23zM46 283h13v-7h-13v7zM538 439v13h7v-13h-7zM46 656h13v-8h-13v8zM164 811v13h7v-13h-7zM519 439v13h7v-13h-7zM214 873h13v-7h-13v7zM493 858h20v-2h-3v-3h-17v5zM554 533h13v-7h-13v7zM554 503h13v-7h-13v7zM554 494h13v-7h-13v7zM158 274h7
v-13h-7v13zM158 647h7v-13h-7v13zM623 234h11v-10h-11v10zM16 706h5v-20h-5v20zM270 226h9v-10h-9v10zM208 413v5h18v-5h-18zM208 792v4h18v-4h-18zM137 356h18v-5h-18v5zM383 732v-2h-1v-2h-22v4h23zM492 713h18v-5h-18v5zM251 591v9h10v-9h-10zM420 290h18v-5h-18v5z
M488 611v10h9v-10h-9zM488 598v10h9v-10h-9zM133 591v9h10v-9h-10zM488 224v10h9v-10h-9zM657 664h15v-6h-15v6zM582 658v6h15v-6h-15zM623 621h11v-10h-11v10zM270 239h9v-10h-9v10zM91 759h10v-9h-10v9zM634 551v-10h-11v10h11zM706 929v-10h-9v10h9zM623 608h11v-10h-11
v10zM706 551v-10h-9v10h9zM63 185h15v-6h-15v6zM141 850h17v-2h-3v-4h-14v6zM488 644v11h9v-11h-9zM623 655h11v-11h-11v11zM744 170v-6h-15v6h15zM761 170v-6h-15v6h15zM370 900v5h16v-5h-16zM175 732h22v-4h-22v4zM447 303h8v-11h-8v11zM179 937h8v-11h-8v11zM464 737v4
h22v-4h-22zM109 728v4h22v-4h-22zM512 248h8v-12h-8v12zM175 741h22v-4h-22v4zM109 737v4h22v-4h-22zM168 603v11h8v-11h-8zM348 921v-11h-8v11h8zM416 324h22v-4h-22v4zM112 950h11v-8h-11v8zM643 666h8v-11h-8v11zM464 359v4h22v-4h-22zM348 544v-11h-8v11h8zM168 544h8
v-11h-8v11zM447 248h8v-12h-8v12zM255 921h8v-11h-8v11zM255 937h8v-11h-8v11zM680 179h11v-8h-11v8zM512 193h8v-11h-8v11zM396 229v5h10v-10h-10v2h9v3h-9zM396 603v5h10v-10h-10v2h9v3h-9zM109 503v4h9v-2h3v2h11v-4h-23zM183 452v5h17v-5h-17zM46 295h4v-5h9v-5h-13v10z
M16 330h5v-17h-5v17zM158 879v-5h-17v5h17zM402 664h12v-6h-12v6zM619 871v-6h-14v6h14zM530 363h21v-4h-21v4zM416 363h7v-1h4v1h11v-4h-22v4zM458 433h28v-3h-28v3zM185 283h12v-7h-12v7zM62 690h21v-4h-21v4zM458 792h28v-3h-28v3zM306 589h12v-6h-12v6zM757 658v6h14v-6
h-14zM402 282h12v-6h-12v6zM185 214h12v-7h-12v7zM185 656h12v-8h-12v8zM416 741h7v-1h4v1h11v-4h-22v4zM402 655h12v-7h-12v7zM164 432v12h7v-12h-7zM551 636v-7h-12v7h12zM530 741h21v-4h-21v4zM270 600h9v-9h-9v9zM229 719h27v-3h-27v3zM582 350h27v-3h-27v3zM62 732h6
v-1h3v1h12v-4h-21v4zM582 726h27v-3h-27v3zM229 342h27v-3h-27v3zM512 234h8v-10h-8v10zM464 221h16v-5h-16v5zM512 551h8v-10h-8v10zM168 216v10h8v-10h-8zM512 655h8v-11h-8v11zM512 621h8v-10h-8v10zM447 676h8v-10h-8v10zM464 285v5h16v-5h-16zM572 887h16v-5h-16v5z
M139 457h16v-5h-16v5zM190 865h10v-8h-10v8zM101 255v-8h-10v8h10zM181 488v8h10v-8h-10zM447 655h8v-11h-8v11zM447 621h8v-10h-8v10zM168 229v10h8v-10h-8zM512 568h6v-1h-2v-1h2v-5h2v-5h-8v12zM572 858h16v-5h-16v5zM512 608h8v-10h-8v10zM464 596h16v-5h-16v5zM59 627
v-6h-13v6h13zM214 850h13v-6h-13v6zM712 170v-6h-13v6h13zM158 614h7v-11h-7v11zM164 370v10h7v-10h-7zM519 819v11h7v-11h-7zM158 544h7v-11h-7v11zM158 501v-4h-19v4h19zM582 216v5h15v-5h-15zM582 285v5h15v-5h-15zM582 591v5h15v-5h-15zM31 169v-5h-15v5h15zM657 290h15
v-5h-15v5zM78 169v-5h-15v5h15zM657 221h15v-5h-15v5zM398 556v3h7v4h-5v5h6v-12h-8zM46 239h5v-10h-13v3h8v7zM183 478v3h-2v5h10v-8h-8zM137 741h18v-4h-18v4zM492 741h18v-4h-18v4zM492 324h18v-4h-18v4zM717 785h18v-4h-18v4zM539 664h12v-6h-12v6zM717 413h18v-4h-18v4
zM168 591v9h8v-9h-8zM137 690h18v-4h-18v4zM492 413h18v-4h-18v4zM447 767h8v-9h-8v9zM236 850h12v-6h-12v6zM137 732h18v-4h-18v4zM137 405h18v-4h-18v4zM717 741h18v-4h-18v4zM137 785h18v-4h-18v4zM492 785h18v-4h-18v4zM717 363h18v-4h-18v4zM213 525h9v-8h-9v8z
M447 387h8v-8h-8v8zM213 496h9v-8h-9v8zM213 486h9v-8h-9v8zM623 179h11v-8h-11v8zM492 363h18v-4h-18v4zM158 226h7v-10h-7v10zM41 589h10v-6h-10v6zM757 285v5h14v-5h-14zM91 656h10v-8h-10v8zM133 583v6h10v-6h-10zM251 276v7h10v-7h-10zM91 283h10v-7h-10v7zM614 636v-7
h-10v7h10zM190 873h10v-7h-10v7zM402 290h12v-5h-12v5zM133 207v7h10v-7h-10zM158 239h7v-10h-7v10zM281 603v7h10v-7h-10zM251 207v7h10v-7h-10zM158 559h6v-1h-2v-1h2v-3h1v-6h-7v11zM251 583v6h10v-6h-10zM251 648v8h10v-8h-10zM535 496v7h10v-7h-10zM376 427h7v-5h-19v2
h12v3zM360 394v3h23v-3h-23zM360 360v3h23v-3h-23zM405 298h9v-6h-12v3h3v3zM405 672h9v-6h-12v3h3v3zM360 773v3h23v-3h-23zM46 356h4v-17h-4v17zM493 842h17v-4h-17v4zM236 921h2v-3h3v3h2v-11h-7v11zM104 830v2h34v-2h-34zM561 422v4h17v-4h-17zM561 800v4h17v-4h-17z
M56 559h6v-11h-6v11zM464 747v3h22v-3h-22zM175 342h22v-3h-22v3zM464 580v2h33v-2h-33zM175 719h22v-3h-22v3zM109 716v3h22v-3h-22zM416 726h22v-3h-22v3zM464 347v3h22v-3h-22zM416 699h22v-3h-22v3zM416 350h22v-3h-22v3zM464 723v3h22v-3h-22zM524 236v12h6v-12h-6z
M608 792v2h35v-2h-35zM109 360v3h22v-3h-22zM736 303h6v-11h-6v11zM524 193h6v-11h-6v11zM464 205v2h33v-2h-33zM16 669h6v-11h-6v11zM109 339v3h22v-3h-22zM175 363h22v-3h-22v3zM691 170v-6h-11v6h11zM214 879h13v-5h-13v5zM554 480h13v-5h-13v5zM554 516h13v-5h-13v5z
M464 320v4h16v-4h-16zM205 857v8h8v-8h-8zM109 686v4h16v-4h-16zM572 893h16v-4h-16v4zM255 950h8v-8h-8v8zM348 525v-8h-8v8h8zM538 487v2h-3v5h10v-7h-7zM179 950h8v-8h-8v8zM46 732h4v-16h-4v16zM402 741h3v-18h-2v5h-1v4h2v5h-2v4zM176 255v-8h-8v8h8zM572 842h16v-4
h-16v4zM158 600h7v-9h-7v9zM164 750v9h7v-9h-7zM706 533v-7h-9v7h9zM530 750h21v-3h-21v3zM270 589h9v-6h-9v6zM213 473h9v-7h-9v7zM519 379v8h7v-8h-7zM634 636v-7h-11v7h11zM62 719h21v-3h-21v3zM279 648h-9v8h9v-8zM519 758v9h7v-9h-7zM530 350h21v-3h-21v3zM530 726h21
v-3h-21v3zM168 554h5v5h3v-11h-8v6zM270 214h9v-7h-9v7zM497 636v-7h-9v7h9zM62 342h21v-3h-21v3zM62 316h21v-3h-21v3zM220 916h3v5h4v-11h-7v6zM404 473v-10h-6v10h6zM91 330h10v-6h-10v6zM376 805h7v-4h-19v2h12v2zM582 430v3h20v-3h-20zM411 568h5v-12h-5v12zM101 627
v-6h-10v6h10zM539 290h12v-5h-12v5zM539 598v10h6v-10h-6zM524 598v10h6v-10h-6zM183 857v2h-2v6h8v-8h-6zM402 363h3v-16h-2v4h-1v5h2v4h-2v3zM190 850h10v-6h-10v6zM524 611v10h6v-10h-6zM539 221h12v-5h-12v5zM604 658v6h10v-6h-10zM524 644v11h6v-11h-6zM524 224v10h6
v-10h-6zM16 295h6v-10h-6v10zM143 627v-6h-10v6h10zM724 170v-6h-10v6h10zM538 811h30v-2h-30v2zM736 676h6v-10h-6v10zM81 179v6h10v-6h-10zM91 706h10v-6h-10v6zM614 170v-6h-10v6h10zM691 950v-2h-30v2h30zM435 177v-4h-15v4h15zM524 551h6v-10h-6v10zM637 942v5h3v-1h11
v-4h-14zM654 352h4v-2h6v-3h-6v-5h-4v10zM183 803h31v-2h-31v2zM718 879h-1v2h8v-8h-7v6zM654 729h4v-3h6v-3h-6v-4h-4v10zM183 424h31v-2h-31v2zM168 583v6h8v-6h-8zM526 881v-8h-7v8h7zM171 496v-8h-7v8h7zM171 865v-8h-7v8h7zM168 648v8h8v-8h-8zM168 276v7h8v-7h-8z
M368 486v-8h-7v8h7zM168 207v7h8v-7h-8zM348 903v-7h-8v7h8zM220 942v8h7v-8h-7zM183 466v7h8v-7h-8zM520 636v-7h-8v7h8zM171 486v-8h-7v8h7zM181 866v7h8v-7h-8zM205 866v7h8v-7h-8zM757 787h14v-4h-14v4zM458 811h28v-2h-28v2zM368 865v-8h-7v8h7zM574 465h28v-2h-28v2z
M619 893v-4h-14v4h14zM165 255v-8h-7v8h7zM455 636v-7h-8v7h8zM411 193h5v-11h-5v11zM766 834h5v-11h-5v11zM661 596h11v-5h-11v5zM717 750h18v-3h-18v3zM717 726h18v-3h-18v3zM137 776h18v-3h-18v3zM492 792h18v-3h-18v3zM492 699h18v-3h-18v3zM717 350h18v-3h-18v3z
M137 342h18v-3h-18v3zM492 726h18v-3h-18v3zM83 199h18v-3h-18v3zM634 658h-11v6h11v-6zM492 404h18v-3h-18v3zM492 350h18v-3h-18v3zM137 363h18v-3h-18v3zM83 576h18v-3h-18v3zM717 792h18v-3h-18v3zM137 719h18v-3h-18v3zM717 404h18v-3h-18v3zM137 397h18v-3h-18v3z
M492 750h18v-3h-18v3zM736 767h6v-9h-6v9zM223 926v8h-3v3h7v-11h-4zM104 803h26v-2h-26v2zM458 462h52v-1h-52v1zM557 950h26v-2h-26v2zM214 884h13v-4h-13v4zM554 509h13v-4h-13v4zM139 274h4v-13h-4v13zM634 950v-2h-28v2h28zM104 424h26v-2h-26v2zM718 501h-1v2h8v-7h-7
v5zM524 561h3v7h3v-12h-6v5zM16 884h5v-10h-5v10zM604 591v5h10v-5h-10zM91 169v-5h-10v5h10zM398 596h8v-5h-8v5zM91 356h10v-5h-10v5zM604 216v5h10v-5h-10zM604 285v5h10v-5h-10zM190 879h10v-5h-10v5zM16 507h5v-10h-5v10zM622 696v5h12v-5h-12zM535 511v5h10v-5h-10z
M707 598v10h5v-10h-5zM526 503v-7h-7v7h7zM171 873v-7h-7v7h7zM725 494v-7h-7v7h7zM158 589h7v-6h-7v6zM526 494v-7h-7v7h7zM158 214h7v-7h-7v7zM236 896v7h7v-7h-7zM164 466v7h7v-7h-7zM205 844v6h8v-6h-8zM109 313v3h16v-3h-16zM300 343h3v-1h6v-3h-6v-6h-3v10zM166 185h8
v-6h-8v6zM520 177v-6h-8v6h8zM282 934v5h3v-2h11v-3h-14zM310 706h8v-6h-8v6zM360 686v4h12v-4h-12zM310 330h8v-6h-8v6zM302 199h16v-3h-16v3zM464 696v3h16v-3h-16zM447 337h8v-5h-8v5zM350 196v3h16v-3h-16zM447 664h8v-6h-8v6zM139 316h16v-3h-16v3zM520 170v-6h-8v6h8z
M765 179h6v-8h-6v8zM736 387h6v-1h-1v-7h-5v8zM397 921v-2h-21v2h21zM721 433h12v2h2v-5h-14v3zM300 720h3v-1h6v-3h-6v-5h-3v9zM213 457h9v-5h-9v5zM706 910v-5h-9v5h9zM623 221h11v-5h-11v5zM185 591v9h5v-9h-5zM65 196v3h15v-3h-15zM229 573v3h15v-3h-15zM488 216v5h9v-5
h-9zM350 591v9h5v-9h-5zM488 591v5h9v-5h-9zM706 516v-5h-9v5h9zM706 887v-5h-9v5h9zM229 196v3h15v-3h-15zM623 596h11v-5h-11v5zM65 573v3h15v-3h-15zM464 368v2h22v-2h-22zM139 544h4v-11h-4v11zM361 493h-1v1h8v-6h-7v5zM402 647h12v-3h-12v3zM530 636v-7h-6v7h6z
M141 835h14v-2h-14v2zM156 185h7v-6h-7v6zM657 332v5h7v-5h-7zM665 337h7v-5h-7v5zM164 844v6h7v-6h-7zM165 627v-6h-7v6h7zM554 433h14v-3h-14v3zM725 871v-6h-7v6h7zM302 700v6h7v-6h-7zM526 871v-6h-7v6h7zM530 370h21v-2h-21v2zM302 324v6h7v-6h-7zM91 741h10v-4h-10v4z
M725 516v-5h-8v5h8zM190 884h10v-4h-10v4zM447 713h8v-5h-8v5zM582 809v2h20v-2h-20zM447 290h8v-5h-8v5zM512 221h8v-5h-8v5zM368 879v-5h-8v5h8zM181 503v4h10v-4h-10zM181 874v5h8v-5h-8zM348 879v-5h-8v5h8zM139 239h4v-10h-4v10zM725 887v-5h-8v5h8zM269 686v4h10v-4
h-10zM174 169v-5h-8v5h8zM310 356h8v-5h-8v5zM512 596h8v-5h-8v5zM139 226h4v-10h-4v10zM205 874v5h8v-5h-8zM16 496h5v-8h-5v8zM388 207h18v-2h-18v2zM181 497v4h10v-4h-10zM654 411v4h10v-4h-10zM654 781v4h10v-4h-10zM535 505v4h10v-4h-10zM91 732h10v-4h-10v4zM91 690
h10v-4h-10v4zM214 835h13v-2h-13v2zM661 170v-6h-7v5h3v1h4zM229 801v2h19v-2h-19zM229 422v2h19v-2h-19zM608 767h1v-7h5v-5h-6v12zM300 784v4h9v-4h-9zM706 893v-4h-9v4h9zM236 835h12v-2h-12v2zM771 170v-6h-6v6h6zM717 370h18v-2h-18v2zM306 576h12v-3h-12v3zM530 170
v-6h-6v6h6zM492 370h18v-2h-18v2zM527 948v2h18v-2h-18zM185 576h12v-3h-12v3zM530 177v-6h-6v6h6zM185 199h12v-3h-12v3zM524 658v6h6v-6h-6zM277 168v-4h-9v4h9zM360 313v3h12v-3h-12zM183 844v6h6v-6h-6zM54 185h6v-6h-6v6zM255 380h1v-7h6v-4h-7v11zM213 501h9v-4h-9v4z
M706 509v-4h-9v4h9zM361 870h-1v1h8v-5h-7v4zM736 664h6v-6h-6v6zM213 507h9v-4h-9v4zM171 879v-5h-7v5h7zM185 583v6h5v-6h-5zM519 475v5h7v-5h-7zM350 583v6h5v-6h-5zM284 914v5h7v-5h-7zM538 475v5h7v-5h-7zM164 457h7v-5h-7v5zM519 853v5h7v-5h-7zM16 873h5v-7h-5v7z
M255 759h1v-7h6v-4h-7v11zM526 887v-5h-7v5h7zM665 713h7v-5h-7v5zM302 351v5h7v-5h-7zM657 708v5h7v-5h-7zM163 169v-5h-7v5h7zM721 811h12v3h2v-5h-14v2zM438 582h17v-2h-17v2zM438 207h17v-2h-17v2zM47 486v-8h-4v8h4zM348 884v-4h-8v4h8zM368 501v-4h-8v4h8zM181 880v4
h8v-4h-8zM348 507v-4h-8v4h8zM725 509v-4h-8v4h8zM447 741h8v-4h-8v4zM205 880v4h8v-4h-8zM348 501v-4h-8v4h8zM47 496v-8h-4v8h4zM447 324h8v-4h-8v4zM368 507v-4h-8v4h8zM725 893v-4h-8v4h8zM639 922v4h8v-4h-8zM447 363h8v-4h-8v4zM47 865v-8h-4v8h4zM368 884v-4h-8v4h8z
M143 255v-8h-4v8h4zM608 387h1v-7h5v-3h-6v10zM406 239v-3h-8v3h8zM251 196v3h10v-3h-10zM673 170v-6h-5v6h5zM360 339v3h10v-3h-10zM582 205v2h15v-2h-15zM420 205v2h15v-2h-15zM657 207h15v-2h-15v2zM736 290h6v-5h-6v5zM91 719h10v-3h-10v3zM56 226h3v-10h-3v10zM94 185
h5v-6h-5v6zM524 216v5h6v-5h-6zM411 234h3v-10h-3v10zM56 239h3v-10h-3v10zM736 814h6v-5h-6v5zM91 316h10v-3h-10v3zM736 435h6v-5h-6v5zM251 573v3h10v-3h-10zM360 716v3h10v-3h-10zM654 401v3h10v-3h-10zM41 576h10v-3h-10v3zM91 363h10v-3h-10v3zM712 950v-2h-15v2h15z
M406 614v-3h-8v3h8zM411 608h3v-10h-3v10zM190 835h10v-2h-10v2zM524 285v5h6v-5h-6zM524 591v5h6v-5h-6zM420 580v2h15v-2h-15zM91 342h10v-3h-10v3zM539 591v5h6v-5h-6zM582 580v2h15v-2h-15zM164 401v4h7v-4h-7zM519 409v4h7v-4h-7zM665 741h7v-4h-7v4zM526 509v-4h-7v4
h7zM665 363h7v-4h-7v4zM164 737v4h7v-4h-7zM519 781v4h7v-4h-7zM519 838v4h7v-4h-7zM282 942v2h14v-2h-14zM141 832h14v-2h-14v2zM657 737v4h7v-4h-7zM637 948v2h14v-2h-14zM171 501v-4h-7v4h7zM657 359v4h7v-4h-7zM164 781v4h7v-4h-7zM574 462h28v-1h-28v1zM47 873v-7h-4v7
h4zM364 466v7h4v-7h-4zM300 404v3h9v-3h-9zM300 773v3h9v-3h-9zM270 199h9v-3h-9v3zM300 394v3h9v-3h-9zM270 576h9v-3h-9v3zM56 600h3v-9h-3v9zM214 832h13v-2h-13v2zM554 465h13v-2h-13v2zM707 591v5h5v-5h-5zM99 169v-5h-5v5h5zM251 356h5v-5h-5v5zM323 820v1h25v-1h-25z
M586 934v12h2v-12h-2zM161 330h4v-6h-4v6zM161 706h4v-6h-4v6zM736 363h6v-4h-6v4zM736 785h6v-4h-6v4zM539 207h12v-2h-12v2zM205 833v2h8v-2h-8zM46 330h4v-6h-4v6zM447 350h8v-3h-8v3zM364 844v6h4v-6h-4zM447 750h8v-3h-8v3zM736 741h6v-4h-6v4zM539 582h12v-2h-12v2z
M236 832h12v-2h-12v2zM310 719h8v-3h-8v3zM493 950h12v-2h-12v2zM447 726h8v-3h-8v3zM168 196v3h8v-3h-8zM400 494h4v-6h-4v6zM279 865v-8h-3v8h3zM310 363h8v-3h-8v3zM736 413h6v-4h-6v4zM279 486v-8h-3v8h3zM516 337h4v-5h-4v5zM348 873v-3h-8v3h8zM46 706h4v-6h-4v6z
M348 496v-3h-8v3h8zM447 699h8v-3h-8v3zM310 342h8v-3h-8v3zM661 582h11v-2h-11v2zM236 937h2v-11h-2v11zM320 835h11v-1h-11v1zM241 926v11h2v-11h-2zM478 948v2h11v-2h-11zM518 950v-2h-11v2h11zM519 401v3h7v-3h-7zM56 214h3v-7h-3v7zM665 726h7v-3h-7v3zM519 789v3h7v-3
h-7zM56 589h3v-6h-3v6zM164 394v3h7v-3h-7zM665 750h7v-3h-7v3zM158 199h7v-3h-7v3zM634 494v-7h-5v7h5zM164 773v3h7v-3h-7zM657 747v3h7v-3h-7zM164 360v3h7v-3h-7zM519 430v3h7v-3h-7zM519 747v3h7v-3h-7zM164 833v2h7v-2h-7zM665 350h7v-3h-7v3zM302 360v3h7v-3h-7z
M538 430v3h7v-3h-7zM251 732h5v-4h-5v4zM721 853v5h4v-5h-4zM604 741h5v-4h-5v4zM190 832h10v-2h-10v2zM721 475v5h4v-5h-4zM654 792v2h10v-2h-10zM604 363h5v-4h-5v4zM402 324h3v-4h-3v4zM516 713h4v-5h-4v5zM47 879v-5h-4v5h4zM604 580v2h10v-2h-10zM586 919v10h2v-10h-2z
M16 865h5v-4h-5v4zM604 205v2h10v-2h-10zM398 582h8v-2h-8v2zM331 603v1h18v-1h-18zM388 582h9v-2h-9v2zM158 573v3h6v-3h-6zM56 576h6v-3h-6v3zM634 871v-6h-5v6h5zM736 350h6v-3h-6v3zM623 582h11v-2h-11v2zM688 236v1h18v-1h-18zM623 207h11v-2h-11v2zM736 750h6v-3h-6v3
zM736 792h6v-3h-6v3zM706 881v-2h-9v2h9zM736 404h6v-3h-6v3zM688 611v1h18v-1h-18zM706 503v-2h-9v2h9zM56 199h6v-3h-6v3zM183 833v2h6v-2h-6zM736 726h6v-3h-6v3zM46 690h4v-4h-4v4zM236 950h2v-8h-2v8zM512 207h8v-2h-8v2zM400 501h4v-4h-4v4zM241 942v8h2v-8h-2z
M647 547v-2h-8v2h8zM47 884v-4h-4v4h4zM47 507v-4h-4v4h4zM516 324h4v-4h-4v4zM403 832h14v1h-14v-1zM47 501v-4h-4v4h4zM161 690h4v-4h-4v4zM447 370h8v-2h-8v2zM205 830v2h8v-2h-8zM411 596h3v-5h-3v5zM634 516v-5h-5v5h5zM350 573v3h5v-3h-5zM168 351v5h3v-5h-3zM168 339
v3h5v-3h-5zM402 699h3v-3h-3v3zM411 221h3v-5h-3v5zM519 463v2h7v-2h-7zM519 368v2h7v-2h-7zM538 463v2h7v-2h-7zM414 248v-1h-12v1h12zM519 809v2h7v-2h-7zM164 422v2h7v-2h-7zM665 370h7v-2h-7v2zM164 801v2h7v-2h-7zM291 539v-2h-7v2h7zM164 830v2h7v-2h-7zM657 368v2h7
v-2h-7zM168 716v3h3v-1h2v-2h-5zM255 824h1v-13h-1v13zM608 452h1v-13h-1v13zM554 462h13v-1h-13v1zM364 833v2h4v-2h-4zM255 444h1v-12h-1v12zM524 205v2h6v-2h-6zM637 657v4h3v-4h-3zM183 830v2h6v-2h-6zM161 342h4v-3h-4v3zM736 370h6v-2h-6v2zM398 480h6v-2h-6v2z
M516 726h4v-3h-4v3zM279 884v-4h-3v4h3zM161 719h4v-3h-4v3zM168 728v4h3v-4h-3zM512 580v2h6v-2h-6zM634 893v-4h-5v4h5zM279 507v-4h-3v4h3zM46 316h4v-3h-4v3zM161 316h4v-3h-4v3zM516 699h4v-3h-4v3zM516 350h4v-3h-4v3zM677 842h11v-1h-11v1zM320 457h11v-1h-11v1z
M608 830h1v-11h-1v11zM677 465h11v-1h-11v1zM707 580v2h5v-2h-5zM411 207h5v-2h-5v2zM411 582h5v-2h-5v2zM219 226v-2h-5v2h5zM173 576h3v-3h-3v3zM414 239v-3h-3v3h3zM282 648v4h3v-4h-3zM524 723v3h3v-3h-3zM414 614v-3h-3v3h3zM173 942v8h1v-8h-1zM524 737v4h2v-4h-2z
M404 507v-2h-4v2h4zM721 463v2h4v-2h-4zM524 347v3h2v-1h1v-2h-3zM524 359v4h2v-4h-2zM538 461v1h7v-1h-7zM519 461v1h7v-1h-7zM527 582h3v-2h-3v2zM403 805h1v6h-1v-6zM219 600v-1h-5v1h5zM608 480h1v-5h-1v5zM255 457h1v-5h-1v5zM608 858h1v-5h-1v5zM164 356h1v-5h-1v5z
M572 608v-1h-4v1h4zM608 842h1v-4h-1v4zM586 948v2h2v-2h-2zM164 732h1v-4h-1v4zM519 741h1v-4h-1v4zM572 234v-1h-4v1h4zM519 363h1v-4h-1v4zM255 741h1v-4h-1v4zM302 833v2h1v-2h-1zM608 433h1v-3h-1v3zM255 835h1v-2h-1v2zM255 363h1v-3h-1v3zM608 750h1v-3h-1v3z
M255 803h1v-2h-1v2zM255 832h1v-2h-1v2zM255 424h1v-2h-1v2zM657 463v2h1v-2h-1zM608 465h1v-2h-1v2zM608 370h1v-2h-1v2zM608 811h1v-2h-1v2zM608 462h1v-1h-1v1z" />
    <glyph glyph-name="heart" unicode="&#x2665;" horiz-adv-x="1217" 
d="M606 133q325 389 355 451q32 70 32 129q0 69 -53 119q-52 51 -129 51q-80 0 -137 -54q-42 -39 -68 -116q-25 78 -69 116q-60 54 -138 54q-77 0 -129 -52q-53 -51 -53 -124q0 -43 16 -81q16 -41 46 -87l91 -115z" />
    <glyph glyph-name="[namenotfound]" unicode="&#xe801;" horiz-adv-x="510" 
d="M358 1061h-188v-1061h188v1061zM0 1368q-37 0 -60 -23q-24 -24 -24 -57q0 -18 7 -32q8 -17 19 -26q13 -11 27 -17q14 -7 31 -7t31 7q15 6 26 17q10 10 18 26q7 14 7 32q0 17 -8 33q-8 15 -20 26q-10 9 -26 16q-17 5 -28 5z" />
    <glyph glyph-name="[namenotfound]" unicode="&#xe802;" horiz-adv-x="835" 
d="M704 -260v1321h-629v-148h443v-1173h186zM282 647q-36 0 -52 -21q-18 -22 -18 -47q0 -27 21 -47q20 -20 49 -20q26 0 48 20q20 20 20 47q0 29 -20 49q-20 19 -48 19zM282 438q-31 0 -50 -19q-20 -20 -20 -49q0 -28 21 -48q19 -19 49 -19q28 0 48 19q20 20 20 48
q0 29 -20 49q-20 19 -48 19z" />
    <glyph glyph-name="[namenotfound]" unicode="&#xe803;" horiz-adv-x="824" 
d="M697 1061h-629v-148h443v-1173h186v1321zM199 325h92v135h105v82h-302v-82h105v-135z" />
    <glyph glyph-name="[namenotfound]" unicode="&#xe804;" horiz-adv-x="891" 
d="M860 1061h-624v217h-160v-365h543l-328 -913h180zM-123 1333q-31 0 -50 -19q-20 -20 -20 -48q0 -29 22 -48q22 -20 48 -20t48 20q20 20 20 48q0 15 -6 28q-9 14 -17 21q-12 10 -22 14q-11 4 -23 4z" />
    <glyph glyph-name="[namenotfound]" unicode="&#xe805;" horiz-adv-x="899" 
d="M850 1061h-624v217h-160v-365h543l-328 -913h180zM-147 1333q-31 0 -50 -19q-20 -20 -20 -48q0 -29 22 -48q22 -20 48 -20t48 20q20 20 20 48q0 15 -6 28q-9 14 -17 21q-12 10 -22 14q-11 4 -23 4zM254 661q-34 0 -50 -21q-18 -22 -18 -46q0 -29 20 -49q19 -19 48 -19
t49 20q19 19 19 48q0 32 -21 50q-23 17 -47 17z" />
    <glyph glyph-name="[namenotfound]" unicode="&#xf8ff;" horiz-adv-x="2978" 
d="M-2 965v-959h958v959h-958zM516 504h4q0 28 33 77q28 44 98 130q-27 0 -38 1q-17 2 -27 3q-13 2 -23 6l8 117h45l27 -60h125q26 0 30 -9q5 -10 5 -21v-39h-35q-20 0 -46 -21q-27 -22 -50 -51q-27 -33 -45 -64q-21 -33 -33 -57q-14 -23 -14 -47q0 -25 28 -59q1 -1 5.5 -7
t8.5 -10l26 -31q22 -24 33 -37l34 -40l43 -52l47 -57v-51h-45l-385 455q-33 -9 -53 -29q-21 -20 -29 -44q-9 -24 -7 -50q2 -27 11 -43q29 -54 41 -81q14 -33 17 -59q1 -28 -6 -56q-10 -30 -27 -71h-166q-14 23 -9 43q3 19 9 25h120q23 48 -10 102q-15 27 -27 54
q-8 18 -22 54q-18 56 4 99q20 33 43 61q23 27 68 44l-154 153v56h47l57 -64q30 -35 52 -57l41 -46l39 -43q16 -20 31 -34l18 -21q22 -26 34 -37q18 -19 19 -32zM1008 965v-959h958v959h-958zM1526 504h4q0 27 32 77t97 130q-49 0 -66 4q-12 2 -22 6l10 117h43l27 -60h125
q24 0 28 -9q4 -8 4 -21v-39h-32q-22 0 -48 -21q-27 -22 -50 -51q-25 -30 -46 -64q-21 -33 -33 -57q-2 -4 -10 -22q-4 -12 -3 -25q2 -16 8 -27q9 -17 22 -32q6 -10 39 -48l11 -11.5l12.5 -13.5l10.5 -12l33 -40q14 -18 44 -52l49 -57v-51h-46l-387 455q-32 -9 -52 -29
t-29 -44q-9 -23 -7 -49q1 -25 13 -44l40 -80q14 -35 17 -60q3 -27 -5 -57q-11 -34 -28 -70h-170q-10 22 -7 43q3 20 7 25h125q10 21 8 49q-1 24 -18 53q-17 26 -31 55q-13 26 -21 53q-8 25 -6 51q2 27 13 48q17 33 40 61q23 27 68 44l-155 153v56h49q25 -31 57 -64
q24 -28 53 -57l43 -47l38 -42q22 -26 30 -34q18 -20 19 -21q22 -26 33 -37q15 -16 20 -32zM2021 965v-959h963v959h-963zM2540 504h2q0 28 34 77q31 47 99 130q-51 0 -66 4q-12 2 -22 6l8 117h45l26 -60h125q23 0 29 -9t6 -21v-39h-35q-21 0 -47 -21t-51 -51
q-27 -33 -45 -64q-19 -30 -31 -57q-14 -23 -15 -47q-1 -25 30 -59q4 -8 38 -48l68 -77l43 -52l49 -57l-2 -51h-45l-385 455q-33 -9 -53 -29q-21 -20 -29 -44q-9 -24 -7 -50q2 -27 11 -43q28 -53 41 -80q14 -35 17 -61q3 -27 -5 -57q-7 -26 -26 -69h-170q-10 22 -7 43
q3 20 7 25h123q11 23 9 49q-1 25 -19 53q-18 29 -30 55q-12 25 -19 53q-7 24 -7 51q0 24 11 48q17 34 41 61q25 28 69 44l-155 153v56h51q18 -22 56 -64q30 -35 52 -57l42 -46l38 -42l30 -35l9.5 -12t7.5 -9q4 -4 34 -37q16 -19 20 -32z" />
    <glyph glyph-name="HEBREWLETTERYODWITHH" unicode="&#xfb1d;" horiz-adv-x="514" 
d="M368 1062h-188v-550h188v550zM20 670q-33 0 -50 -21q-18 -23 -18 -46q0 -29 20 -49q19 -19 48 -19t49 20q19 19 19 48q0 32 -21 50q-23 17 -47 17z" />
    <glyph glyph-name="HEBREWLETTERSHINWITH" unicode="&#xfb2a;" horiz-adv-x="1321" 
d="M1016 1061v-555q0 -100 -26 -172q-25 -69 -73 -114q-47 -44 -114 -63q-69 -20 -148 -20h-278l-86 924h-172l98 -1061h459q250 0 382 136t132 411v514h-174zM743 1061h-163v-668h163v668zM1114 1316q-31 0 -50 -19q-20 -20 -20 -48q0 -29 22 -48q22 -20 48 -20t48 20
q20 20 20 48q0 15 -6 28q-9 14 -17 21q-12 10 -22 14q-11 4 -23 4z" />
    <glyph glyph-name="HEBREWLETTERSHINWITH" unicode="&#xfb2b;" horiz-adv-x="1313" 
d="M1004 1061v-555q0 -100 -26 -172q-25 -69 -73 -114q-47 -44 -114 -63q-69 -20 -148 -20h-278l-86 924h-172l98 -1061h459q250 0 382 136t132 411v514h-174zM731 1061h-163v-668h163v668zM192 1333q-31 0 -50 -19q-20 -20 -20 -48q0 -29 22 -48q22 -20 48 -20t48 20
q20 20 20 48q0 15 -6 28q-9 14 -17 21q-12 10 -22 14q-11 4 -23 4z" />
    <glyph glyph-name="HEBREWLETTERSHINWITH" unicode="&#xfb2c;" horiz-adv-x="1315" 
d="M670 389q-31 0 -50 -19q-20 -20 -20 -48q0 -29 22 -48q22 -20 48 -20t48 20q20 20 20 48q0 14 -6 28q-9 14 -17 21q-12 10 -22 14q-11 4 -23 4zM1024 1061v-555q0 -100 -26 -172q-25 -69 -73 -114q-47 -44 -114 -63q-69 -20 -148 -20h-278l-86 924h-172l98 -1061h459
q250 0 382 136t132 411v514h-174zM751 1061h-163v-568h163v568zM1109 1323q-31 0 -50 -19q-20 -20 -20 -48q0 -29 22 -48q22 -20 48 -20t48 20q20 20 20 48q0 14 -6 28q-9 14 -17 21q-12 10 -22 14q-11 4 -23 4z" />
    <glyph glyph-name="HEBREWLETTERSHINWITH" unicode="&#xfb2d;" horiz-adv-x="1356" 
d="M208 1317q-31 0 -50 -19q-20 -20 -20 -48q0 -29 22 -48q22 -20 48 -20t48 20q20 20 20 48q0 14 -6 28q-9 14 -17 21q-12 10 -22 14q-11 4 -23 4zM670 389q-31 0 -50 -19q-20 -20 -20 -48q0 -29 22 -48q22 -20 48 -20t48 20q20 20 20 48q0 14 -6 28q-9 14 -17 21
q-12 10 -22 14q-11 4 -23 4zM1024 1061v-555q0 -100 -26 -172q-25 -69 -73 -114q-47 -44 -114 -63q-69 -20 -148 -20h-278l-86 924h-172l98 -1061h459q250 0 382 136t132 411v514h-174zM751 1061h-163v-568h163v568z" />
    <glyph glyph-name="HEBREWLETTERBETWITHD" unicode="&#xfb31;" horiz-adv-x="1036" 
d="M948 145h-139v916h-719v-148h535v-768h-535v-145h858v145zM363 625q-33 0 -50 -21q-18 -22 -18 -46q0 -29 20 -49q19 -19 48 -19t49 20q19 19 19 48q0 32 -21 50q-23 17 -47 17z" />
    <glyph glyph-name="HEBREWLETTERGIMELWIT" unicode="&#xfb32;" horiz-adv-x="707" 
d="M410 239h4l33 -239h162l-135 1061h-354v-148h204q12 -100 19 -149l9 -66q2 -11 4 -33.5t4 -34.5q1 -11 3.5 -33.5t4.5 -34.5q2 -15 7 -62q1 -7 2 -20t2 -20q1 -13 1 -40q0 -56 -12 -103q-12 -48 -40 -82q-29 -35 -76 -55q-49 -20 -118 -20h-78v-160h61q64 0 115 17
q48 16 86 49q36 33 58 75q24 46 34 98zM168 645q-34 0 -50 -21q-18 -22 -18 -46q0 -29 20 -49q19 -19 48 -19t49 20q19 19 19 48q0 32 -21 50q-23 17 -47 17z" />
    <glyph glyph-name="HEBREWLETTERDALETWIT" unicode="&#xfb33;" horiz-adv-x="983" 
d="M585 0h189v913h108v148h-802v-148h505v-913zM369 645q-33 0 -50 -21q-18 -22 -18 -46q0 -29 20 -49q19 -19 48 -19t49 20q19 19 19 48q0 32 -21 50q-23 17 -47 17z" />
    <glyph glyph-name="HEBREWLETTERHEWITHMA" unicode="&#xfb34;" horiz-adv-x="1096" 
d="M135 582v-582h180v582h-180zM942 1061h-815v-148h635v-913h180v1061zM551 641q-33 0 -50 -21q-18 -22 -18 -46q0 -29 20 -49q19 -19 48 -19t49 20q19 19 19 48q0 32 -21 50q-23 17 -47 17z" />
    <glyph glyph-name="HEBREWLETTERVAVWITHD" unicode="&#xfb35;" horiz-adv-x="522" 
d="M385 1061h-188v-1061h188v1061zM29 651q-31 0 -50 -19q-20 -20 -20 -48q0 -29 22 -48q22 -20 48 -20t48 20q20 20 20 48q0 14 -6 28q-9 14 -17 21q-12 10 -22 14q-11 4 -23 4z" />
    <glyph glyph-name="HEBREWLETTERZAYINWIT" unicode="&#xfb36;" horiz-adv-x="700" 
d="M336 0h176q-12 56 -27 136l-28 147l-34 179l-28 151q-13 65 -13 125q0 48 12 92q13 44 43 83h186v148h-567v-148h254q-51 -38 -69 -92q-19 -54 -19 -124q0 -60 10 -121q5 -35 20 -130l27 -146q13 -74 27 -145zM76 541q-31 0 -50 -19q-20 -20 -20 -48q0 -29 22 -48
q22 -20 48 -20t48 20q20 20 20 48q0 14 -6 28q-9 14 -17 21q-12 10 -22 14q-11 4 -23 4z" />
    <glyph glyph-name="HEBREWLETTERTETWITHD" unicode="&#xfb38;" horiz-adv-x="1118" 
d="M991 1061h-418v-148h240v-301q0 -153 -22 -244q-23 -93 -66 -144q-44 -53 -104 -69q-61 -18 -138 -18h-119l-86 924h-186l104 -1061h295q113 0 203 28q94 29 158 92q66 64 103 169q36 105 36 260v512zM567 614q-33 0 -50 -21q-18 -23 -18 -46q0 -29 20 -49q19 -19 48 -19
t49 20q19 19 19 48q0 32 -21 50q-23 17 -47 17z" />
    <glyph glyph-name="HEBREWLETTERYODWITHD" unicode="&#xfb39;" horiz-adv-x="576" 
d="M404 1062h-188v-550h188v550zM47 812q-31 0 -50 -19q-20 -20 -20 -48q0 -29 22 -48q22 -20 48 -20t48 20q20 20 20 48q0 15 -6 28q-9 14 -17 21q-12 10 -22 14q-11 4 -23 4z" />
    <glyph glyph-name="HEBREWLETTERFINALKAF" unicode="&#xfb3a;" horiz-adv-x="803" 
d="M676 -260v1321h-629v-148h443v-1173h186zM256 588q-33 0 -50 -21q-18 -23 -18 -46q0 -29 20 -49q19 -19 48 -19t49 20q19 19 19 48q0 32 -21 50q-23 17 -47 17z" />
    <glyph glyph-name="HEBREWLETTERKAFWITHD" unicode="&#xfb3b;" horiz-adv-x="899" 
d="M379 1061h-299v-148h307q52 0 97 -14q42 -14 74 -48q31 -36 47 -88q16 -54 16 -134v-207q0 -77 -17 -131q-16 -54 -47 -86q-33 -33 -74 -46q-45 -14 -96 -14h-305v-145h297q209 0 318 105q110 104 110 319v211q0 219 -105 322q-106 104 -323 104zM281 620q-33 0 -50 -21
q-18 -23 -18 -46q0 -29 20 -49q19 -19 48 -19t49 20q19 19 19 48q0 32 -21 50q-23 17 -47 17z" />
    <glyph glyph-name="HEBREWLETTERLAMEDWIT" unicode="&#xfb3c;" horiz-adv-x="887" 
d="M854 1061h-624v217h-160v-365h543l-328 -913h180zM253 722q-34 0 -50 -21q-18 -23 -18 -46q0 -29 20 -49q19 -19 48 -19t49 20q19 19 19 48q0 32 -21 50q-23 17 -47 17z" />
    <glyph glyph-name="HEBREWLETTERMEMWITHD" unicode="&#xfb3e;" horiz-adv-x="1069" 
d="M494 142v-142h467v545q0 130 -18 227q-20 99 -65 161q-47 65 -124 96q-81 32 -199 32h-467v-148h176l-200 -913h180l193 913h126q66 0 111 -20q42 -19 68 -56q25 -37 34 -88q9 -52 9 -116v-491h-291zM557 577q-33 0 -50 -21q-18 -22 -18 -46q0 -29 20 -49q19 -19 48 -19
t49 20q19 19 19 48q0 32 -21 50q-23 17 -47 17z" />
    <glyph glyph-name="HEBREWLETTERNUNWITHD" unicode="&#xfb40;" horiz-adv-x="643" 
d="M80 145v-145h161q65 0 116 21q52 22 85 61q34 40 52 96t18 127v756h-326v-148h144v-596q0 -51 -6 -84q-7 -34 -22 -53q-15 -20 -40 -27q-27 -8 -64 -8h-118zM140 647q-34 0 -50 -21q-18 -22 -18 -46q0 -29 20 -49q19 -19 48 -19t49 20q19 19 19 48q0 32 -21 50
q-23 17 -47 17z" />
    <glyph glyph-name="HEBREWLETTERSAMEKHWI" unicode="&#xfb41;" horiz-adv-x="1098" 
d="M569 651q-31 0 -50 -19q-20 -20 -20 -48q0 -29 22 -48q22 -20 48 -20t48 20q20 20 20 48q0 14 -6 28q-9 14 -17 21q-12 10 -22 14q-11 4 -23 4zM973 1061h-877l131 -1061h242q113 0 204 28q94 29 160 92q66 64 103 169q37 104 37 260v512zM803 916v-322q0 -98 -11 -173
q-10 -72 -32 -123q-21 -50 -51 -80t-69 -47q-37 -16 -83 -21q-47 -6 -98 -6h-74l-94 772h512z" />
    <glyph glyph-name="HEBREWLETTERPEWITHDA" unicode="&#xfb44;" horiz-adv-x="1055" 
d="M514 1061h-370v-572h178v425h200q52 0 98 -11q42 -12 74 -42t48 -81q16 -49 16 -129v-237q0 -76 -17 -130q-16 -51 -48 -83q-31 -31 -75 -43q-42 -13 -96 -13h-376v-145h368q210 0 319 105q109 103 109 319v211q0 219 -105 322q-106 104 -323 104zM528 629q-31 0 -50 -19
q-20 -20 -20 -48q0 -29 22 -48q22 -20 48 -20t48 20q20 20 20 48q0 14 -6 28q-9 14 -17 21q-12 10 -22 14q-11 4 -23 4z" />
    <glyph glyph-name="HEBREWLETTERTSADIWIT" unicode="&#xfb46;" horiz-adv-x="1063" 
d="M948 731v330h-174v-334q0 -75 -39 -128q-39 -54 -131 -71l-350 533h-203l611 -916h-533v-145h815l-274 418q66 12 119 42q52 29 88 72t53 94q18 51 18 105zM229 483q-33 0 -50 -21q-18 -22 -18 -46q0 -29 20 -49q19 -19 48 -19t49 20q19 19 19 48q0 32 -21 50
q-23 17 -47 17z" />
    <glyph glyph-name="HEBREWLETTERQOFWITHD" unicode="&#xfb47;" horiz-adv-x="1163" 
d="M1014 1061h-881v-148h697v-361q0 -137 -18 -218q-20 -83 -56 -123q-38 -42 -94 -54q-57 -12 -133 -12h-15v-145h25q113 0 200 25q87 24 149 84q61 59 94 161q32 102 32 254v537zM172 668v-928h168v928h-168zM614 686q-34 0 -50 -21q-18 -23 -18 -46q0 -29 20 -49
q19 -19 48 -19t49 20q19 19 19 48q0 32 -21 50q-23 17 -47 17z" />
    <glyph glyph-name="HEBREWLETTERSHINWITH" unicode="&#xfb49;" horiz-adv-x="1321" 
d="M670 389q-31 0 -50 -19q-20 -20 -20 -48q0 -29 22 -48q22 -20 48 -20t48 20q20 20 20 48q0 14 -6 28q-9 14 -17 21q-12 10 -22 14q-11 4 -23 4zM1024 1061v-555q0 -101 -26 -171q-25 -68 -73 -112q-46 -43 -114 -61q-66 -19 -148 -19h-278l-86 918h-172l98 -1061h459
q250 0 382 136t132 411v514h-174zM751 1061h-163v-568h163v568z" />
    <glyph glyph-name="HEBREWLETTERTAVWITHD" unicode="&#xfb4a;" horiz-adv-x="1221" 
d="M700 1061h-549v-148h115v-768h-193v-145h370v914h245q58 0 96 -21q38 -23 58 -59q22 -39 29 -88q7 -48 7 -109v-637h180v602q0 100 -15 186q-17 85 -56 145q-40 60 -109 94t-178 34zM639 592q-33 0 -50 -21q-18 -23 -18 -46q0 -29 20 -49q19 -19 48 -19t49 20
q19 19 19 48q0 32 -21 50q-23 17 -47 17z" />
    <glyph glyph-name="HEBREWLETTERVAVWITHH" unicode="&#xfb4b;" horiz-adv-x="532" 
d="M375 1061h-188v-1061h188v1061zM281 1355q-37 0 -60 -23q-24 -24 -24 -57q0 -18 7 -32q8 -17 19 -26q13 -11 27 -17q14 -7 31 -7t31 7q15 6 26 17q10 10 18 26q7 14 7 32q0 17 -8 33q-8 15 -20 26q-10 9 -26 16q-17 5 -28 5z" />
    <glyph glyph-name="OBJECTREPLACEMENTCHA" unicode="&#xfffc;" horiz-adv-x="1278" 
d="M348 408l68 -72l637 692l176 -197v443h-402l158 -182zM51 969v-969h930v616l-104 -106v-416h-723v778h329l99 97h-531z" />
  </font>
</defs>
</svg>
